<?xml version="1.0" encoding="UTF-8"?> <svg xmlns="http://www.w3.org/2000/svg" width="69" height="42" viewBox="0 0 69 42" fill="none"> <path d="M19.476 27V15.192H21.132L24.912 22.608L26.046 25.056H26.082C26.058 24.468 26.016 23.856 25.956 23.22C25.908 22.572 25.884 21.936 25.884 21.312V15.192H27.324V27H25.668L21.888 19.584L20.754 17.136H20.718C20.742 17.748 20.778 18.366 20.826 18.99C20.886 19.602 20.916 20.214 20.916 20.826V27H19.476ZM31.205 27V15.192H32.681V25.722H38.531V27H31.205ZM41.4219 27V15.192H44.9859C45.6339 15.192 46.2279 15.252 46.7679 15.372C47.3079 15.492 47.7699 15.69 48.1539 15.966C48.5379 16.23 48.8319 16.584 49.0359 17.028C49.2519 17.472 49.3599 18.018 49.3599 18.666C49.3599 19.29 49.2519 19.83 49.0359 20.286C48.8319 20.742 48.5319 21.12 48.1359 21.42C47.7519 21.72 47.2899 21.948 46.7499 22.104C46.2219 22.248 45.6339 22.32 44.9859 22.32H42.9159V27H41.4219ZM42.9159 21.096H44.8059C45.8499 21.096 46.6179 20.904 47.1099 20.52C47.6019 20.124 47.8479 19.506 47.8479 18.666C47.8479 17.814 47.5959 17.226 47.0919 16.902C46.5879 16.566 45.8259 16.398 44.8059 16.398H42.9159V21.096Z" fill="#676C79"></path> <rect x="0.5" y="0.5" width="68" height="41" stroke="#8CA6EA"></rect> </svg> 