<?xml version="1.0" encoding="UTF-8"?> <svg xmlns="http://www.w3.org/2000/svg" width="144" height="42" viewBox="0 0 144 42" fill="none"> <path d="M22.968 27.216C22.308 27.216 21.66 27.06 21.024 26.748C20.388 26.436 19.866 25.938 19.458 25.254L20.394 24.336C20.73 24.876 21.12 25.272 21.564 25.524C22.02 25.776 22.476 25.902 22.932 25.902C23.784 25.902 24.402 25.68 24.786 25.236C25.182 24.78 25.38 24.066 25.38 23.094V16.434H20.43V15.174H26.874V23.22C26.874 23.772 26.808 24.294 26.676 24.786C26.544 25.266 26.322 25.686 26.01 26.046C25.71 26.406 25.308 26.694 24.804 26.91C24.312 27.114 23.7 27.216 22.968 27.216ZM32.969 20.394L32.411 22.194H35.939L35.381 20.394C35.177 19.734 34.973 19.08 34.769 18.432C34.577 17.772 34.391 17.1 34.211 16.416H34.139C33.947 17.1 33.755 17.772 33.563 18.432C33.371 19.08 33.173 19.734 32.969 20.394ZM29.369 27L33.347 15.192H35.039L39.017 27H37.433L36.317 23.4H32.033L30.899 27H29.369ZM44.1219 27L40.3599 15.192H41.9439L43.8519 21.564C44.0559 22.272 44.2419 22.926 44.4099 23.526C44.5779 24.126 44.7699 24.774 44.9859 25.47H45.0579C45.1659 25.122 45.2679 24.792 45.3639 24.48C45.4599 24.156 45.5499 23.838 45.6339 23.526C45.7299 23.214 45.8199 22.896 45.9039 22.572C45.9999 22.248 46.0959 21.912 46.1919 21.564L48.0819 15.192H49.6119L45.8679 27H44.1219ZM54.5549 20.394L53.9969 22.194H57.5249L56.9669 20.394C56.7629 19.734 56.5589 19.08 56.3549 18.432C56.1629 17.772 55.9769 17.1 55.7969 16.416H55.7249C55.5329 17.1 55.3409 17.772 55.1489 18.432C54.9569 19.08 54.7589 19.734 54.5549 20.394ZM50.9549 27L54.9329 15.192H56.6249L60.6029 27H59.0189L57.9029 23.4H53.6189L52.4849 27H50.9549ZM66.6619 27.216C65.7979 27.216 64.9999 27.06 64.2679 26.748C63.5479 26.436 62.9179 26.01 62.3779 25.47L63.2779 24.426C63.7219 24.87 64.2379 25.23 64.8259 25.506C65.4139 25.77 66.0499 25.902 66.7339 25.902C67.5499 25.902 68.1799 25.728 68.6239 25.38C69.0799 25.032 69.3079 24.582 69.3079 24.03C69.3079 23.718 69.2539 23.454 69.1459 23.238C69.0379 23.022 68.8879 22.836 68.6959 22.68C68.5039 22.524 68.2759 22.386 68.0119 22.266C67.7599 22.146 67.4839 22.02 67.1839 21.888L65.4919 21.15C65.1919 21.03 64.8919 20.886 64.5919 20.718C64.2919 20.55 64.0159 20.346 63.7639 20.106C63.5239 19.866 63.3259 19.584 63.1699 19.26C63.0139 18.924 62.9359 18.54 62.9359 18.108C62.9359 17.664 63.0319 17.25 63.2239 16.866C63.4159 16.482 63.6799 16.152 64.0159 15.876C64.3639 15.588 64.7719 15.366 65.2399 15.21C65.7199 15.054 66.2419 14.976 66.8059 14.976C67.5499 14.976 68.2339 15.114 68.8579 15.39C69.4819 15.654 70.0099 16.002 70.4419 16.434L69.6499 17.406C69.2659 17.058 68.8399 16.788 68.3719 16.596C67.9039 16.392 67.3639 16.29 66.7519 16.29C66.0679 16.29 65.5159 16.446 65.0959 16.758C64.6759 17.058 64.4659 17.478 64.4659 18.018C64.4659 18.306 64.5259 18.552 64.6459 18.756C64.7779 18.948 64.9399 19.122 65.1319 19.278C65.3359 19.422 65.5639 19.548 65.8159 19.656C66.0679 19.764 66.3199 19.872 66.5719 19.98L68.2279 20.7C68.5879 20.844 68.9239 21.012 69.2359 21.204C69.5599 21.384 69.8359 21.6 70.0639 21.852C70.3039 22.092 70.4899 22.38 70.6219 22.716C70.7659 23.04 70.8379 23.418 70.8379 23.85C70.8379 24.318 70.7419 24.756 70.5499 25.164C70.3579 25.572 70.0819 25.932 69.7219 26.244C69.3619 26.544 68.9239 26.784 68.4079 26.964C67.8919 27.132 67.3099 27.216 66.6619 27.216ZM78.2828 27.216C77.5508 27.216 76.8728 27.078 76.2488 26.802C75.6248 26.526 75.0788 26.13 74.6108 25.614C74.1548 25.086 73.7948 24.444 73.5308 23.688C73.2668 22.92 73.1348 22.056 73.1348 21.096C73.1348 20.148 73.2668 19.296 73.5308 18.54C73.7948 17.784 74.1608 17.142 74.6288 16.614C75.0968 16.086 75.6548 15.684 76.3028 15.408C76.9508 15.12 77.6588 14.976 78.4268 14.976C79.1348 14.976 79.7588 15.12 80.2988 15.408C80.8508 15.696 81.3008 16.032 81.6488 16.416L80.8028 17.37C80.4908 17.046 80.1428 16.788 79.7588 16.596C79.3748 16.392 78.9308 16.29 78.4268 16.29C77.8628 16.29 77.3468 16.404 76.8788 16.632C76.4228 16.848 76.0328 17.166 75.7088 17.586C75.3848 17.994 75.1328 18.492 74.9528 19.08C74.7728 19.668 74.6828 20.328 74.6828 21.06C74.6828 21.804 74.7728 22.476 74.9528 23.076C75.1328 23.664 75.3848 24.168 75.7088 24.588C76.0328 25.008 76.4228 25.332 76.8788 25.56C77.3468 25.788 77.8628 25.902 78.4268 25.902C78.9668 25.902 79.4468 25.788 79.8668 25.56C80.2988 25.332 80.7068 25.008 81.0908 24.588L81.9368 25.506C81.4688 26.046 80.9408 26.466 80.3528 26.766C79.7648 27.066 79.0748 27.216 78.2828 27.216ZM84.5578 27V15.192H88.2298C88.8298 15.192 89.3818 15.252 89.8858 15.372C90.3898 15.48 90.8218 15.666 91.1818 15.93C91.5538 16.194 91.8418 16.536 92.0458 16.956C92.2498 17.376 92.3518 17.892 92.3518 18.504C92.3518 19.428 92.1118 20.166 91.6318 20.718C91.1518 21.27 90.5098 21.648 89.7058 21.852L92.7118 27H91.0018L88.1578 22.014H86.0518V27H84.5578ZM86.0518 20.79H88.0138C88.9378 20.79 89.6398 20.604 90.1198 20.232C90.6118 19.848 90.8578 19.272 90.8578 18.504C90.8578 17.724 90.6118 17.178 90.1198 16.866C89.6398 16.554 88.9378 16.398 88.0138 16.398H86.0518V20.79ZM95.2608 27V25.722H98.1948V16.452H95.2608V15.192H102.641V16.452H99.7068V25.722H102.641V27H95.2608ZM106.18 27V15.192H109.744C110.392 15.192 110.986 15.252 111.526 15.372C112.066 15.492 112.528 15.69 112.912 15.966C113.296 16.23 113.59 16.584 113.794 17.028C114.01 17.472 114.118 18.018 114.118 18.666C114.118 19.29 114.01 19.83 113.794 20.286C113.59 20.742 113.29 21.12 112.894 21.42C112.51 21.72 112.048 21.948 111.508 22.104C110.98 22.248 110.392 22.32 109.744 22.32H107.674V27H106.18ZM107.674 21.096H109.564C110.608 21.096 111.376 20.904 111.868 20.52C112.36 20.124 112.606 19.506 112.606 18.666C112.606 17.814 112.354 17.226 111.85 16.902C111.346 16.566 110.584 16.398 109.564 16.398H107.674V21.096ZM119.781 27V16.452H115.893V15.192H125.181V16.452H121.293V27H119.781Z" fill="#676C79"></path> <rect x="0.5" y="0.5" width="143" height="41" stroke="#D4D9E8"></rect> </svg> 