<?xml version="1.0" encoding="UTF-8"?> <svg xmlns="http://www.w3.org/2000/svg" width="58" height="42" viewBox="0 0 58 42" fill="none"> <path d="M23.4 25.974C24.312 25.974 25.032 25.542 25.56 24.678C26.1 23.814 26.37 22.602 26.37 21.042C26.37 19.554 26.1 18.384 25.56 17.532C25.032 16.68 24.312 16.254 23.4 16.254C22.488 16.254 21.762 16.68 21.222 17.532C20.694 18.384 20.43 19.554 20.43 21.042C20.43 22.602 20.694 23.814 21.222 24.678C21.762 25.542 22.488 25.974 23.4 25.974ZM26.658 29.934C25.614 29.934 24.762 29.67 24.102 29.142C23.442 28.614 22.968 27.954 22.68 27.162C22.104 27.066 21.582 26.856 21.114 26.532C20.658 26.208 20.262 25.788 19.926 25.272C19.602 24.744 19.35 24.126 19.17 23.418C18.99 22.71 18.9 21.918 18.9 21.042C18.9 20.094 19.008 19.242 19.224 18.486C19.44 17.73 19.746 17.094 20.142 16.578C20.538 16.05 21.012 15.648 21.564 15.372C22.116 15.096 22.728 14.958 23.4 14.958C24.072 14.958 24.684 15.096 25.236 15.372C25.788 15.648 26.262 16.05 26.658 16.578C27.054 17.094 27.36 17.73 27.576 18.486C27.792 19.242 27.9 20.094 27.9 21.042C27.9 21.894 27.81 22.674 27.63 23.382C27.462 24.078 27.216 24.684 26.892 25.2C26.58 25.716 26.202 26.142 25.758 26.478C25.314 26.802 24.816 27.018 24.264 27.126C24.468 27.642 24.792 28.026 25.236 28.278C25.68 28.53 26.208 28.656 26.82 28.656C27 28.656 27.162 28.638 27.306 28.602C27.462 28.566 27.594 28.524 27.702 28.476L27.99 29.682C27.786 29.754 27.576 29.814 27.36 29.862C27.144 29.91 26.91 29.934 26.658 29.934ZM32.969 20.394L32.411 22.194H35.939L35.381 20.394C35.177 19.734 34.973 19.08 34.769 18.432C34.577 17.772 34.391 17.1 34.211 16.416H34.139C33.947 17.1 33.755 17.772 33.563 18.432C33.371 19.08 33.173 19.734 32.969 20.394ZM29.369 27L33.347 15.192H35.039L39.017 27H37.433L36.317 23.4H32.033L30.899 27H29.369Z" fill="#676C79"></path> <rect x="0.5" y="0.5" width="57" height="41" stroke="#8CA6EA"></rect> </svg> 