<?xml version="1.0" encoding="UTF-8"?> <svg xmlns="http://www.w3.org/2000/svg" width="16" height="16" viewBox="0 0 16 16" fill="none"> <rect width="16" height="16" fill="white"></rect> <path d="M3.28589 6.45473L1.2829 8.47145C0.461473 9.29851 0 10.4202 0 11.5899C0 12.7595 0.461473 13.8812 1.2829 14.7083C2.10433 15.5354 3.21842 16 4.38009 16C5.54177 16 6.65586 15.5354 7.47729 14.7083L10.146 12.0198C10.6413 11.521 11.0106 10.9099 11.2228 10.2376C11.435 9.5654 11.484 8.85172 11.3656 8.1565C11.2471 7.46128 10.9648 6.80481 10.5423 6.24219C10.1197 5.67956 9.5693 5.2272 8.9372 4.92308L8.08169 5.78445C7.99483 5.87204 7.91929 5.97032 7.85686 6.07696C8.34524 6.21832 8.78853 6.48557 9.14289 6.85228C9.49725 7.21899 9.75042 7.67247 9.87738 8.16789C10.0043 8.66331 10.0007 9.18351 9.86677 9.67706C9.73286 10.1706 9.47333 10.6204 9.11385 10.9821L6.44659 13.6691C5.89872 14.2207 5.15564 14.5306 4.38082 14.5306C3.60601 14.5306 2.86293 14.2207 2.31505 13.6691C1.76718 13.1174 1.45938 12.3693 1.45938 11.5891C1.45938 10.809 1.76718 10.0608 2.31505 9.50921L3.47276 8.34504C3.30942 7.72874 3.24631 7.08988 3.28589 6.45326V6.45473Z" fill="#676C79"></path> <path d="M5.854 3.97923C5.35866 4.4781 4.98939 5.08935 4.77719 5.76167C4.56498 6.43399 4.51603 7.14776 4.63445 7.84307C4.75287 8.53838 5.0352 9.19494 5.45774 9.75764C5.88028 10.3203 6.4307 10.7728 7.0628 11.0769L8.19423 9.93612C7.69925 9.80242 7.24793 9.53989 6.88562 9.1749C6.52332 8.80991 6.26279 8.35532 6.13023 7.85682C5.99767 7.35832 5.99774 6.83347 6.13043 6.335C6.26312 5.83654 6.52376 5.38202 6.88616 5.01713L9.55341 2.32976C10.1013 1.77806 10.8444 1.46811 11.6192 1.46811C12.394 1.46811 13.1371 1.77806 13.6849 2.32976C14.2328 2.88147 14.5406 3.62974 14.5406 4.40997C14.5406 5.1902 14.2328 5.93847 13.6849 6.49018L12.5272 7.65451C12.6907 8.27195 12.7535 8.91145 12.7141 9.54654L14.7171 7.52955C15.5385 6.70238 16 5.5805 16 4.41071C16 3.24091 15.5385 2.11903 14.7171 1.29187C13.8957 0.464698 12.7816 0 11.6199 0C10.4582 0 9.34414 0.464698 8.52271 1.29187L5.854 3.97923Z" fill="#676C79"></path> </svg> 