<?xml version="1.0" encoding="UTF-8"?> <svg xmlns="http://www.w3.org/2000/svg" width="69" height="42" viewBox="0 0 69 42" fill="none"> <path d="M24.318 27.216C23.586 27.216 22.908 27.078 22.284 26.802C21.66 26.526 21.114 26.13 20.646 25.614C20.19 25.086 19.83 24.444 19.566 23.688C19.302 22.92 19.17 22.056 19.17 21.096C19.17 20.148 19.302 19.296 19.566 18.54C19.83 17.784 20.196 17.142 20.664 16.614C21.132 16.086 21.69 15.684 22.338 15.408C22.986 15.12 23.694 14.976 24.462 14.976C25.17 14.976 25.794 15.12 26.334 15.408C26.886 15.696 27.336 16.032 27.684 16.416L26.838 17.37C26.526 17.046 26.178 16.788 25.794 16.596C25.41 16.392 24.966 16.29 24.462 16.29C23.898 16.29 23.382 16.404 22.914 16.632C22.458 16.848 22.068 17.166 21.744 17.586C21.42 17.994 21.168 18.492 20.988 19.08C20.808 19.668 20.718 20.328 20.718 21.06C20.718 21.804 20.808 22.476 20.988 23.076C21.168 23.664 21.42 24.168 21.744 24.588C22.068 25.008 22.458 25.332 22.914 25.56C23.382 25.788 23.898 25.902 24.462 25.902C25.002 25.902 25.482 25.788 25.902 25.56C26.334 25.332 26.742 25.008 27.126 24.588L27.972 25.506C27.504 26.046 26.976 26.466 26.388 26.766C25.8 27.066 25.11 27.216 24.318 27.216ZM33.437 27V16.452H29.549V15.192H38.837V16.452H34.949V27H33.437ZM44.9859 27.216C44.3139 27.216 43.7019 27.078 43.1499 26.802C42.5979 26.514 42.1179 26.106 41.7099 25.578C41.3139 25.05 41.0019 24.408 40.7739 23.652C40.5579 22.884 40.4499 22.014 40.4499 21.042C40.4499 20.094 40.5579 19.242 40.7739 18.486C41.0019 17.73 41.3139 17.094 41.7099 16.578C42.1179 16.062 42.5979 15.666 43.1499 15.39C43.7019 15.114 44.3139 14.976 44.9859 14.976C45.6459 14.976 46.2519 15.114 46.8039 15.39C47.3679 15.666 47.8479 16.062 48.2439 16.578C48.6519 17.094 48.9639 17.73 49.1799 18.486C49.4079 19.242 49.5219 20.094 49.5219 21.042C49.5219 22.014 49.4079 22.884 49.1799 23.652C48.9639 24.408 48.6519 25.05 48.2439 25.578C47.8479 26.106 47.3679 26.514 46.8039 26.802C46.2519 27.078 45.6459 27.216 44.9859 27.216ZM44.9859 25.902C45.4299 25.902 45.8379 25.794 46.2099 25.578C46.5819 25.35 46.8939 25.026 47.1459 24.606C47.4099 24.186 47.6139 23.676 47.7579 23.076C47.9019 22.476 47.9739 21.798 47.9739 21.042C47.9739 20.298 47.9019 19.632 47.7579 19.044C47.6139 18.456 47.4099 17.958 47.1459 17.55C46.8939 17.142 46.5819 16.83 46.2099 16.614C45.8379 16.398 45.4299 16.29 44.9859 16.29C44.5299 16.29 44.1159 16.398 43.7439 16.614C43.3839 16.83 43.0719 17.142 42.8079 17.55C42.5559 17.958 42.3579 18.456 42.2139 19.044C42.0699 19.632 41.9979 20.298 41.9979 21.042C41.9979 21.798 42.0699 22.476 42.2139 23.076C42.3579 23.676 42.5559 24.186 42.8079 24.606C43.0719 25.026 43.3839 25.35 43.7439 25.578C44.1159 25.794 44.5299 25.902 44.9859 25.902Z" fill="#676C79"></path> <rect x="0.5" y="0.5" width="68" height="41" stroke="#A48DEB"></rect> </svg> 