<?xml version="1.0" encoding="UTF-8"?> <svg xmlns="http://www.w3.org/2000/svg" width="231" height="42" viewBox="0 0 231 42" fill="none"> <path d="M19.836 27V15.192H23.4C24.048 15.192 24.642 15.252 25.182 15.372C25.722 15.492 26.184 15.69 26.568 15.966C26.952 16.23 27.246 16.584 27.45 17.028C27.666 17.472 27.774 18.018 27.774 18.666C27.774 19.29 27.666 19.83 27.45 20.286C27.246 20.742 26.946 21.12 26.55 21.42C26.166 21.72 25.704 21.948 25.164 22.104C24.636 22.248 24.048 22.32 23.4 22.32H21.33V27H19.836ZM21.33 21.096H23.22C24.264 21.096 25.032 20.904 25.524 20.52C26.016 20.124 26.262 19.506 26.262 18.666C26.262 17.814 26.01 17.226 25.506 16.902C25.002 16.566 24.24 16.398 23.22 16.398H21.33V21.096ZM30.593 27V15.192H34.265C34.865 15.192 35.417 15.252 35.921 15.372C36.425 15.48 36.857 15.666 37.217 15.93C37.589 16.194 37.877 16.536 38.081 16.956C38.285 17.376 38.387 17.892 38.387 18.504C38.387 19.428 38.147 20.166 37.667 20.718C37.187 21.27 36.545 21.648 35.741 21.852L38.747 27H37.037L34.193 22.014H32.087V27H30.593ZM32.087 20.79H34.049C34.973 20.79 35.675 20.604 36.155 20.232C36.647 19.848 36.893 19.272 36.893 18.504C36.893 17.724 36.647 17.178 36.155 16.866C35.675 16.554 34.973 16.398 34.049 16.398H32.087V20.79ZM44.9859 27.216C44.3139 27.216 43.7019 27.078 43.1499 26.802C42.5979 26.514 42.1179 26.106 41.7099 25.578C41.3139 25.05 41.0019 24.408 40.7739 23.652C40.5579 22.884 40.4499 22.014 40.4499 21.042C40.4499 20.094 40.5579 19.242 40.7739 18.486C41.0019 17.73 41.3139 17.094 41.7099 16.578C42.1179 16.062 42.5979 15.666 43.1499 15.39C43.7019 15.114 44.3139 14.976 44.9859 14.976C45.6459 14.976 46.2519 15.114 46.8039 15.39C47.3679 15.666 47.8479 16.062 48.2439 16.578C48.6519 17.094 48.9639 17.73 49.1799 18.486C49.4079 19.242 49.5219 20.094 49.5219 21.042C49.5219 22.014 49.4079 22.884 49.1799 23.652C48.9639 24.408 48.6519 25.05 48.2439 25.578C47.8479 26.106 47.3679 26.514 46.8039 26.802C46.2519 27.078 45.6459 27.216 44.9859 27.216ZM44.9859 25.902C45.4299 25.902 45.8379 25.794 46.2099 25.578C46.5819 25.35 46.8939 25.026 47.1459 24.606C47.4099 24.186 47.6139 23.676 47.7579 23.076C47.9019 22.476 47.9739 21.798 47.9739 21.042C47.9739 20.298 47.9019 19.632 47.7579 19.044C47.6139 18.456 47.4099 17.958 47.1459 17.55C46.8939 17.142 46.5819 16.83 46.2099 16.614C45.8379 16.398 45.4299 16.29 44.9859 16.29C44.5299 16.29 44.1159 16.398 43.7439 16.614C43.3839 16.83 43.0719 17.142 42.8079 17.55C42.5559 17.958 42.3579 18.456 42.2139 19.044C42.0699 19.632 41.9979 20.298 41.9979 21.042C41.9979 21.798 42.0699 22.476 42.2139 23.076C42.3579 23.676 42.5559 24.186 42.8079 24.606C43.0719 25.026 43.3839 25.35 43.7439 25.578C44.1159 25.794 44.5299 25.902 44.9859 25.902ZM51.9449 27V15.192H54.8609C56.6489 15.192 58.0049 15.696 58.9289 16.704C59.8649 17.712 60.3329 19.158 60.3329 21.042C60.3329 22.926 59.8649 24.39 58.9289 25.434C58.0049 26.478 56.6729 27 54.9329 27H51.9449ZM53.4389 25.776H54.7529C56.1089 25.776 57.1169 25.362 57.7769 24.534C58.4489 23.706 58.7849 22.542 58.7849 21.042C58.7849 19.542 58.4489 18.396 57.7769 17.604C57.1169 16.812 56.1089 16.416 54.7529 16.416H53.4389V25.776ZM66.5899 27.216C66.0139 27.216 65.4799 27.132 64.9879 26.964C64.4959 26.796 64.0699 26.526 63.7099 26.154C63.3619 25.77 63.0859 25.284 62.8819 24.696C62.6899 24.108 62.5939 23.388 62.5939 22.536V15.192H64.1059V22.572C64.1059 23.184 64.1659 23.706 64.2859 24.138C64.4179 24.558 64.5919 24.9 64.8079 25.164C65.0359 25.416 65.2999 25.602 65.5999 25.722C65.8999 25.842 66.2299 25.902 66.5899 25.902C66.9499 25.902 67.2799 25.842 67.5799 25.722C67.8799 25.602 68.1439 25.416 68.3719 25.164C68.5999 24.9 68.7739 24.558 68.8939 24.138C69.0259 23.706 69.0919 23.184 69.0919 22.572V15.192H70.5499V22.536C70.5499 23.388 70.4479 24.108 70.2439 24.696C70.0519 25.284 69.7819 25.77 69.4339 26.154C69.0859 26.526 68.6659 26.796 68.1739 26.964C67.6939 27.132 67.1659 27.216 66.5899 27.216ZM78.2828 27.216C77.5508 27.216 76.8728 27.078 76.2488 26.802C75.6248 26.526 75.0788 26.13 74.6108 25.614C74.1548 25.086 73.7948 24.444 73.5308 23.688C73.2668 22.92 73.1348 22.056 73.1348 21.096C73.1348 20.148 73.2668 19.296 73.5308 18.54C73.7948 17.784 74.1608 17.142 74.6288 16.614C75.0968 16.086 75.6548 15.684 76.3028 15.408C76.9508 15.12 77.6588 14.976 78.4268 14.976C79.1348 14.976 79.7588 15.12 80.2988 15.408C80.8508 15.696 81.3008 16.032 81.6488 16.416L80.8028 17.37C80.4908 17.046 80.1428 16.788 79.7588 16.596C79.3748 16.392 78.9308 16.29 78.4268 16.29C77.8628 16.29 77.3468 16.404 76.8788 16.632C76.4228 16.848 76.0328 17.166 75.7088 17.586C75.3848 17.994 75.1328 18.492 74.9528 19.08C74.7728 19.668 74.6828 20.328 74.6828 21.06C74.6828 21.804 74.7728 22.476 74.9528 23.076C75.1328 23.664 75.3848 24.168 75.7088 24.588C76.0328 25.008 76.4228 25.332 76.8788 25.56C77.3468 25.788 77.8628 25.902 78.4268 25.902C78.9668 25.902 79.4468 25.788 79.8668 25.56C80.2988 25.332 80.7068 25.008 81.0908 24.588L81.9368 25.506C81.4688 26.046 80.9408 26.466 80.3528 26.766C79.7648 27.066 79.0748 27.216 78.2828 27.216ZM87.4018 27V16.452H83.5138V15.192H92.8018V16.452H88.9138V27H87.4018ZM105.64 27V15.192H107.476L109.132 20.232L109.708 22.14H109.78L110.338 20.232L112.012 15.192H113.848V27H112.408V21.096C112.408 20.808 112.414 20.478 112.426 20.106C112.45 19.722 112.474 19.338 112.498 18.954C112.534 18.57 112.564 18.198 112.588 17.838C112.612 17.478 112.636 17.172 112.66 16.92H112.606L111.94 19.224L110.248 23.868H109.168L107.512 19.224L106.828 16.92H106.792C106.816 17.172 106.84 17.478 106.864 17.838C106.9 18.198 106.93 18.57 106.954 18.954C106.978 19.338 106.996 19.722 107.008 20.106C107.032 20.478 107.044 20.808 107.044 21.096V27H105.64ZM119.313 20.394L118.755 22.194H122.283L121.725 20.394C121.521 19.734 121.317 19.08 121.113 18.432C120.921 17.772 120.735 17.1 120.555 16.416H120.483C120.291 17.1 120.099 17.772 119.907 18.432C119.715 19.08 119.517 19.734 119.313 20.394ZM115.713 27L119.691 15.192H121.383L125.361 27H123.777L122.661 23.4H118.377L117.243 27H115.713ZM127.406 27V15.192H129.062L132.842 22.608L133.976 25.056H134.012C133.988 24.468 133.946 23.856 133.886 23.22C133.838 22.572 133.814 21.936 133.814 21.312V15.192H135.254V27H133.598L129.818 19.584L128.684 17.136H128.648C128.672 17.748 128.708 18.366 128.756 18.99C128.816 19.602 128.846 20.214 128.846 20.826V27H127.406ZM140.899 20.394L140.341 22.194H143.869L143.311 20.394C143.107 19.734 142.903 19.08 142.699 18.432C142.507 17.772 142.321 17.1 142.141 16.416H142.069C141.877 17.1 141.685 17.772 141.493 18.432C141.301 19.08 141.103 19.734 140.899 20.394ZM137.299 27L141.277 15.192H142.969L146.947 27H145.363L144.247 23.4H139.963L138.829 27H137.299ZM153.582 27.216C152.838 27.216 152.154 27.078 151.53 26.802C150.906 26.526 150.366 26.13 149.91 25.614C149.454 25.086 149.1 24.444 148.848 23.688C148.596 22.92 148.47 22.056 148.47 21.096C148.47 20.148 148.596 19.296 148.848 18.54C149.112 17.772 149.472 17.13 149.928 16.614C150.396 16.086 150.948 15.684 151.584 15.408C152.232 15.12 152.94 14.976 153.708 14.976C154.104 14.976 154.464 15.018 154.788 15.102C155.112 15.186 155.406 15.3 155.67 15.444C155.946 15.576 156.186 15.726 156.39 15.894C156.606 16.062 156.798 16.236 156.966 16.416L156.12 17.37C155.832 17.058 155.502 16.8 155.13 16.596C154.758 16.392 154.284 16.29 153.708 16.29C153.156 16.29 152.652 16.404 152.196 16.632C151.752 16.848 151.368 17.166 151.044 17.586C150.72 17.994 150.468 18.492 150.288 19.08C150.12 19.668 150.036 20.328 150.036 21.06C150.036 21.804 150.114 22.476 150.27 23.076C150.438 23.664 150.672 24.168 150.972 24.588C151.284 25.008 151.668 25.332 152.124 25.56C152.58 25.788 153.096 25.902 153.672 25.902C154.092 25.902 154.482 25.842 154.842 25.722C155.202 25.59 155.496 25.416 155.724 25.2V22.122H153.366V20.88H157.11V25.848C156.738 26.232 156.246 26.556 155.634 26.82C155.034 27.084 154.35 27.216 153.582 27.216ZM160.361 27V15.192H167.669V16.452H161.873V20.16H166.769V21.438H161.873V25.722H167.849V27H160.361ZM170.398 27V15.192H172.234L173.89 20.232L174.466 22.14H174.538L175.096 20.232L176.77 15.192H178.606V27H177.166V21.096C177.166 20.808 177.172 20.478 177.184 20.106C177.208 19.722 177.232 19.338 177.256 18.954C177.292 18.57 177.322 18.198 177.346 17.838C177.37 17.478 177.394 17.172 177.418 16.92H177.364L176.698 19.224L175.006 23.868H173.926L172.27 19.224L171.586 16.92H171.55C171.574 17.172 171.598 17.478 171.622 17.838C171.658 18.198 171.688 18.57 171.712 18.954C171.736 19.338 171.754 19.722 171.766 20.106C171.79 20.478 171.802 20.808 171.802 21.096V27H170.398ZM181.947 27V15.192H189.255V16.452H183.459V20.16H188.355V21.438H183.459V25.722H189.435V27H181.947ZM192.164 27V15.192H193.82L197.6 22.608L198.734 25.056H198.77C198.746 24.468 198.704 23.856 198.644 23.22C198.596 22.572 198.572 21.936 198.572 21.312V15.192H200.012V27H198.356L194.576 19.584L193.442 17.136H193.406C193.43 17.748 193.466 18.366 193.514 18.99C193.574 19.602 193.604 20.214 193.604 20.826V27H192.164ZM206.124 27V16.452H202.236V15.192H211.524V16.452H207.636V27H206.124Z" fill="#676C79"></path> <rect x="0.5" y="0.5" width="230" height="41" stroke="#A48DEB"></rect> </svg> 