<?xml version="1.0" encoding="UTF-8"?> <svg xmlns="http://www.w3.org/2000/svg" width="166" height="42" viewBox="0 0 166 42" fill="none"> <path d="M19.566 27V15.192H22.482C24.27 15.192 25.626 15.696 26.55 16.704C27.486 17.712 27.954 19.158 27.954 21.042C27.954 22.926 27.486 24.39 26.55 25.434C25.626 26.478 24.294 27 22.554 27H19.566ZM21.06 25.776H22.374C23.73 25.776 24.738 25.362 25.398 24.534C26.07 23.706 26.406 22.542 26.406 21.042C26.406 19.542 26.07 18.396 25.398 17.604C24.738 16.812 23.73 16.416 22.374 16.416H21.06V25.776ZM32.969 20.394L32.411 22.194H35.939L35.381 20.394C35.177 19.734 34.973 19.08 34.769 18.432C34.577 17.772 34.391 17.1 34.211 16.416H34.139C33.947 17.1 33.755 17.772 33.563 18.432C33.371 19.08 33.173 19.734 32.969 20.394ZM29.369 27L33.347 15.192H35.039L39.017 27H37.433L36.317 23.4H32.033L30.899 27H29.369ZM44.2299 27V16.452H40.3419V15.192H49.6299V16.452H45.7419V27H44.2299ZM54.5549 20.394L53.9969 22.194H57.5249L56.9669 20.394C56.7629 19.734 56.5589 19.08 56.3549 18.432C56.1629 17.772 55.9769 17.1 55.7969 16.416H55.7249C55.5329 17.1 55.3409 17.772 55.1489 18.432C54.9569 19.08 54.7589 19.734 54.5549 20.394ZM50.9549 27L54.9329 15.192H56.6249L60.6029 27H59.0189L57.9029 23.4H53.6189L52.4849 27H50.9549ZM77.4548 27.216C76.5908 27.216 75.7928 27.06 75.0608 26.748C74.3408 26.436 73.7108 26.01 73.1708 25.47L74.0708 24.426C74.5148 24.87 75.0308 25.23 75.6188 25.506C76.2068 25.77 76.8428 25.902 77.5268 25.902C78.3428 25.902 78.9728 25.728 79.4168 25.38C79.8728 25.032 80.1008 24.582 80.1008 24.03C80.1008 23.718 80.0468 23.454 79.9388 23.238C79.8308 23.022 79.6808 22.836 79.4888 22.68C79.2968 22.524 79.0688 22.386 78.8048 22.266C78.5528 22.146 78.2768 22.02 77.9768 21.888L76.2848 21.15C75.9848 21.03 75.6848 20.886 75.3848 20.718C75.0848 20.55 74.8088 20.346 74.5568 20.106C74.3168 19.866 74.1188 19.584 73.9628 19.26C73.8068 18.924 73.7288 18.54 73.7288 18.108C73.7288 17.664 73.8248 17.25 74.0168 16.866C74.2088 16.482 74.4728 16.152 74.8088 15.876C75.1568 15.588 75.5648 15.366 76.0328 15.21C76.5128 15.054 77.0348 14.976 77.5988 14.976C78.3428 14.976 79.0268 15.114 79.6508 15.39C80.2748 15.654 80.8028 16.002 81.2348 16.434L80.4428 17.406C80.0588 17.058 79.6328 16.788 79.1648 16.596C78.6968 16.392 78.1568 16.29 77.5448 16.29C76.8608 16.29 76.3088 16.446 75.8888 16.758C75.4688 17.058 75.2588 17.478 75.2588 18.018C75.2588 18.306 75.3188 18.552 75.4388 18.756C75.5708 18.948 75.7328 19.122 75.9248 19.278C76.1288 19.422 76.3568 19.548 76.6088 19.656C76.8608 19.764 77.1128 19.872 77.3648 19.98L79.0208 20.7C79.3808 20.844 79.7168 21.012 80.0288 21.204C80.3528 21.384 80.6288 21.6 80.8568 21.852C81.0968 22.092 81.2828 22.38 81.4148 22.716C81.5588 23.04 81.6308 23.418 81.6308 23.85C81.6308 24.318 81.5348 24.756 81.3428 25.164C81.1508 25.572 80.8748 25.932 80.5148 26.244C80.1548 26.544 79.7168 26.784 79.2008 26.964C78.6848 27.132 78.1028 27.216 77.4548 27.216ZM89.0758 27.216C88.3438 27.216 87.6658 27.078 87.0418 26.802C86.4178 26.526 85.8718 26.13 85.4038 25.614C84.9478 25.086 84.5878 24.444 84.3238 23.688C84.0598 22.92 83.9278 22.056 83.9278 21.096C83.9278 20.148 84.0598 19.296 84.3238 18.54C84.5878 17.784 84.9538 17.142 85.4218 16.614C85.8898 16.086 86.4478 15.684 87.0958 15.408C87.7438 15.12 88.4518 14.976 89.2198 14.976C89.9278 14.976 90.5518 15.12 91.0918 15.408C91.6438 15.696 92.0938 16.032 92.4418 16.416L91.5958 17.37C91.2838 17.046 90.9358 16.788 90.5518 16.596C90.1678 16.392 89.7238 16.29 89.2198 16.29C88.6558 16.29 88.1398 16.404 87.6718 16.632C87.2158 16.848 86.8258 17.166 86.5018 17.586C86.1778 17.994 85.9258 18.492 85.7458 19.08C85.5658 19.668 85.4758 20.328 85.4758 21.06C85.4758 21.804 85.5658 22.476 85.7458 23.076C85.9258 23.664 86.1778 24.168 86.5018 24.588C86.8258 25.008 87.2158 25.332 87.6718 25.56C88.1398 25.788 88.6558 25.902 89.2198 25.902C89.7598 25.902 90.2398 25.788 90.6598 25.56C91.0918 25.332 91.4998 25.008 91.8838 24.588L92.7298 25.506C92.2618 26.046 91.7338 26.466 91.1458 26.766C90.5578 27.066 89.8678 27.216 89.0758 27.216ZM95.2608 27V25.722H98.1948V16.452H95.2608V15.192H102.641V16.452H99.7068V25.722H102.641V27H95.2608ZM106.396 27V15.192H113.704V16.452H107.908V20.16H112.804V21.438H107.908V25.722H113.884V27H106.396ZM116.613 27V15.192H118.269L122.049 22.608L123.183 25.056H123.219C123.195 24.468 123.153 23.856 123.093 23.22C123.045 22.572 123.021 21.936 123.021 21.312V15.192H124.461V27H122.805L119.025 19.584L117.891 17.136H117.855C117.879 17.748 117.915 18.366 117.963 18.99C118.023 19.602 118.053 20.214 118.053 20.826V27H116.613ZM132.248 27.216C131.516 27.216 130.838 27.078 130.214 26.802C129.59 26.526 129.044 26.13 128.576 25.614C128.12 25.086 127.76 24.444 127.496 23.688C127.232 22.92 127.1 22.056 127.1 21.096C127.1 20.148 127.232 19.296 127.496 18.54C127.76 17.784 128.126 17.142 128.594 16.614C129.062 16.086 129.62 15.684 130.268 15.408C130.916 15.12 131.624 14.976 132.392 14.976C133.1 14.976 133.724 15.12 134.264 15.408C134.816 15.696 135.266 16.032 135.614 16.416L134.768 17.37C134.456 17.046 134.108 16.788 133.724 16.596C133.34 16.392 132.896 16.29 132.392 16.29C131.828 16.29 131.312 16.404 130.844 16.632C130.388 16.848 129.998 17.166 129.674 17.586C129.35 17.994 129.098 18.492 128.918 19.08C128.738 19.668 128.648 20.328 128.648 21.06C128.648 21.804 128.738 22.476 128.918 23.076C129.098 23.664 129.35 24.168 129.674 24.588C129.998 25.008 130.388 25.332 130.844 25.56C131.312 25.788 131.828 25.902 132.392 25.902C132.932 25.902 133.412 25.788 133.832 25.56C134.264 25.332 134.672 25.008 135.056 24.588L135.902 25.506C135.434 26.046 134.906 26.466 134.318 26.766C133.73 27.066 133.04 27.216 132.248 27.216ZM138.775 27V15.192H146.083V16.452H140.287V20.16H145.183V21.438H140.287V25.722H146.263V27H138.775Z" fill="#676C79"></path> <rect x="0.5" y="0.5" width="165" height="41" stroke="#8CA6EA"></rect> </svg> 