<?xml version="1.0" encoding="UTF-8"?> <svg xmlns="http://www.w3.org/2000/svg" width="200" height="40" viewBox="0 0 200 40" fill="none"> <path d="M19.152 26V15.504H20.784L22.256 19.984L22.768 21.68H22.832L23.328 19.984L24.816 15.504H26.448V26H25.168V20.752C25.168 20.496 25.1733 20.2027 25.184 19.872C25.2053 19.5307 25.2267 19.1893 25.248 18.848C25.28 18.5067 25.3067 18.176 25.328 17.856C25.3493 17.536 25.3707 17.264 25.392 17.04H25.344L24.752 19.088L23.248 23.216H22.288L20.816 19.088L20.208 17.04H20.176C20.1973 17.264 20.2187 17.536 20.24 17.856C20.272 18.176 20.2987 18.5067 20.32 18.848C20.3413 19.1893 20.3573 19.5307 20.368 19.872C20.3893 20.2027 20.4 20.496 20.4 20.752V26H19.152ZM31.3058 20.128L30.8098 21.728H33.9458L33.4498 20.128C33.2684 19.5413 33.0871 18.96 32.9058 18.384C32.7351 17.7973 32.5698 17.2 32.4098 16.592H32.3458C32.1751 17.2 32.0044 17.7973 31.8338 18.384C31.6631 18.96 31.4871 19.5413 31.3058 20.128ZM28.1058 26L31.6418 15.504H33.1458L36.6818 26H35.2738L34.2818 22.8H30.4738L29.4658 26H28.1058ZM42.8035 26.192C42.1528 26.192 41.5502 26.0693 40.9955 25.824C40.4408 25.5787 39.9555 25.2267 39.5395 24.768C39.1342 24.2987 38.8142 23.728 38.5795 23.056C38.3448 22.3733 38.2275 21.6053 38.2275 20.752C38.2275 19.9093 38.3448 19.152 38.5795 18.48C38.8142 17.808 39.1395 17.2373 39.5555 16.768C39.9715 16.2987 40.4675 15.9413 41.0435 15.696C41.6195 15.44 42.2488 15.312 42.9315 15.312C43.5608 15.312 44.1155 15.44 44.5955 15.696C45.0862 15.952 45.4862 16.2507 45.7955 16.592L45.0435 17.44C44.7662 17.152 44.4568 16.9227 44.1155 16.752C43.7742 16.5707 43.3795 16.48 42.9315 16.48C42.4302 16.48 41.9715 16.5813 41.5555 16.784C41.1502 16.976 40.8035 17.2587 40.5155 17.632C40.2275 17.9947 40.0035 18.4373 39.8435 18.96C39.6835 19.4827 39.6035 20.0693 39.6035 20.72C39.6035 21.3813 39.6835 21.9787 39.8435 22.512C40.0035 23.0347 40.2275 23.4827 40.5155 23.856C40.8035 24.2293 41.1502 24.5173 41.5555 24.72C41.9715 24.9227 42.4302 25.024 42.9315 25.024C43.4115 25.024 43.8382 24.9227 44.2115 24.72C44.5955 24.5173 44.9582 24.2293 45.2995 23.856L46.0515 24.672C45.6355 25.152 45.1662 25.5253 44.6435 25.792C44.1208 26.0587 43.5075 26.192 42.8035 26.192ZM48.0453 26V15.504H49.3893V19.904H53.7733V15.504H55.1173V26H53.7733V21.056H49.3893V26H48.0453ZM57.895 26V24.864H60.503V16.624H57.895V15.504L64.455 15.504V16.624H61.847V24.864H64.455V26H57.895ZM67.2808 26V15.504H68.7528L72.1128 22.096L73.1208 24.272H73.1528C73.1314 23.7493 73.0941 23.2053 73.0408 22.64C72.9981 22.064 72.9768 21.4987 72.9768 20.944V15.504H74.2568V26H72.7848L69.4248 19.408L68.4168 17.232H68.3848C68.4061 17.776 68.4381 18.3253 68.4808 18.88C68.5341 19.424 68.5608 19.968 68.5608 20.512V26H67.2808ZM77.3865 26V15.504H83.8825V16.624H78.7305V19.92H83.0825V21.056H78.7305V24.864H84.0425V26H77.3865ZM96.894 26V15.504H98.206V24.864H103.406V26H96.894ZM106.168 26V15.504H112.664V16.624H107.512V19.92H111.864V21.056H107.512V24.864H112.824V26H106.168ZM117.65 20.128L117.154 21.728H120.29L119.794 20.128C119.612 19.5413 119.431 18.96 119.25 18.384C119.079 17.7973 118.914 17.2 118.754 16.592H118.69C118.519 17.2 118.348 17.7973 118.178 18.384C118.007 18.96 117.831 19.5413 117.65 20.128ZM114.45 26L117.986 15.504H119.49L123.026 26H121.618L120.626 22.8H116.818L115.81 26H114.45ZM125.131 26V15.504H128.395C128.929 15.504 129.419 15.5573 129.867 15.664C130.315 15.76 130.699 15.9253 131.019 16.16C131.35 16.3947 131.606 16.6987 131.787 17.072C131.969 17.4453 132.059 17.904 132.059 18.448C132.059 19.2693 131.846 19.9253 131.419 20.416C130.993 20.9067 130.422 21.2427 129.707 21.424L132.379 26H130.859L128.331 21.568H126.459V26H125.131ZM126.459 20.48H128.203C129.025 20.48 129.649 20.3147 130.075 19.984C130.513 19.6427 130.731 19.1307 130.731 18.448C130.731 17.7547 130.513 17.2693 130.075 16.992C129.649 16.7147 129.025 16.576 128.203 16.576H126.459V20.48ZM134.437 26V15.504H135.909L139.269 22.096L140.277 24.272H140.309C140.288 23.7493 140.25 23.2053 140.197 22.64C140.154 22.064 140.133 21.4987 140.133 20.944V15.504H141.413V26H139.941L136.581 19.408L135.573 17.232H135.541C135.562 17.776 135.594 18.3253 135.637 18.88C135.69 19.424 135.717 19.968 135.717 20.512V26H134.437ZM144.239 26V24.864H146.847V16.624H144.239V15.504H150.799V16.624H148.191V24.864H150.799V26H144.239ZM153.625 26V15.504H155.097L158.457 22.096L159.465 24.272H159.497C159.475 23.7493 159.438 23.2053 159.385 22.64C159.342 22.064 159.321 21.4987 159.321 20.944V15.504H160.601V26H159.129L155.769 19.408L154.761 17.232H154.729C154.75 17.776 154.782 18.3253 154.825 18.88C154.878 19.424 154.905 19.968 154.905 20.512V26H153.625ZM167.298 26.192C166.637 26.192 166.029 26.0693 165.474 25.824C164.92 25.5787 164.44 25.2267 164.034 24.768C163.629 24.2987 163.314 23.728 163.09 23.056C162.866 22.3733 162.754 21.6053 162.754 20.752C162.754 19.9093 162.866 19.152 163.09 18.48C163.325 17.7973 163.645 17.2267 164.05 16.768C164.466 16.2987 164.957 15.9413 165.522 15.696C166.098 15.44 166.728 15.312 167.41 15.312C167.762 15.312 168.082 15.3493 168.37 15.424C168.658 15.4987 168.92 15.6 169.154 15.728C169.4 15.8453 169.613 15.9787 169.794 16.128C169.986 16.2773 170.157 16.432 170.306 16.592L169.554 17.44C169.298 17.1627 169.005 16.9333 168.674 16.752C168.344 16.5707 167.922 16.48 167.41 16.48C166.92 16.48 166.472 16.5813 166.066 16.784C165.672 16.976 165.33 17.2587 165.042 17.632C164.754 17.9947 164.53 18.4373 164.37 18.96C164.221 19.4827 164.146 20.0693 164.146 20.72C164.146 21.3813 164.216 21.9787 164.354 22.512C164.504 23.0347 164.712 23.4827 164.978 23.856C165.256 24.2293 165.597 24.5173 166.002 24.72C166.408 24.9227 166.866 25.024 167.378 25.024C167.752 25.024 168.098 24.9707 168.418 24.864C168.738 24.7467 169 24.592 169.202 24.4V21.664H167.106V20.56H170.434V24.976C170.104 25.3173 169.666 25.6053 169.122 25.84C168.589 26.0747 167.981 26.192 167.298 26.192Z" fill="#676C79"></path> <rect x="0.5" y="0.5" width="199" height="39" stroke="#A48DEB"></rect> </svg> 