<?xml version="1.0" encoding="UTF-8"?> <svg xmlns="http://www.w3.org/2000/svg" width="142" height="40" viewBox="0 0 142 40" fill="none"> <path d="M19.824 26V15.504H26.32V16.624H21.168V19.92H25.52V21.056H21.168V24.864H26.48V26H19.824ZM28.9538 21.216V20.224H35.8338V21.216H28.9538ZM42.8035 26.192C42.1528 26.192 41.5502 26.0693 40.9955 25.824C40.4408 25.5787 39.9555 25.2267 39.5395 24.768C39.1342 24.2987 38.8142 23.728 38.5795 23.056C38.3448 22.3733 38.2275 21.6053 38.2275 20.752C38.2275 19.9093 38.3448 19.152 38.5795 18.48C38.8142 17.808 39.1395 17.2373 39.5555 16.768C39.9715 16.2987 40.4675 15.9413 41.0435 15.696C41.6195 15.44 42.2488 15.312 42.9315 15.312C43.5608 15.312 44.1155 15.44 44.5955 15.696C45.0862 15.952 45.4862 16.2507 45.7955 16.592L45.0435 17.44C44.7662 17.152 44.4568 16.9227 44.1155 16.752C43.7742 16.5707 43.3795 16.48 42.9315 16.48C42.4302 16.48 41.9715 16.5813 41.5555 16.784C41.1502 16.976 40.8035 17.2587 40.5155 17.632C40.2275 17.9947 40.0035 18.4373 39.8435 18.96C39.6835 19.4827 39.6035 20.0693 39.6035 20.72C39.6035 21.3813 39.6835 21.9787 39.8435 22.512C40.0035 23.0347 40.2275 23.4827 40.5155 23.856C40.8035 24.2293 41.1502 24.5173 41.5555 24.72C41.9715 24.9227 42.4302 25.024 42.9315 25.024C43.4115 25.024 43.8382 24.9227 44.2115 24.72C44.5955 24.5173 44.9582 24.2293 45.2995 23.856L46.0515 24.672C45.6355 25.152 45.1662 25.5253 44.6435 25.792C44.1208 26.0587 43.5075 26.192 42.8035 26.192ZM51.5813 26.192C50.9839 26.192 50.4399 26.0693 49.9493 25.824C49.4586 25.568 49.0319 25.2053 48.6693 24.736C48.3173 24.2667 48.0399 23.696 47.8372 23.024C47.6453 22.3413 47.5493 21.568 47.5493 20.704C47.5493 19.8613 47.6453 19.104 47.8372 18.432C48.0399 17.76 48.3173 17.1947 48.6693 16.736C49.0319 16.2773 49.4586 15.9253 49.9493 15.68C50.4399 15.4347 50.9839 15.312 51.5813 15.312C52.1679 15.312 52.7066 15.4347 53.1973 15.68C53.6986 15.9253 54.1253 16.2773 54.4773 16.736C54.8399 17.1947 55.1173 17.76 55.3093 18.432C55.5119 19.104 55.6133 19.8613 55.6133 20.704C55.6133 21.568 55.5119 22.3413 55.3093 23.024C55.1173 23.696 54.8399 24.2667 54.4773 24.736C54.1253 25.2053 53.6986 25.568 53.1973 25.824C52.7066 26.0693 52.1679 26.192 51.5813 26.192ZM51.5813 25.024C51.9759 25.024 52.3386 24.928 52.6693 24.736C52.9999 24.5333 53.2773 24.2453 53.5013 23.872C53.7359 23.4987 53.9173 23.0453 54.0453 22.512C54.1733 21.9787 54.2373 21.376 54.2373 20.704C54.2373 20.0427 54.1733 19.4507 54.0453 18.928C53.9173 18.4053 53.7359 17.9627 53.5013 17.6C53.2773 17.2373 52.9999 16.96 52.6693 16.768C52.3386 16.576 51.9759 16.48 51.5813 16.48C51.1759 16.48 50.8079 16.576 50.4773 16.768C50.1573 16.96 49.8799 17.2373 49.6453 17.6C49.4213 17.9627 49.2453 18.4053 49.1173 18.928C48.9893 19.4507 48.9253 20.0427 48.9253 20.704C48.9253 21.376 48.9893 21.9787 49.1173 22.512C49.2453 23.0453 49.4213 23.4987 49.6453 23.872C49.8799 24.2453 50.1573 24.5333 50.4773 24.736C50.8079 24.928 51.1759 25.024 51.5813 25.024ZM57.527 26V15.504H59.159L60.631 19.984L61.143 21.68H61.207L61.703 19.984L63.191 15.504H64.823V26H63.543V20.752C63.543 20.496 63.5483 20.2027 63.559 19.872C63.5803 19.5307 63.6017 19.1893 63.623 18.848C63.655 18.5067 63.6817 18.176 63.703 17.856C63.7243 17.536 63.7457 17.264 63.767 17.04H63.719L63.127 19.088L61.623 23.216H60.663L59.191 19.088L58.583 17.04H58.551C58.5723 17.264 58.5937 17.536 58.615 17.856C58.647 18.176 58.6737 18.5067 58.695 18.848C58.7163 19.1893 58.7323 19.5307 58.743 19.872C58.7643 20.2027 58.775 20.496 58.775 20.752V26H57.527ZM67.1208 26V15.504H68.7528L70.2248 19.984L70.7368 21.68H70.8008L71.2968 19.984L72.7848 15.504H74.4167V26H73.1368V20.752C73.1368 20.496 73.1421 20.2027 73.1528 19.872C73.1741 19.5307 73.1954 19.1893 73.2168 18.848C73.2488 18.5067 73.2754 18.176 73.2968 17.856C73.3181 17.536 73.3394 17.264 73.3608 17.04H73.3128L72.7208 19.088L71.2168 23.216H70.2568L68.7848 19.088L68.1768 17.04H68.1448C68.1661 17.264 68.1874 17.536 68.2088 17.856C68.2408 18.176 68.2674 18.5067 68.2888 18.848C68.3101 19.1893 68.3261 19.5307 68.3368 19.872C68.3581 20.2027 68.3688 20.496 68.3688 20.752V26H67.1208ZM77.3865 26V15.504H83.8825V16.624H78.7305V19.92H83.0825V21.056H78.7305V24.864H84.0425V26H77.3865ZM86.7563 26V15.504H90.0203C90.5536 15.504 91.0443 15.5573 91.4923 15.664C91.9403 15.76 92.3243 15.9253 92.6443 16.16C92.9749 16.3947 93.2309 16.6987 93.4123 17.072C93.5936 17.4453 93.6843 17.904 93.6843 18.448C93.6843 19.2693 93.4709 19.9253 93.0443 20.416C92.6176 20.9067 92.0469 21.2427 91.3323 21.424L94.0043 26H92.4843L89.9563 21.568H88.0843V26H86.7563ZM88.0843 20.48H89.8283C90.6496 20.48 91.2736 20.3147 91.7003 19.984C92.1376 19.6427 92.3563 19.1307 92.3563 18.448C92.3563 17.7547 92.1376 17.2693 91.7003 16.992C91.2736 16.7147 90.6496 16.576 89.8283 16.576H88.0843V20.48ZM100.366 26.192C99.7153 26.192 99.1127 26.0693 98.558 25.824C98.0033 25.5787 97.518 25.2267 97.102 24.768C96.6967 24.2987 96.3767 23.728 96.142 23.056C95.9073 22.3733 95.79 21.6053 95.79 20.752C95.79 19.9093 95.9073 19.152 96.142 18.48C96.3767 17.808 96.702 17.2373 97.118 16.768C97.534 16.2987 98.03 15.9413 98.606 15.696C99.182 15.44 99.8113 15.312 100.494 15.312C101.123 15.312 101.678 15.44 102.158 15.696C102.649 15.952 103.049 16.2507 103.358 16.592L102.606 17.44C102.329 17.152 102.019 16.9227 101.678 16.752C101.337 16.5707 100.942 16.48 100.494 16.48C99.9927 16.48 99.534 16.5813 99.118 16.784C98.7127 16.976 98.366 17.2587 98.078 17.632C97.79 17.9947 97.566 18.4373 97.406 18.96C97.246 19.4827 97.166 20.0693 97.166 20.72C97.166 21.3813 97.246 21.9787 97.406 22.512C97.566 23.0347 97.79 23.4827 98.078 23.856C98.366 24.2293 98.7127 24.5173 99.118 24.72C99.534 24.9227 99.9927 25.024 100.494 25.024C100.974 25.024 101.401 24.9227 101.774 24.72C102.158 24.5173 102.521 24.2293 102.862 23.856L103.614 24.672C103.198 25.152 102.729 25.5253 102.206 25.792C101.683 26.0587 101.07 26.192 100.366 26.192ZM106.168 26V15.504H112.664V16.624H107.512V19.92H111.864V21.056H107.512V24.864H112.824V26H106.168Z" fill="#676C79"></path> <rect x="0.5" y="0.5" width="141" height="39" stroke="#D4D9E8"></rect> </svg> 