<?xml version="1.0" encoding="UTF-8"?> <svg xmlns="http://www.w3.org/2000/svg" width="16" height="16" viewBox="0 0 16 16" fill="none"> <path d="M1.92299 3.61171C2.98503 3.61171 3.84599 2.8032 3.84599 1.80586C3.84599 0.808509 2.98503 0 1.92299 0C0.860953 0 0 0.808509 0 1.80586C0 2.8032 0.860953 3.61171 1.92299 3.61171Z" fill="#676C79"></path> <path d="M5.66171 4.9803V14.9992H8.97422V10.0446C8.97422 8.73728 9.23612 7.4712 10.9622 7.4712C12.6646 7.4712 12.6857 8.9659 12.6857 10.1272V15H16V9.50567C16 6.8068 15.3813 4.7327 12.0222 4.7327C10.4094 4.7327 9.32841 5.56383 8.88633 6.35038H8.84151V4.9803H5.66171ZM0.263621 4.9803H3.5814V14.9992H0.263621V4.9803Z" fill="#676C79"></path> </svg> 