<?xml version="1.0" encoding="UTF-8"?> <svg xmlns="http://www.w3.org/2000/svg" width="177" height="42" viewBox="0 0 177 42" fill="none"> <path d="M19.8 27V15.192H23.472C24.072 15.192 24.624 15.252 25.128 15.372C25.632 15.48 26.064 15.666 26.424 15.93C26.796 16.194 27.084 16.536 27.288 16.956C27.492 17.376 27.594 17.892 27.594 18.504C27.594 19.428 27.354 20.166 26.874 20.718C26.394 21.27 25.752 21.648 24.948 21.852L27.954 27H26.244L23.4 22.014H21.294V27H19.8ZM21.294 20.79H23.256C24.18 20.79 24.882 20.604 25.362 20.232C25.854 19.848 26.1 19.272 26.1 18.504C26.1 17.724 25.854 17.178 25.362 16.866C24.882 16.554 24.18 16.398 23.256 16.398H21.294V20.79ZM34.211 27.216C33.635 27.216 33.101 27.132 32.609 26.964C32.117 26.796 31.691 26.526 31.331 26.154C30.983 25.77 30.707 25.284 30.503 24.696C30.311 24.108 30.215 23.388 30.215 22.536V15.192H31.727V22.572C31.727 23.184 31.787 23.706 31.907 24.138C32.039 24.558 32.213 24.9 32.429 25.164C32.657 25.416 32.921 25.602 33.221 25.722C33.521 25.842 33.851 25.902 34.211 25.902C34.571 25.902 34.901 25.842 35.201 25.722C35.501 25.602 35.765 25.416 35.993 25.164C36.221 24.9 36.395 24.558 36.515 24.138C36.647 23.706 36.713 23.184 36.713 22.572V15.192H38.171V22.536C38.171 23.388 38.069 24.108 37.865 24.696C37.673 25.284 37.403 25.77 37.055 26.154C36.707 26.526 36.287 26.796 35.795 26.964C35.315 27.132 34.787 27.216 34.211 27.216ZM41.3679 27V15.192H44.7159C45.3159 15.192 45.8619 15.246 46.3539 15.354C46.8579 15.462 47.2839 15.63 47.6319 15.858C47.9919 16.086 48.2679 16.386 48.4599 16.758C48.6639 17.118 48.7659 17.556 48.7659 18.072C48.7659 18.66 48.5979 19.194 48.2619 19.674C47.9259 20.142 47.4039 20.466 46.6959 20.646V20.718C47.5599 20.85 48.2319 21.15 48.7119 21.618C49.1919 22.086 49.4319 22.728 49.4319 23.544C49.4319 24.12 49.3239 24.624 49.1079 25.056C48.8919 25.488 48.5859 25.848 48.1899 26.136C47.8059 26.424 47.3379 26.64 46.7859 26.784C46.2459 26.928 45.6459 27 44.9859 27H41.3679ZM42.8619 20.16H44.4639C45.4719 20.16 46.1919 19.998 46.6239 19.674C47.0679 19.35 47.2899 18.858 47.2899 18.198C47.2899 17.55 47.0559 17.1 46.5879 16.848C46.1319 16.584 45.4479 16.452 44.5359 16.452H42.8619V20.16ZM42.8619 25.74H44.7699C45.7899 25.74 46.5759 25.566 47.1279 25.218C47.6799 24.858 47.9559 24.276 47.9559 23.472C47.9559 22.74 47.6859 22.218 47.1459 21.906C46.6059 21.582 45.8139 21.42 44.7699 21.42H42.8619V25.74ZM55.0229 27V22.788L51.0629 15.192H52.6469L54.4289 18.702C54.6569 19.158 54.8789 19.614 55.0949 20.07C55.3109 20.514 55.5389 20.976 55.7789 21.456H55.8509C56.0909 20.976 56.3249 20.508 56.5529 20.052C56.7809 19.596 57.0089 19.14 57.2369 18.684L58.9469 15.192H60.4949L56.5349 22.788V27H55.0229ZM77.3649 27.216C76.6929 27.216 76.0809 27.078 75.5289 26.802C74.9769 26.514 74.4969 26.106 74.0889 25.578C73.6929 25.05 73.3809 24.408 73.1529 23.652C72.9369 22.884 72.8289 22.014 72.8289 21.042C72.8289 20.094 72.9369 19.242 73.1529 18.486C73.3809 17.73 73.6929 17.094 74.0889 16.578C74.4969 16.062 74.9769 15.666 75.5289 15.39C76.0809 15.114 76.6929 14.976 77.3649 14.976C78.0249 14.976 78.6309 15.114 79.1829 15.39C79.7469 15.666 80.2269 16.062 80.6229 16.578C81.0309 17.094 81.3429 17.73 81.5589 18.486C81.7869 19.242 81.9009 20.094 81.9009 21.042C81.9009 22.014 81.7869 22.884 81.5589 23.652C81.3429 24.408 81.0309 25.05 80.6229 25.578C80.2269 26.106 79.7469 26.514 79.1829 26.802C78.6309 27.078 78.0249 27.216 77.3649 27.216ZM77.3649 25.902C77.8089 25.902 78.2169 25.794 78.5889 25.578C78.9609 25.35 79.2729 25.026 79.5249 24.606C79.7889 24.186 79.9929 23.676 80.1369 23.076C80.2809 22.476 80.3529 21.798 80.3529 21.042C80.3529 20.298 80.2809 19.632 80.1369 19.044C79.9929 18.456 79.7889 17.958 79.5249 17.55C79.2729 17.142 78.9609 16.83 78.5889 16.614C78.2169 16.398 77.8089 16.29 77.3649 16.29C76.9089 16.29 76.4949 16.398 76.1229 16.614C75.7629 16.83 75.4509 17.142 75.1869 17.55C74.9349 17.958 74.7369 18.456 74.5929 19.044C74.4489 19.632 74.3769 20.298 74.3769 21.042C74.3769 21.798 74.4489 22.476 74.5929 23.076C74.7369 23.676 74.9349 24.186 75.1869 24.606C75.4509 25.026 75.7629 25.35 76.1229 25.578C76.4949 25.794 76.9089 25.902 77.3649 25.902ZM84.2338 27V15.192H85.8898L89.6698 22.608L90.8038 25.056H90.8398C90.8158 24.468 90.7738 23.856 90.7138 23.22C90.6658 22.572 90.6418 21.936 90.6418 21.312V15.192H92.0818V27H90.4258L86.6458 19.584L85.5118 17.136H85.4758C85.4998 17.748 85.5358 18.366 85.5838 18.99C85.6438 19.602 85.6738 20.214 85.6738 20.826V27H84.2338ZM106.144 27V15.192H109.816C110.416 15.192 110.968 15.252 111.472 15.372C111.976 15.48 112.408 15.666 112.768 15.93C113.14 16.194 113.428 16.536 113.632 16.956C113.836 17.376 113.938 17.892 113.938 18.504C113.938 19.428 113.698 20.166 113.218 20.718C112.738 21.27 112.096 21.648 111.292 21.852L114.298 27L112.588 27L109.744 22.014H107.638V27H106.144ZM107.638 20.79H109.6C110.524 20.79 111.226 20.604 111.706 20.232C112.198 19.848 112.444 19.272 112.444 18.504C112.444 17.724 112.198 17.178 111.706 16.866C111.226 16.554 110.524 16.398 109.6 16.398H107.638V20.79ZM119.313 20.394L118.755 22.194H122.283L121.725 20.394C121.521 19.734 121.317 19.08 121.113 18.432C120.921 17.772 120.735 17.1 120.555 16.416H120.483C120.291 17.1 120.099 17.772 119.907 18.432C119.715 19.08 119.517 19.734 119.313 20.394ZM115.713 27L119.691 15.192H121.383L125.361 27H123.777L122.661 23.4H118.377L117.243 27H115.713ZM127.64 27V25.722H130.574V16.452H127.64V15.192H135.02V16.452H132.086V25.722H135.02V27H127.64ZM139.135 27V15.192H140.611V25.722H146.461V27H139.135ZM153.006 27.216C152.142 27.216 151.344 27.06 150.612 26.748C149.892 26.436 149.262 26.01 148.722 25.47L149.622 24.426C150.066 24.87 150.582 25.23 151.17 25.506C151.758 25.77 152.394 25.902 153.078 25.902C153.894 25.902 154.524 25.728 154.968 25.38C155.424 25.032 155.652 24.582 155.652 24.03C155.652 23.718 155.598 23.454 155.49 23.238C155.382 23.022 155.232 22.836 155.04 22.68C154.848 22.524 154.62 22.386 154.356 22.266C154.104 22.146 153.828 22.02 153.528 21.888L151.836 21.15C151.536 21.03 151.236 20.886 150.936 20.718C150.636 20.55 150.36 20.346 150.108 20.106C149.868 19.866 149.67 19.584 149.514 19.26C149.358 18.924 149.28 18.54 149.28 18.108C149.28 17.664 149.376 17.25 149.568 16.866C149.76 16.482 150.024 16.152 150.36 15.876C150.708 15.588 151.116 15.366 151.584 15.21C152.064 15.054 152.586 14.976 153.15 14.976C153.894 14.976 154.578 15.114 155.202 15.39C155.826 15.654 156.354 16.002 156.786 16.434L155.994 17.406C155.61 17.058 155.184 16.788 154.716 16.596C154.248 16.392 153.708 16.29 153.096 16.29C152.412 16.29 151.86 16.446 151.44 16.758C151.02 17.058 150.81 17.478 150.81 18.018C150.81 18.306 150.87 18.552 150.99 18.756C151.122 18.948 151.284 19.122 151.476 19.278C151.68 19.422 151.908 19.548 152.16 19.656C152.412 19.764 152.664 19.872 152.916 19.98L154.572 20.7C154.932 20.844 155.268 21.012 155.58 21.204C155.904 21.384 156.18 21.6 156.408 21.852C156.648 22.092 156.834 22.38 156.966 22.716C157.11 23.04 157.182 23.418 157.182 23.85C157.182 24.318 157.086 24.756 156.894 25.164C156.702 25.572 156.426 25.932 156.066 26.244C155.706 26.544 155.268 26.784 154.752 26.964C154.236 27.132 153.654 27.216 153.006 27.216Z" fill="#676C79"></path> <rect x="0.5" y="0.5" width="176" height="41" stroke="#8CA6EA"></rect> </svg> 