<?xml version="1.0" encoding="UTF-8"?> <svg xmlns="http://www.w3.org/2000/svg" width="94" height="40" viewBox="0 0 94 40" fill="none"> <path d="M22.128 26V16.624H18.672V15.504H26.928V16.624H23.472V26H22.128ZM29.1938 26V15.504H32.4578C32.9911 15.504 33.4818 15.5573 33.9298 15.664C34.3778 15.76 34.7618 15.9253 35.0818 16.16C35.4124 16.3947 35.6684 16.6987 35.8498 17.072C36.0311 17.4453 36.1218 17.904 36.1218 18.448C36.1218 19.2693 35.9084 19.9253 35.4818 20.416C35.0551 20.9067 34.4844 21.2427 33.7698 21.424L36.4418 26H34.9218L32.3938 21.568H30.5218V26H29.1938ZM30.5218 20.48H32.2658C33.0871 20.48 33.7111 20.3147 34.1378 19.984C34.5751 19.6427 34.7938 19.1307 34.7938 18.448C34.7938 17.7547 34.5751 17.2693 34.1378 16.992C33.7111 16.7147 33.0871 16.576 32.2658 16.576H30.5218V20.48ZM40.8995 20.128L40.4035 21.728H43.5395L43.0435 20.128C42.8622 19.5413 42.6808 18.96 42.4995 18.384C42.3288 17.7973 42.1635 17.2 42.0035 16.592H41.9395C41.7688 17.2 41.5982 17.7973 41.4275 18.384C41.2568 18.96 41.0808 19.5413 40.8995 20.128ZM37.6995 26L41.2355 15.504H42.7395L46.2755 26H44.8675L43.8755 22.8H40.0675L39.0595 26H37.6995ZM50.8133 26L47.4693 15.504H48.8773L50.5733 21.168C50.7546 21.7973 50.9199 22.3787 51.0693 22.912C51.2186 23.4453 51.3893 24.0213 51.5813 24.64H51.6453C51.7413 24.3307 51.8319 24.0373 51.9173 23.76C52.0026 23.472 52.0826 23.1893 52.1573 22.912C52.2426 22.6347 52.3226 22.352 52.3973 22.064C52.4826 21.776 52.5679 21.4773 52.6533 21.168L54.3333 15.504H55.6933L52.3653 26H50.8133ZM58.199 26V15.504H64.695V16.624H59.543V19.92H63.895V21.056H59.543V24.864H64.855V26H58.199ZM68.1128 26V15.504H69.4248V24.864H74.6248V26H68.1128Z" fill="#676C79"></path> <rect x="0.5" y="0.5" width="93" height="39" stroke="#7FE1E5"></rect> </svg> 