<?xml version="1.0" encoding="UTF-8"?> <svg xmlns="http://www.w3.org/2000/svg" width="252" height="42" viewBox="0 0 252 42" fill="none"> <path d="M19.71 27V25.722H22.644V16.452H19.71V15.192H27.09V16.452H24.156V25.722H27.09V27H19.71ZM30.269 27V15.192H31.925L35.705 22.608L36.839 25.056H36.875C36.851 24.468 36.809 23.856 36.749 23.22C36.701 22.572 36.677 21.936 36.677 21.312V15.192H38.117V27H36.461L32.681 19.584L31.547 17.136H31.511C31.535 17.748 31.571 18.366 31.619 18.99C31.679 19.602 31.709 20.214 31.709 20.826V27H30.269ZM41.9799 27V15.192H49.2339V16.452H43.4919V20.448H48.3519V21.708H43.4919V27H41.9799ZM55.7789 27.216C55.1069 27.216 54.4949 27.078 53.9429 26.802C53.3909 26.514 52.9109 26.106 52.5029 25.578C52.1069 25.05 51.7949 24.408 51.5669 23.652C51.3509 22.884 51.2429 22.014 51.2429 21.042C51.2429 20.094 51.3509 19.242 51.5669 18.486C51.7949 17.73 52.1069 17.094 52.5029 16.578C52.9109 16.062 53.3909 15.666 53.9429 15.39C54.4949 15.114 55.1069 14.976 55.7789 14.976C56.4389 14.976 57.0449 15.114 57.5969 15.39C58.1609 15.666 58.6409 16.062 59.0369 16.578C59.4449 17.094 59.7569 17.73 59.9729 18.486C60.2009 19.242 60.3149 20.094 60.3149 21.042C60.3149 22.014 60.2009 22.884 59.9729 23.652C59.7569 24.408 59.4449 25.05 59.0369 25.578C58.6409 26.106 58.1609 26.514 57.5969 26.802C57.0449 27.078 56.4389 27.216 55.7789 27.216ZM55.7789 25.902C56.2229 25.902 56.6309 25.794 57.0029 25.578C57.3749 25.35 57.6869 25.026 57.9389 24.606C58.2029 24.186 58.4069 23.676 58.5509 23.076C58.6949 22.476 58.7669 21.798 58.7669 21.042C58.7669 20.298 58.6949 19.632 58.5509 19.044C58.4069 18.456 58.2029 17.958 57.9389 17.55C57.6869 17.142 57.3749 16.83 57.0029 16.614C56.6309 16.398 56.2229 16.29 55.7789 16.29C55.3229 16.29 54.9089 16.398 54.5369 16.614C54.1769 16.83 53.8649 17.142 53.6009 17.55C53.3489 17.958 53.1509 18.456 53.0069 19.044C52.8629 19.632 52.7909 20.298 52.7909 21.042C52.7909 21.798 52.8629 22.476 53.0069 23.076C53.1509 23.676 53.3489 24.186 53.6009 24.606C53.8649 25.026 54.1769 25.35 54.5369 25.578C54.9089 25.794 55.3229 25.902 55.7789 25.902ZM62.9719 27V15.192H66.6439C67.2439 15.192 67.7959 15.252 68.2999 15.372C68.8039 15.48 69.2359 15.666 69.5959 15.93C69.9679 16.194 70.2559 16.536 70.4599 16.956C70.6639 17.376 70.7659 17.892 70.7659 18.504C70.7659 19.428 70.5259 20.166 70.0459 20.718C69.5659 21.27 68.9239 21.648 68.1199 21.852L71.1259 27H69.4159L66.5719 22.014H64.4659V27H62.9719ZM64.4659 20.79H66.4279C67.3519 20.79 68.0539 20.604 68.5339 20.232C69.0259 19.848 69.2719 19.272 69.2719 18.504C69.2719 17.724 69.0259 17.178 68.5339 16.866C68.0539 16.554 67.3519 16.398 66.4279 16.398H64.4659V20.79ZM73.2608 27V15.192H75.0968L76.7528 20.232L77.3288 22.14H77.4008L77.9588 20.232L79.6328 15.192H81.4688V27H80.0288V21.096C80.0288 20.808 80.0348 20.478 80.0468 20.106C80.0708 19.722 80.0948 19.338 80.1188 18.954C80.1548 18.57 80.1848 18.198 80.2088 17.838C80.2328 17.478 80.2568 17.172 80.2808 16.92H80.2268L79.5608 19.224L77.8688 23.868H76.7888L75.1328 19.224L74.4488 16.92H74.4128C74.4368 17.172 74.4608 17.478 74.4848 17.838C74.5208 18.198 74.5508 18.57 74.5748 18.954C74.5988 19.338 74.6168 19.722 74.6288 20.106C74.6528 20.478 74.6648 20.808 74.6648 21.096V27H73.2608ZM86.9338 20.394L86.3758 22.194H89.9038L89.3458 20.394C89.1418 19.734 88.9378 19.08 88.7338 18.432C88.5418 17.772 88.3558 17.1 88.1758 16.416H88.1038C87.9118 17.1 87.7198 17.772 87.5278 18.432C87.3358 19.08 87.1378 19.734 86.9338 20.394ZM83.3338 27L87.3118 15.192H89.0038L92.9818 27H91.3978L90.2818 23.4H85.9978L84.8638 27H83.3338ZM98.1948 27V16.452H94.3068V15.192L103.595 15.192V16.452H99.7068V27H98.1948ZM106.054 27V25.722H108.988V16.452H106.054V15.192H113.434V16.452H110.5V25.722H113.434V27H106.054ZM120.537 27.216C119.865 27.216 119.253 27.078 118.701 26.802C118.149 26.514 117.669 26.106 117.261 25.578C116.865 25.05 116.553 24.408 116.325 23.652C116.109 22.884 116.001 22.014 116.001 21.042C116.001 20.094 116.109 19.242 116.325 18.486C116.553 17.73 116.865 17.094 117.261 16.578C117.669 16.062 118.149 15.666 118.701 15.39C119.253 15.114 119.865 14.976 120.537 14.976C121.197 14.976 121.803 15.114 122.355 15.39C122.919 15.666 123.399 16.062 123.795 16.578C124.203 17.094 124.515 17.73 124.731 18.486C124.959 19.242 125.073 20.094 125.073 21.042C125.073 22.014 124.959 22.884 124.731 23.652C124.515 24.408 124.203 25.05 123.795 25.578C123.399 26.106 122.919 26.514 122.355 26.802C121.803 27.078 121.197 27.216 120.537 27.216ZM120.537 25.902C120.981 25.902 121.389 25.794 121.761 25.578C122.133 25.35 122.445 25.026 122.697 24.606C122.961 24.186 123.165 23.676 123.309 23.076C123.453 22.476 123.525 21.798 123.525 21.042C123.525 20.298 123.453 19.632 123.309 19.044C123.165 18.456 122.961 17.958 122.697 17.55C122.445 17.142 122.133 16.83 121.761 16.614C121.389 16.398 120.981 16.29 120.537 16.29C120.081 16.29 119.667 16.398 119.295 16.614C118.935 16.83 118.623 17.142 118.359 17.55C118.107 17.958 117.909 18.456 117.765 19.044C117.621 19.632 117.549 20.298 117.549 21.042C117.549 21.798 117.621 22.476 117.765 23.076C117.909 23.676 118.107 24.186 118.359 24.606C118.623 25.026 118.935 25.35 119.295 25.578C119.667 25.794 120.081 25.902 120.537 25.902ZM127.406 27V15.192H129.062L132.842 22.608L133.976 25.056H134.012C133.988 24.468 133.946 23.856 133.886 23.22C133.838 22.572 133.814 21.936 133.814 21.312V15.192H135.254V27H133.598L129.818 19.584L128.684 17.136H128.648C128.672 17.748 128.708 18.366 128.756 18.99C128.816 19.602 128.846 20.214 128.846 20.826V27H127.406ZM153.006 27.216C152.142 27.216 151.344 27.06 150.612 26.748C149.892 26.436 149.262 26.01 148.722 25.47L149.622 24.426C150.066 24.87 150.582 25.23 151.17 25.506C151.758 25.77 152.394 25.902 153.078 25.902C153.894 25.902 154.524 25.728 154.968 25.38C155.424 25.032 155.652 24.582 155.652 24.03C155.652 23.718 155.598 23.454 155.49 23.238C155.382 23.022 155.232 22.836 155.04 22.68C154.848 22.524 154.62 22.386 154.356 22.266C154.104 22.146 153.828 22.02 153.528 21.888L151.836 21.15C151.536 21.03 151.236 20.886 150.936 20.718C150.636 20.55 150.36 20.346 150.108 20.106C149.868 19.866 149.67 19.584 149.514 19.26C149.358 18.924 149.28 18.54 149.28 18.108C149.28 17.664 149.376 17.25 149.568 16.866C149.76 16.482 150.024 16.152 150.36 15.876C150.708 15.588 151.116 15.366 151.584 15.21C152.064 15.054 152.586 14.976 153.15 14.976C153.894 14.976 154.578 15.114 155.202 15.39C155.826 15.654 156.354 16.002 156.786 16.434L155.994 17.406C155.61 17.058 155.184 16.788 154.716 16.596C154.248 16.392 153.708 16.29 153.096 16.29C152.412 16.29 151.86 16.446 151.44 16.758C151.02 17.058 150.81 17.478 150.81 18.018C150.81 18.306 150.87 18.552 150.99 18.756C151.122 18.948 151.284 19.122 151.476 19.278C151.68 19.422 151.908 19.548 152.16 19.656C152.412 19.764 152.664 19.872 152.916 19.98L154.572 20.7C154.932 20.844 155.268 21.012 155.58 21.204C155.904 21.384 156.18 21.6 156.408 21.852C156.648 22.092 156.834 22.38 156.966 22.716C157.11 23.04 157.182 23.418 157.182 23.85C157.182 24.318 157.086 24.756 156.894 25.164C156.702 25.572 156.426 25.932 156.066 26.244C155.706 26.544 155.268 26.784 154.752 26.964C154.236 27.132 153.654 27.216 153.006 27.216ZM160.361 27V15.192H167.669V16.452H161.873V20.16H166.769V21.438H161.873V25.722H167.849V27H160.361ZM175.42 27.216C174.688 27.216 174.01 27.078 173.386 26.802C172.762 26.526 172.216 26.13 171.748 25.614C171.292 25.086 170.932 24.444 170.668 23.688C170.404 22.92 170.272 22.056 170.272 21.096C170.272 20.148 170.404 19.296 170.668 18.54C170.932 17.784 171.298 17.142 171.766 16.614C172.234 16.086 172.792 15.684 173.44 15.408C174.088 15.12 174.796 14.976 175.564 14.976C176.272 14.976 176.896 15.12 177.436 15.408C177.988 15.696 178.438 16.032 178.786 16.416L177.94 17.37C177.628 17.046 177.28 16.788 176.896 16.596C176.512 16.392 176.068 16.29 175.564 16.29C175 16.29 174.484 16.404 174.016 16.632C173.56 16.848 173.17 17.166 172.846 17.586C172.522 17.994 172.27 18.492 172.09 19.08C171.91 19.668 171.82 20.328 171.82 21.06C171.82 21.804 171.91 22.476 172.09 23.076C172.27 23.664 172.522 24.168 172.846 24.588C173.17 25.008 173.56 25.332 174.016 25.56C174.484 25.788 175 25.902 175.564 25.902C176.104 25.902 176.584 25.788 177.004 25.56C177.436 25.332 177.844 25.008 178.228 24.588L179.074 25.506C178.606 26.046 178.078 26.466 177.49 26.766C176.902 27.066 176.212 27.216 175.42 27.216ZM185.313 27.216C184.737 27.216 184.203 27.132 183.711 26.964C183.219 26.796 182.793 26.526 182.433 26.154C182.085 25.77 181.809 25.284 181.605 24.696C181.413 24.108 181.317 23.388 181.317 22.536V15.192H182.829V22.572C182.829 23.184 182.889 23.706 183.009 24.138C183.141 24.558 183.315 24.9 183.531 25.164C183.759 25.416 184.023 25.602 184.323 25.722C184.623 25.842 184.953 25.902 185.313 25.902C185.673 25.902 186.003 25.842 186.303 25.722C186.603 25.602 186.867 25.416 187.095 25.164C187.323 24.9 187.497 24.558 187.617 24.138C187.749 23.706 187.815 23.184 187.815 22.572V15.192H189.273V22.536C189.273 23.388 189.171 24.108 188.967 24.696C188.775 25.284 188.505 25.77 188.157 26.154C187.809 26.526 187.389 26.796 186.897 26.964C186.417 27.132 185.889 27.216 185.313 27.216ZM192.488 27V15.192L196.16 15.192C196.76 15.192 197.312 15.252 197.816 15.372C198.32 15.48 198.752 15.666 199.112 15.93C199.484 16.194 199.772 16.536 199.976 16.956C200.18 17.376 200.282 17.892 200.282 18.504C200.282 19.428 200.042 20.166 199.562 20.718C199.082 21.27 198.44 21.648 197.636 21.852L200.642 27H198.932L196.088 22.014H193.982V27H192.488ZM193.982 20.79H195.944C196.868 20.79 197.57 20.604 198.05 20.232C198.542 19.848 198.788 19.272 198.788 18.504C198.788 17.724 198.542 17.178 198.05 16.866C197.57 16.554 196.868 16.398 195.944 16.398H193.982V20.79ZM203.19 27V25.722H206.124V16.452H203.19V15.192H210.57V16.452H207.636V25.722L210.57 25.722V27L203.19 27ZM216.917 27V16.452H213.029V15.192H222.317V16.452H218.429V27H216.917ZM227.71 27V22.788L223.75 15.192H225.334L227.116 18.702C227.344 19.158 227.566 19.614 227.782 20.07C227.998 20.514 228.226 20.976 228.466 21.456H228.538C228.778 20.976 229.012 20.508 229.24 20.052C229.468 19.596 229.696 19.14 229.924 18.684L231.634 15.192H233.182L229.222 22.788V27H227.71Z" fill="#676C79"></path> <rect x="0.5" y="0.5" width="251" height="41" stroke="#8CA6EA"></rect> </svg> 