<?xml version="1.0" encoding="UTF-8"?> <svg xmlns="http://www.w3.org/2000/svg" width="101" height="42" viewBox="0 0 101 42" fill="none"> <path d="M19.566 27V15.192H22.482C24.27 15.192 25.626 15.696 26.55 16.704C27.486 17.712 27.954 19.158 27.954 21.042C27.954 22.926 27.486 24.39 26.55 25.434C25.626 26.478 24.294 27 22.554 27H19.566ZM21.06 25.776H22.374C23.73 25.776 24.738 25.362 25.398 24.534C26.07 23.706 26.406 22.542 26.406 21.042C26.406 19.542 26.07 18.396 25.398 17.604C24.738 16.812 23.73 16.416 22.374 16.416H21.06V25.776ZM30.845 27V15.192H38.153V16.452H32.357V20.16H37.253V21.438H32.357V25.722H38.333V27H30.845ZM44.1219 27L40.3599 15.192H41.9439L43.8519 21.564C44.0559 22.272 44.2419 22.926 44.4099 23.526C44.5779 24.126 44.7699 24.774 44.9859 25.47H45.0579C45.1659 25.122 45.2679 24.792 45.3639 24.48C45.4599 24.156 45.5499 23.838 45.6339 23.526C45.7299 23.214 45.8199 22.896 45.9039 22.572C45.9999 22.248 46.0959 21.912 46.1919 21.564L48.0819 15.192H49.6119L45.8679 27H44.1219ZM55.7789 27.216C55.1069 27.216 54.4949 27.078 53.9429 26.802C53.3909 26.514 52.9109 26.106 52.5029 25.578C52.1069 25.05 51.7949 24.408 51.5669 23.652C51.3509 22.884 51.2429 22.014 51.2429 21.042C51.2429 20.094 51.3509 19.242 51.5669 18.486C51.7949 17.73 52.1069 17.094 52.5029 16.578C52.9109 16.062 53.3909 15.666 53.9429 15.39C54.4949 15.114 55.1069 14.976 55.7789 14.976C56.4389 14.976 57.0449 15.114 57.5969 15.39C58.1609 15.666 58.6409 16.062 59.0369 16.578C59.4449 17.094 59.7569 17.73 59.9729 18.486C60.2009 19.242 60.3149 20.094 60.3149 21.042C60.3149 22.014 60.2009 22.884 59.9729 23.652C59.7569 24.408 59.4449 25.05 59.0369 25.578C58.6409 26.106 58.1609 26.514 57.5969 26.802C57.0449 27.078 56.4389 27.216 55.7789 27.216ZM55.7789 25.902C56.2229 25.902 56.6309 25.794 57.0029 25.578C57.3749 25.35 57.6869 25.026 57.9389 24.606C58.2029 24.186 58.4069 23.676 58.5509 23.076C58.6949 22.476 58.7669 21.798 58.7669 21.042C58.7669 20.298 58.6949 19.632 58.5509 19.044C58.4069 18.456 58.2029 17.958 57.9389 17.55C57.6869 17.142 57.3749 16.83 57.0029 16.614C56.6309 16.398 56.2229 16.29 55.7789 16.29C55.3229 16.29 54.9089 16.398 54.5369 16.614C54.1769 16.83 53.8649 17.142 53.6009 17.55C53.3489 17.958 53.1509 18.456 53.0069 19.044C52.8629 19.632 52.7909 20.298 52.7909 21.042C52.7909 21.798 52.8629 22.476 53.0069 23.076C53.1509 23.676 53.3489 24.186 53.6009 24.606C53.8649 25.026 54.1769 25.35 54.5369 25.578C54.9089 25.794 55.3229 25.902 55.7789 25.902ZM63.0079 27V15.192H66.5719C67.2199 15.192 67.8139 15.252 68.3539 15.372C68.8939 15.492 69.3559 15.69 69.7399 15.966C70.1239 16.23 70.4179 16.584 70.6219 17.028C70.8379 17.472 70.9459 18.018 70.9459 18.666C70.9459 19.29 70.8379 19.83 70.6219 20.286C70.4179 20.742 70.1179 21.12 69.7219 21.42C69.3379 21.72 68.8759 21.948 68.3359 22.104C67.8079 22.248 67.2199 22.32 66.5719 22.32H64.5019V27H63.0079ZM64.5019 21.096H66.3919C67.4359 21.096 68.2039 20.904 68.6959 20.52C69.1879 20.124 69.4339 19.506 69.4339 18.666C69.4339 17.814 69.1819 17.226 68.6779 16.902C68.1739 16.566 67.4119 16.398 66.3919 16.398H64.5019V21.096ZM77.4548 27.216C76.5908 27.216 75.7928 27.06 75.0608 26.748C74.3408 26.436 73.7108 26.01 73.1708 25.47L74.0708 24.426C74.5148 24.87 75.0308 25.23 75.6188 25.506C76.2068 25.77 76.8428 25.902 77.5268 25.902C78.3428 25.902 78.9728 25.728 79.4168 25.38C79.8728 25.032 80.1008 24.582 80.1008 24.03C80.1008 23.718 80.0468 23.454 79.9388 23.238C79.8308 23.022 79.6808 22.836 79.4888 22.68C79.2968 22.524 79.0688 22.386 78.8048 22.266C78.5528 22.146 78.2768 22.02 77.9768 21.888L76.2848 21.15C75.9848 21.03 75.6848 20.886 75.3848 20.718C75.0848 20.55 74.8088 20.346 74.5568 20.106C74.3168 19.866 74.1188 19.584 73.9628 19.26C73.8068 18.924 73.7288 18.54 73.7288 18.108C73.7288 17.664 73.8248 17.25 74.0168 16.866C74.2088 16.482 74.4728 16.152 74.8088 15.876C75.1568 15.588 75.5648 15.366 76.0328 15.21C76.5128 15.054 77.0348 14.976 77.5988 14.976C78.3428 14.976 79.0268 15.114 79.6508 15.39C80.2748 15.654 80.8028 16.002 81.2348 16.434L80.4428 17.406C80.0588 17.058 79.6328 16.788 79.1648 16.596C78.6968 16.392 78.1568 16.29 77.5448 16.29C76.8608 16.29 76.3088 16.446 75.8888 16.758C75.4688 17.058 75.2588 17.478 75.2588 18.018C75.2588 18.306 75.3188 18.552 75.4388 18.756C75.5708 18.948 75.7328 19.122 75.9248 19.278C76.1288 19.422 76.3568 19.548 76.6088 19.656C76.8608 19.764 77.1128 19.872 77.3648 19.98L79.0208 20.7C79.3808 20.844 79.7168 21.012 80.0288 21.204C80.3528 21.384 80.6288 21.6 80.8568 21.852C81.0968 22.092 81.2828 22.38 81.4148 22.716C81.5588 23.04 81.6308 23.418 81.6308 23.85C81.6308 24.318 81.5348 24.756 81.3428 25.164C81.1508 25.572 80.8748 25.932 80.5148 26.244C80.1548 26.544 79.7168 26.784 79.2008 26.964C78.6848 27.132 78.1028 27.216 77.4548 27.216Z" fill="#676C79"></path> <rect x="0.5" y="0.5" width="100" height="41" stroke="#7FE1E5"></rect> </svg> 