<?xml version="1.0" encoding="UTF-8"?> <svg xmlns="http://www.w3.org/2000/svg" width="112" height="42" viewBox="0 0 112 42" fill="none"> <path d="M19.782 27V15.192H23.13C23.73 15.192 24.276 15.246 24.768 15.354C25.272 15.462 25.698 15.63 26.046 15.858C26.406 16.086 26.682 16.386 26.874 16.758C27.078 17.118 27.18 17.556 27.18 18.072C27.18 18.66 27.012 19.194 26.676 19.674C26.34 20.142 25.818 20.466 25.11 20.646V20.718C25.974 20.85 26.646 21.15 27.126 21.618C27.606 22.086 27.846 22.728 27.846 23.544C27.846 24.12 27.738 24.624 27.522 25.056C27.306 25.488 27 25.848 26.604 26.136C26.22 26.424 25.752 26.64 25.2 26.784C24.66 26.928 24.06 27 23.4 27H19.782ZM21.276 20.16H22.878C23.886 20.16 24.606 19.998 25.038 19.674C25.482 19.35 25.704 18.858 25.704 18.198C25.704 17.55 25.47 17.1 25.002 16.848C24.546 16.584 23.862 16.452 22.95 16.452H21.276V20.16ZM21.276 25.74H23.184C24.204 25.74 24.99 25.566 25.542 25.218C26.094 24.858 26.37 24.276 26.37 23.472C26.37 22.74 26.1 22.218 25.56 21.906C25.02 21.582 24.228 21.42 23.184 21.42H21.276V25.74ZM32.969 20.394L32.411 22.194H35.939L35.381 20.394C35.177 19.734 34.973 19.08 34.769 18.432C34.577 17.772 34.391 17.1 34.211 16.416H34.139C33.947 17.1 33.755 17.772 33.563 18.432C33.371 19.08 33.173 19.734 32.969 20.394ZM29.369 27L33.347 15.192H35.039L39.017 27H37.433L36.317 23.4H32.033L30.899 27H29.369ZM45.9039 27.216C45.1719 27.216 44.4939 27.078 43.8699 26.802C43.2459 26.526 42.6999 26.13 42.2319 25.614C41.7759 25.086 41.4159 24.444 41.1519 23.688C40.8879 22.92 40.7559 22.056 40.7559 21.096C40.7559 20.148 40.8879 19.296 41.1519 18.54C41.4159 17.784 41.7819 17.142 42.2499 16.614C42.7179 16.086 43.2759 15.684 43.9239 15.408C44.5719 15.12 45.2799 14.976 46.0479 14.976C46.7559 14.976 47.3799 15.12 47.9199 15.408C48.4719 15.696 48.9219 16.032 49.2699 16.416L48.4239 17.37C48.1119 17.046 47.7639 16.788 47.3799 16.596C46.9959 16.392 46.5519 16.29 46.0479 16.29C45.4839 16.29 44.9679 16.404 44.4999 16.632C44.0439 16.848 43.6539 17.166 43.3299 17.586C43.0059 17.994 42.7539 18.492 42.5739 19.08C42.3939 19.668 42.3039 20.328 42.3039 21.06C42.3039 21.804 42.3939 22.476 42.5739 23.076C42.7539 23.664 43.0059 24.168 43.3299 24.588C43.6539 25.008 44.0439 25.332 44.4999 25.56C44.9679 25.788 45.4839 25.902 46.0479 25.902C46.5879 25.902 47.0679 25.788 47.4879 25.56C47.9199 25.332 48.3279 25.008 48.7119 24.588L49.5579 25.506C49.0899 26.046 48.5619 26.466 47.9739 26.766C47.3859 27.066 46.6959 27.216 45.9039 27.216ZM52.1429 27V15.192H53.6549V21.114H53.7089L58.6769 15.192H60.3869L56.6429 19.674L60.8189 27H59.1269L55.6889 20.808L53.6549 23.238V27H52.1429ZM63.2239 27V15.192H70.5319V16.452H64.7359V20.16H69.6319V21.438H64.7359V25.722H70.7119V27H63.2239ZM73.4408 27V15.192H75.0968L78.8768 22.608L80.0108 25.056H80.0468C80.0228 24.468 79.9808 23.856 79.9208 23.22C79.8728 22.572 79.8488 21.936 79.8488 21.312V15.192H81.2888V27H79.6328L75.8528 19.584L74.7188 17.136H74.6828C74.7068 17.748 74.7428 18.366 74.7908 18.99C74.8508 19.602 74.8808 20.214 74.8808 20.826V27H73.4408ZM84.3238 27V15.192H87.2398C89.0278 15.192 90.3838 15.696 91.3078 16.704C92.2438 17.712 92.7118 19.158 92.7118 21.042C92.7118 22.926 92.2438 24.39 91.3078 25.434C90.3838 26.478 89.0518 27 87.3118 27H84.3238ZM85.8178 25.776H87.1318C88.4878 25.776 89.4958 25.362 90.1558 24.534C90.8278 23.706 91.1638 22.542 91.1638 21.042C91.1638 19.542 90.8278 18.396 90.1558 17.604C89.4958 16.812 88.4878 16.416 87.1318 16.416H85.8178V25.776Z" fill="#676C79"></path> <rect x="0.5" y="0.5" width="111" height="41" stroke="#A48DEB"></rect> </svg> 