<?xml version="1.0" encoding="UTF-8"?> <svg xmlns="http://www.w3.org/2000/svg" width="16" height="16" viewBox="0 0 16 16" fill="none"> <path fill-rule="evenodd" clip-rule="evenodd" d="M15.1167 0H0.883333C0.395333 0 0 0.395333 0 0.883333V15.1173C0 15.6047 0.395333 16 0.883333 16H8.54667V9.804H6.46133V7.38933H8.54667V5.60867C8.54667 3.542 9.80867 2.41667 11.6527 2.41667C12.536 2.41667 13.2947 2.48267 13.516 2.512V4.672L12.2373 4.67267C11.2347 4.67267 11.0407 5.14933 11.0407 5.848V7.39H13.432L13.1207 9.80467H11.0407V16H15.118C15.6047 16 16 15.6047 16 15.1167V0.883333C16 0.395333 15.6047 0 15.1167 0Z" fill="#676C79"></path> </svg> 