<?xml version="1.0" encoding="UTF-8"?> <svg xmlns="http://www.w3.org/2000/svg" width="132" height="40" viewBox="0 0 132 40" fill="none"> <path d="M23.616 26.192C22.9653 26.192 22.3627 26.0693 21.808 25.824C21.2533 25.5787 20.768 25.2267 20.352 24.768C19.9467 24.2987 19.6267 23.728 19.392 23.056C19.1573 22.3733 19.04 21.6053 19.04 20.752C19.04 19.9093 19.1573 19.152 19.392 18.48C19.6267 17.808 19.952 17.2373 20.368 16.768C20.784 16.2987 21.28 15.9413 21.856 15.696C22.432 15.44 23.0613 15.312 23.744 15.312C24.3733 15.312 24.928 15.44 25.408 15.696C25.8987 15.952 26.2987 16.2507 26.608 16.592L25.856 17.44C25.5787 17.152 25.2693 16.9227 24.928 16.752C24.5867 16.5707 24.192 16.48 23.744 16.48C23.2427 16.48 22.784 16.5813 22.368 16.784C21.9627 16.976 21.616 17.2587 21.328 17.632C21.04 17.9947 20.816 18.4373 20.656 18.96C20.496 19.4827 20.416 20.0693 20.416 20.72C20.416 21.3813 20.496 21.9787 20.656 22.512C20.816 23.0347 21.04 23.4827 21.328 23.856C21.616 24.2293 21.9627 24.5173 22.368 24.72C22.784 24.9227 23.2427 25.024 23.744 25.024C24.224 25.024 24.6507 24.9227 25.024 24.72C25.408 24.5173 25.7707 24.2293 26.112 23.856L26.864 24.672C26.448 25.152 25.9787 25.5253 25.456 25.792C24.9333 26.0587 24.32 26.192 23.616 26.192ZM31.3058 20.128L30.8098 21.728H33.9458L33.4498 20.128C33.2684 19.5413 33.0871 18.96 32.9058 18.384C32.7351 17.7973 32.5698 17.2 32.4098 16.592H32.3458C32.1751 17.2 32.0044 17.7973 31.8338 18.384C31.6631 18.96 31.4871 19.5413 31.3058 20.128ZM28.1058 26L31.6418 15.504H33.1458L36.6818 26H35.2738L34.2818 22.8H30.4738L29.4658 26H28.1058ZM38.7875 26V15.504H42.0515C42.5848 15.504 43.0755 15.5573 43.5235 15.664C43.9715 15.76 44.3555 15.9253 44.6755 16.16C45.0062 16.3947 45.2622 16.6987 45.4435 17.072C45.6248 17.4453 45.7155 17.904 45.7155 18.448C45.7155 19.2693 45.5022 19.9253 45.0755 20.416C44.6488 20.9067 44.0782 21.2427 43.3635 21.424L46.0355 26H44.5155L41.9875 21.568H40.1155V26H38.7875ZM40.1155 20.48H41.8595C42.6808 20.48 43.3048 20.3147 43.7315 19.984C44.1688 19.6427 44.3875 19.1307 44.3875 18.448C44.3875 17.7547 44.1688 17.2693 43.7315 16.992C43.3048 16.7147 42.6808 16.576 41.8595 16.576H40.1155V20.48ZM51.6613 26.192C50.8933 26.192 50.1839 26.0533 49.5333 25.776C48.8933 25.4987 48.3333 25.12 47.8533 24.64L48.6533 23.712C49.0479 24.1067 49.5066 24.4267 50.0293 24.672C50.5519 24.9067 51.1173 25.024 51.7253 25.024C52.4506 25.024 53.0106 24.8693 53.4053 24.56C53.8106 24.2507 54.0133 23.8507 54.0133 23.36C54.0133 23.0827 53.9653 22.848 53.8693 22.656C53.7733 22.464 53.6399 22.2987 53.4693 22.16C53.2986 22.0213 53.0959 21.8987 52.8613 21.792C52.6373 21.6853 52.3919 21.5733 52.1253 21.456L50.6213 20.8C50.3546 20.6933 50.0879 20.5653 49.8213 20.416C49.5546 20.2667 49.3093 20.0853 49.0853 19.872C48.8719 19.6587 48.6959 19.408 48.5573 19.12C48.4186 18.8213 48.3493 18.48 48.3493 18.096C48.3493 17.7013 48.4346 17.3333 48.6053 16.992C48.7759 16.6507 49.0106 16.3573 49.3093 16.112C49.6186 15.856 49.9813 15.6587 50.3973 15.52C50.8239 15.3813 51.2879 15.312 51.7893 15.312C52.4506 15.312 53.0586 15.4347 53.6133 15.68C54.1679 15.9147 54.6373 16.224 55.0213 16.608L54.3173 17.472C53.9759 17.1627 53.5973 16.9227 53.1813 16.752C52.7653 16.5707 52.2853 16.48 51.7413 16.48C51.1333 16.48 50.6426 16.6187 50.2693 16.896C49.8959 17.1627 49.7093 17.536 49.7093 18.016C49.7093 18.272 49.7626 18.4907 49.8693 18.672C49.9866 18.8427 50.1306 18.9973 50.3013 19.136C50.4826 19.264 50.6853 19.376 50.9093 19.472C51.1333 19.568 51.3573 19.664 51.5813 19.76L53.0533 20.4C53.3733 20.528 53.6719 20.6773 53.9493 20.848C54.2373 21.008 54.4826 21.2 54.6853 21.424C54.8986 21.6373 55.0639 21.8933 55.1813 22.192C55.3093 22.48 55.3733 22.816 55.3733 23.2C55.3733 23.616 55.2879 24.0053 55.1173 24.368C54.9466 24.7307 54.7013 25.0507 54.3813 25.328C54.0613 25.5947 53.6719 25.808 53.2133 25.968C52.7546 26.1173 52.2373 26.192 51.6613 26.192ZM57.639 26V15.504H58.983V19.904H63.367V15.504H64.711V26H63.367V21.056H58.983V26H57.639ZM69.6808 20.128L69.1848 21.728H72.3208L71.8248 20.128C71.6434 19.5413 71.4621 18.96 71.2808 18.384C71.1101 17.7973 70.9448 17.2 70.7848 16.592H70.7208C70.5501 17.2 70.3794 17.7973 70.2088 18.384C70.0381 18.96 69.8621 19.5413 69.6808 20.128ZM66.4808 26L70.0168 15.504H71.5208L75.0568 26H73.6488L72.6568 22.8H68.8488L67.8408 26H66.4808ZM77.1625 26V15.504H80.4265C80.9598 15.504 81.4505 15.5573 81.8985 15.664C82.3465 15.76 82.7305 15.9253 83.0505 16.16C83.3812 16.3947 83.6372 16.6987 83.8185 17.072C83.9998 17.4453 84.0905 17.904 84.0905 18.448C84.0905 19.2693 83.8772 19.9253 83.4505 20.416C83.0238 20.9067 82.4532 21.2427 81.7385 21.424L84.4105 26H82.8905L80.3625 21.568H78.4905V26H77.1625ZM78.4905 20.48H80.2345C81.0558 20.48 81.6798 20.3147 82.1065 19.984C82.5438 19.6427 82.7625 19.1307 82.7625 18.448C82.7625 17.7547 82.5438 17.2693 82.1065 16.992C81.6798 16.7147 81.0558 16.576 80.2345 16.576H78.4905V20.48ZM86.6763 26V24.864H89.2843V16.624H86.6763V15.504H93.2362V16.624H90.6283V24.864H93.2362V26H86.6763ZM96.062 26V15.504H97.534L100.894 22.096L101.902 24.272H101.934C101.913 23.7493 101.875 23.2053 101.822 22.64C101.779 22.064 101.758 21.4987 101.758 20.944V15.504H103.038V26H101.566L98.206 19.408L97.198 17.232H97.166C97.1873 17.776 97.2193 18.3253 97.262 18.88C97.3153 19.424 97.342 19.968 97.342 20.512V26H96.062ZM109.736 26.192C109.074 26.192 108.466 26.0693 107.912 25.824C107.357 25.5787 106.877 25.2267 106.472 24.768C106.066 24.2987 105.752 23.728 105.528 23.056C105.304 22.3733 105.192 21.6053 105.192 20.752C105.192 19.9093 105.304 19.152 105.528 18.48C105.762 17.7973 106.082 17.2267 106.488 16.768C106.904 16.2987 107.394 15.9413 107.96 15.696C108.536 15.44 109.165 15.312 109.848 15.312C110.2 15.312 110.52 15.3493 110.808 15.424C111.096 15.4987 111.357 15.6 111.592 15.728C111.837 15.8453 112.05 15.9787 112.232 16.128C112.424 16.2773 112.594 16.432 112.744 16.592L111.992 17.44C111.736 17.1627 111.442 16.9333 111.112 16.752C110.781 16.5707 110.36 16.48 109.848 16.48C109.357 16.48 108.909 16.5813 108.504 16.784C108.109 16.976 107.768 17.2587 107.48 17.632C107.192 17.9947 106.968 18.4373 106.808 18.96C106.658 19.4827 106.584 20.0693 106.584 20.72C106.584 21.3813 106.653 21.9787 106.792 22.512C106.941 23.0347 107.149 23.4827 107.416 23.856C107.693 24.2293 108.034 24.5173 108.44 24.72C108.845 24.9227 109.304 25.024 109.816 25.024C110.189 25.024 110.536 24.9707 110.856 24.864C111.176 24.7467 111.437 24.592 111.64 24.4V21.664H109.544V20.56H112.872V24.976C112.541 25.3173 112.104 25.6053 111.56 25.84C111.026 26.0747 110.418 26.192 109.736 26.192Z" fill="#676C79"></path> <rect x="0.5" y="0.5" width="131" height="39" stroke="#D4D9E8"></rect> </svg> 