<?xml version="1.0" encoding="UTF-8"?> <svg xmlns="http://www.w3.org/2000/svg" width="69" height="42" viewBox="0 0 69 42" fill="none"> <path d="M23.49 27.216C22.626 27.216 21.828 27.06 21.096 26.748C20.376 26.436 19.746 26.01 19.206 25.47L20.106 24.426C20.55 24.87 21.066 25.23 21.654 25.506C22.242 25.77 22.878 25.902 23.562 25.902C24.378 25.902 25.008 25.728 25.452 25.38C25.908 25.032 26.136 24.582 26.136 24.03C26.136 23.718 26.082 23.454 25.974 23.238C25.866 23.022 25.716 22.836 25.524 22.68C25.332 22.524 25.104 22.386 24.84 22.266C24.588 22.146 24.312 22.02 24.012 21.888L22.32 21.15C22.02 21.03 21.72 20.886 21.42 20.718C21.12 20.55 20.844 20.346 20.592 20.106C20.352 19.866 20.154 19.584 19.998 19.26C19.842 18.924 19.764 18.54 19.764 18.108C19.764 17.664 19.86 17.25 20.052 16.866C20.244 16.482 20.508 16.152 20.844 15.876C21.192 15.588 21.6 15.366 22.068 15.21C22.548 15.054 23.07 14.976 23.634 14.976C24.378 14.976 25.062 15.114 25.686 15.39C26.31 15.654 26.838 16.002 27.27 16.434L26.478 17.406C26.094 17.058 25.668 16.788 25.2 16.596C24.732 16.392 24.192 16.29 23.58 16.29C22.896 16.29 22.344 16.446 21.924 16.758C21.504 17.058 21.294 17.478 21.294 18.018C21.294 18.306 21.354 18.552 21.474 18.756C21.606 18.948 21.768 19.122 21.96 19.278C22.164 19.422 22.392 19.548 22.644 19.656C22.896 19.764 23.148 19.872 23.4 19.98L25.056 20.7C25.416 20.844 25.752 21.012 26.064 21.204C26.388 21.384 26.664 21.6 26.892 21.852C27.132 22.092 27.318 22.38 27.45 22.716C27.594 23.04 27.666 23.418 27.666 23.85C27.666 24.318 27.57 24.756 27.378 25.164C27.186 25.572 26.91 25.932 26.55 26.244C26.19 26.544 25.752 26.784 25.236 26.964C24.72 27.132 24.138 27.216 23.49 27.216ZM30.593 27V15.192H34.265C34.865 15.192 35.417 15.252 35.921 15.372C36.425 15.48 36.857 15.666 37.217 15.93C37.589 16.194 37.877 16.536 38.081 16.956C38.285 17.376 38.387 17.892 38.387 18.504C38.387 19.428 38.147 20.166 37.667 20.718C37.187 21.27 36.545 21.648 35.741 21.852L38.747 27H37.037L34.193 22.014H32.087V27H30.593ZM32.087 20.79H34.049C34.973 20.79 35.675 20.604 36.155 20.232C36.647 19.848 36.893 19.272 36.893 18.504C36.893 17.724 36.647 17.178 36.155 16.866C35.675 16.554 34.973 16.398 34.049 16.398H32.087V20.79ZM41.6379 27V15.192H48.9459V16.452H43.1499V20.16H48.0459V21.438H43.1499V25.722H49.1259V27H41.6379Z" fill="#676C79"></path> <rect x="0.5" y="0.5" width="68" height="41" stroke="#7FE1E5"></rect> </svg> 