<?xml version="1.0" encoding="UTF-8"?> <svg xmlns="http://www.w3.org/2000/svg" width="209" height="42" viewBox="0 0 209 42" fill="none"> <path d="M23.49 27.216C22.626 27.216 21.828 27.06 21.096 26.748C20.376 26.436 19.746 26.01 19.206 25.47L20.106 24.426C20.55 24.87 21.066 25.23 21.654 25.506C22.242 25.77 22.878 25.902 23.562 25.902C24.378 25.902 25.008 25.728 25.452 25.38C25.908 25.032 26.136 24.582 26.136 24.03C26.136 23.718 26.082 23.454 25.974 23.238C25.866 23.022 25.716 22.836 25.524 22.68C25.332 22.524 25.104 22.386 24.84 22.266C24.588 22.146 24.312 22.02 24.012 21.888L22.32 21.15C22.02 21.03 21.72 20.886 21.42 20.718C21.12 20.55 20.844 20.346 20.592 20.106C20.352 19.866 20.154 19.584 19.998 19.26C19.842 18.924 19.764 18.54 19.764 18.108C19.764 17.664 19.86 17.25 20.052 16.866C20.244 16.482 20.508 16.152 20.844 15.876C21.192 15.588 21.6 15.366 22.068 15.21C22.548 15.054 23.07 14.976 23.634 14.976C24.378 14.976 25.062 15.114 25.686 15.39C26.31 15.654 26.838 16.002 27.27 16.434L26.478 17.406C26.094 17.058 25.668 16.788 25.2 16.596C24.732 16.392 24.192 16.29 23.58 16.29C22.896 16.29 22.344 16.446 21.924 16.758C21.504 17.058 21.294 17.478 21.294 18.018C21.294 18.306 21.354 18.552 21.474 18.756C21.606 18.948 21.768 19.122 21.96 19.278C22.164 19.422 22.392 19.548 22.644 19.656C22.896 19.764 23.148 19.872 23.4 19.98L25.056 20.7C25.416 20.844 25.752 21.012 26.064 21.204C26.388 21.384 26.664 21.6 26.892 21.852C27.132 22.092 27.318 22.38 27.45 22.716C27.594 23.04 27.666 23.418 27.666 23.85C27.666 24.318 27.57 24.756 27.378 25.164C27.186 25.572 26.91 25.932 26.55 26.244C26.19 26.544 25.752 26.784 25.236 26.964C24.72 27.132 24.138 27.216 23.49 27.216ZM30.845 27V15.192L38.153 15.192V16.452H32.357V20.16H37.253V21.438H32.357V25.722H38.333V27H30.845ZM41.0619 27V15.192H42.7179L46.4979 22.608L47.6319 25.056H47.6679C47.6439 24.468 47.6019 23.856 47.5419 23.22C47.4939 22.572 47.4699 21.936 47.4699 21.312V15.192H48.9099V27H47.2539L43.4739 19.584L42.3399 17.136H42.3039C42.3279 17.748 42.3639 18.366 42.4119 18.99C42.4719 19.602 42.5019 20.214 42.5019 20.826V27H41.0619ZM52.0889 27V25.722H55.0229V16.452H52.0889V15.192H59.4689V16.452L56.5349 16.452V25.722H59.4689V27H52.0889ZM66.5719 27.216C65.8999 27.216 65.2879 27.078 64.7359 26.802C64.1839 26.514 63.7039 26.106 63.2959 25.578C62.8999 25.05 62.5879 24.408 62.3599 23.652C62.1439 22.884 62.0359 22.014 62.0359 21.042C62.0359 20.094 62.1439 19.242 62.3599 18.486C62.5879 17.73 62.8999 17.094 63.2959 16.578C63.7039 16.062 64.1839 15.666 64.7359 15.39C65.2879 15.114 65.8999 14.976 66.5719 14.976C67.2319 14.976 67.8379 15.114 68.3899 15.39C68.9539 15.666 69.4339 16.062 69.8299 16.578C70.2379 17.094 70.5499 17.73 70.7659 18.486C70.9939 19.242 71.1079 20.094 71.1079 21.042C71.1079 22.014 70.9939 22.884 70.7659 23.652C70.5499 24.408 70.2379 25.05 69.8299 25.578C69.4339 26.106 68.9539 26.514 68.3899 26.802C67.8379 27.078 67.2319 27.216 66.5719 27.216ZM66.5719 25.902C67.0159 25.902 67.4239 25.794 67.7959 25.578C68.1679 25.35 68.4799 25.026 68.7319 24.606C68.9959 24.186 69.1999 23.676 69.3439 23.076C69.4879 22.476 69.5599 21.798 69.5599 21.042C69.5599 20.298 69.4879 19.632 69.3439 19.044C69.1999 18.456 68.9959 17.958 68.7319 17.55C68.4799 17.142 68.1679 16.83 67.7959 16.614C67.4239 16.398 67.0159 16.29 66.5719 16.29C66.1159 16.29 65.7019 16.398 65.3299 16.614C64.9699 16.83 64.6579 17.142 64.3939 17.55C64.1419 17.958 63.9439 18.456 63.7999 19.044C63.6559 19.632 63.5839 20.298 63.5839 21.042C63.5839 21.798 63.6559 22.476 63.7999 23.076C63.9439 23.676 64.1419 24.186 64.3939 24.606C64.6579 25.026 64.9699 25.35 65.3299 25.578C65.7019 25.794 66.1159 25.902 66.5719 25.902ZM73.7648 27V15.192H77.4368C78.0368 15.192 78.5888 15.252 79.0928 15.372C79.5968 15.48 80.0288 15.666 80.3888 15.93C80.7608 16.194 81.0488 16.536 81.2528 16.956C81.4568 17.376 81.5588 17.892 81.5588 18.504C81.5588 19.428 81.3188 20.166 80.8388 20.718C80.3588 21.27 79.7168 21.648 78.9128 21.852L81.9188 27H80.2088L77.3648 22.014H75.2588V27H73.7648ZM75.2588 20.79H77.2208C78.1448 20.79 78.8468 20.604 79.3268 20.232C79.8188 19.848 80.0648 19.272 80.0648 18.504C80.0648 17.724 79.8188 17.178 79.3268 16.866C78.8468 16.554 78.1448 16.398 77.2208 16.398H75.2588V20.79ZM95.1168 27V15.192H98.0328C99.8208 15.192 101.177 15.696 102.101 16.704C103.037 17.712 103.505 19.158 103.505 21.042C103.505 22.926 103.037 24.39 102.101 25.434C101.177 26.478 99.8448 27 98.1048 27L95.1168 27ZM96.6108 25.776H97.9248C99.2808 25.776 100.289 25.362 100.949 24.534C101.621 23.706 101.957 22.542 101.957 21.042C101.957 19.542 101.621 18.396 100.949 17.604C100.289 16.812 99.2808 16.416 97.9248 16.416H96.6108V25.776ZM106.396 27V15.192H113.704V16.452H107.908V20.16H112.804V21.438H107.908V25.722H113.884V27H106.396ZM119.673 27L115.911 15.192H117.495L119.403 21.564C119.607 22.272 119.793 22.926 119.961 23.526C120.129 24.126 120.321 24.774 120.537 25.47H120.609C120.717 25.122 120.819 24.792 120.915 24.48C121.011 24.156 121.101 23.838 121.185 23.526C121.281 23.214 121.371 22.896 121.455 22.572C121.551 22.248 121.647 21.912 121.743 21.564L123.633 15.192H125.163L121.419 27H119.673ZM127.982 27V15.192H135.29V16.452H129.494V20.16H134.39V21.438H129.494V25.722H135.47V27H127.982ZM139.135 27V15.192H140.611V25.722H146.461V27H139.135ZM152.916 27.216C152.244 27.216 151.632 27.078 151.08 26.802C150.528 26.514 150.048 26.106 149.64 25.578C149.244 25.05 148.932 24.408 148.704 23.652C148.488 22.884 148.38 22.014 148.38 21.042C148.38 20.094 148.488 19.242 148.704 18.486C148.932 17.73 149.244 17.094 149.64 16.578C150.048 16.062 150.528 15.666 151.08 15.39C151.632 15.114 152.244 14.976 152.916 14.976C153.576 14.976 154.182 15.114 154.734 15.39C155.298 15.666 155.778 16.062 156.174 16.578C156.582 17.094 156.894 17.73 157.11 18.486C157.338 19.242 157.452 20.094 157.452 21.042C157.452 22.014 157.338 22.884 157.11 23.652C156.894 24.408 156.582 25.05 156.174 25.578C155.778 26.106 155.298 26.514 154.734 26.802C154.182 27.078 153.576 27.216 152.916 27.216ZM152.916 25.902C153.36 25.902 153.768 25.794 154.14 25.578C154.512 25.35 154.824 25.026 155.076 24.606C155.34 24.186 155.544 23.676 155.688 23.076C155.832 22.476 155.904 21.798 155.904 21.042C155.904 20.298 155.832 19.632 155.688 19.044C155.544 18.456 155.34 17.958 155.076 17.55C154.824 17.142 154.512 16.83 154.14 16.614C153.768 16.398 153.36 16.29 152.916 16.29C152.46 16.29 152.046 16.398 151.674 16.614C151.314 16.83 151.002 17.142 150.738 17.55C150.486 17.958 150.288 18.456 150.144 19.044C150 19.632 149.928 20.298 149.928 21.042C149.928 21.798 150 22.476 150.144 23.076C150.288 23.676 150.486 24.186 150.738 24.606C151.002 25.026 151.314 25.35 151.674 25.578C152.046 25.794 152.46 25.902 152.916 25.902ZM160.145 27V15.192H163.709C164.357 15.192 164.951 15.252 165.491 15.372C166.031 15.492 166.493 15.69 166.877 15.966C167.261 16.23 167.555 16.584 167.759 17.028C167.975 17.472 168.083 18.018 168.083 18.666C168.083 19.29 167.975 19.83 167.759 20.286C167.555 20.742 167.255 21.12 166.859 21.42C166.475 21.72 166.013 21.948 165.473 22.104C164.945 22.248 164.357 22.32 163.709 22.32H161.639V27H160.145ZM161.639 21.096H163.529C164.573 21.096 165.341 20.904 165.833 20.52C166.325 20.124 166.571 19.506 166.571 18.666C166.571 17.814 166.319 17.226 165.815 16.902C165.311 16.566 164.549 16.398 163.529 16.398H161.639V21.096ZM171.154 27V15.192H178.462V16.452H172.666V20.16H177.562V21.438H172.666V25.722H178.642V27H171.154ZM181.695 27V15.192H185.367C185.967 15.192 186.519 15.252 187.023 15.372C187.527 15.48 187.959 15.666 188.319 15.93C188.691 16.194 188.979 16.536 189.183 16.956C189.387 17.376 189.489 17.892 189.489 18.504C189.489 19.428 189.249 20.166 188.769 20.718C188.289 21.27 187.647 21.648 186.843 21.852L189.849 27H188.139L185.295 22.014H183.189V27H181.695ZM183.189 20.79H185.151C186.075 20.79 186.777 20.604 187.257 20.232C187.749 19.848 187.995 19.272 187.995 18.504C187.995 17.724 187.749 17.178 187.257 16.866C186.777 16.554 186.075 16.398 185.151 16.398H183.189V20.79Z" fill="#676C79"></path> <rect x="0.5" y="0.5" width="208" height="41" stroke="#D4D9E8"></rect> </svg> 