<?xml version="1.0" encoding="UTF-8"?> <svg xmlns="http://www.w3.org/2000/svg" width="104" height="40" viewBox="0 0 104 40" fill="none"> <path d="M20.128 26V15.504H26.576V16.624H21.472V20.176H25.792V21.296H21.472V26H20.128ZM29.1138 26V24.864H31.7218V16.624H29.1138V15.504H35.6737V16.624H33.0658V24.864H35.6737V26H29.1138ZM38.4995 26V15.504H39.9715L43.3315 22.096L44.3395 24.272H44.3715C44.3502 23.7493 44.3128 23.2053 44.2595 22.64C44.2168 22.064 44.1955 21.4987 44.1955 20.944V15.504H45.4755V26H44.0035L40.6435 19.408L39.6355 17.232H39.6035C39.6248 17.776 39.6568 18.3253 39.6995 18.88C39.7528 19.424 39.7795 19.968 39.7795 20.512V26H38.4995ZM50.9093 26V16.624H47.4533V15.504H55.7093V16.624H52.2533V26H50.9093ZM58.199 26V15.504H64.695V16.624H59.543V19.92H63.895V21.056H59.543V24.864H64.855V26H58.199ZM71.5848 26.192C70.9341 26.192 70.3314 26.0693 69.7768 25.824C69.2221 25.5787 68.7368 25.2267 68.3207 24.768C67.9154 24.2987 67.5954 23.728 67.3608 23.056C67.1261 22.3733 67.0088 21.6053 67.0088 20.752C67.0088 19.9093 67.1261 19.152 67.3608 18.48C67.5954 17.808 67.9208 17.2373 68.3368 16.768C68.7528 16.2987 69.2488 15.9413 69.8248 15.696C70.4008 15.44 71.0301 15.312 71.7128 15.312C72.3421 15.312 72.8968 15.44 73.3768 15.696C73.8674 15.952 74.2674 16.2507 74.5768 16.592L73.8248 17.44C73.5474 17.152 73.2381 16.9227 72.8968 16.752C72.5554 16.5707 72.1608 16.48 71.7128 16.48C71.2114 16.48 70.7528 16.5813 70.3368 16.784C69.9314 16.976 69.5848 17.2587 69.2968 17.632C69.0088 17.9947 68.7848 18.4373 68.6248 18.96C68.4648 19.4827 68.3848 20.0693 68.3848 20.72C68.3848 21.3813 68.4648 21.9787 68.6248 22.512C68.7848 23.0347 69.0088 23.4827 69.2968 23.856C69.5848 24.2293 69.9314 24.5173 70.3368 24.72C70.7528 24.9227 71.2114 25.024 71.7128 25.024C72.1928 25.024 72.6194 24.9227 72.9928 24.72C73.3768 24.5173 73.7394 24.2293 74.0808 23.856L74.8328 24.672C74.4168 25.152 73.9474 25.5253 73.4248 25.792C72.9021 26.0587 72.2888 26.192 71.5848 26.192ZM76.8265 26V15.504H78.1705V19.904H82.5545V15.504H83.8985V26H82.5545V21.056H78.1705V26H76.8265Z" fill="#676C79"></path> <rect x="0.5" y="0.5" width="103" height="39" stroke="#8CA6EA"></rect> </svg> 