<?xml version="1.0" encoding="UTF-8"?> <svg xmlns="http://www.w3.org/2000/svg" width="242" height="42" viewBox="0 0 242 42" fill="none"> <path d="M19.566 27V15.192H22.482C24.27 15.192 25.626 15.696 26.55 16.704C27.486 17.712 27.954 19.158 27.954 21.042C27.954 22.926 27.486 24.39 26.55 25.434C25.626 26.478 24.294 27 22.554 27H19.566ZM21.06 25.776H22.374C23.73 25.776 24.738 25.362 25.398 24.534C26.07 23.706 26.406 22.542 26.406 21.042C26.406 19.542 26.07 18.396 25.398 17.604C24.738 16.812 23.73 16.416 22.374 16.416H21.06V25.776ZM30.845 27V15.192H38.153V16.452H32.357V20.16H37.253V21.438H32.357V25.722H38.333V27H30.845ZM44.1219 27L40.3599 15.192H41.9439L43.8519 21.564C44.0559 22.272 44.2419 22.926 44.4099 23.526C44.5779 24.126 44.7699 24.774 44.9859 25.47H45.0579C45.1659 25.122 45.2679 24.792 45.3639 24.48C45.4599 24.156 45.5499 23.838 45.6339 23.526C45.7299 23.214 45.8199 22.896 45.9039 22.572C45.9999 22.248 46.0959 21.912 46.1919 21.564L48.0819 15.192H49.6119L45.8679 27H44.1219ZM52.4309 27V15.192H59.7389V16.452H53.9429V20.16H58.8389V21.438H53.9429V25.722H59.9189V27H52.4309ZM63.5839 27V15.192H65.0599V25.722H70.9099V27H63.5839ZM77.3648 27.216C76.6928 27.216 76.0808 27.078 75.5288 26.802C74.9768 26.514 74.4968 26.106 74.0888 25.578C73.6928 25.05 73.3808 24.408 73.1528 23.652C72.9368 22.884 72.8288 22.014 72.8288 21.042C72.8288 20.094 72.9368 19.242 73.1528 18.486C73.3808 17.73 73.6928 17.094 74.0888 16.578C74.4968 16.062 74.9768 15.666 75.5288 15.39C76.0808 15.114 76.6928 14.976 77.3648 14.976C78.0248 14.976 78.6308 15.114 79.1828 15.39C79.7468 15.666 80.2268 16.062 80.6228 16.578C81.0308 17.094 81.3428 17.73 81.5588 18.486C81.7868 19.242 81.9008 20.094 81.9008 21.042C81.9008 22.014 81.7868 22.884 81.5588 23.652C81.3428 24.408 81.0308 25.05 80.6228 25.578C80.2268 26.106 79.7468 26.514 79.1828 26.802C78.6308 27.078 78.0248 27.216 77.3648 27.216ZM77.3648 25.902C77.8088 25.902 78.2168 25.794 78.5888 25.578C78.9608 25.35 79.2728 25.026 79.5248 24.606C79.7888 24.186 79.9928 23.676 80.1368 23.076C80.2808 22.476 80.3528 21.798 80.3528 21.042C80.3528 20.298 80.2808 19.632 80.1368 19.044C79.9928 18.456 79.7888 17.958 79.5248 17.55C79.2728 17.142 78.9608 16.83 78.5888 16.614C78.2168 16.398 77.8088 16.29 77.3648 16.29C76.9088 16.29 76.4948 16.398 76.1228 16.614C75.7628 16.83 75.4508 17.142 75.1868 17.55C74.9348 17.958 74.7368 18.456 74.5928 19.044C74.4488 19.632 74.3768 20.298 74.3768 21.042C74.3768 21.798 74.4488 22.476 74.5928 23.076C74.7368 23.676 74.9348 24.186 75.1868 24.606C75.4508 25.026 75.7628 25.35 76.1228 25.578C76.4948 25.794 76.9088 25.902 77.3648 25.902ZM84.5938 27V15.192H88.1578C88.8058 15.192 89.3998 15.252 89.9398 15.372C90.4798 15.492 90.9418 15.69 91.3258 15.966C91.7098 16.23 92.0038 16.584 92.2078 17.028C92.4238 17.472 92.5318 18.018 92.5318 18.666C92.5318 19.29 92.4238 19.83 92.2078 20.286C92.0038 20.742 91.7038 21.12 91.3078 21.42C90.9238 21.72 90.4618 21.948 89.9218 22.104C89.3938 22.248 88.8058 22.32 88.1578 22.32H86.0878V27H84.5938ZM86.0878 21.096H87.9778C89.0218 21.096 89.7898 20.904 90.2818 20.52C90.7738 20.124 91.0198 19.506 91.0198 18.666C91.0198 17.814 90.7678 17.226 90.2638 16.902C89.7598 16.566 88.9978 16.398 87.9778 16.398H86.0878V21.096ZM95.6028 27V15.192H102.911V16.452H97.1148V20.16H102.011V21.438H97.1148V25.722H103.091V27H95.6028ZM106.144 27V15.192H109.816C110.416 15.192 110.968 15.252 111.472 15.372C111.976 15.48 112.408 15.666 112.768 15.93C113.14 16.194 113.428 16.536 113.632 16.956C113.836 17.376 113.938 17.892 113.938 18.504C113.938 19.428 113.698 20.166 113.218 20.718C112.738 21.27 112.096 21.648 111.292 21.852L114.298 27H112.588L109.744 22.014H107.638V27H106.144ZM107.638 20.79H109.6C110.524 20.79 111.226 20.604 111.706 20.232C112.198 19.848 112.444 19.272 112.444 18.504C112.444 17.724 112.198 17.178 111.706 16.866C111.226 16.554 110.524 16.398 109.6 16.398H107.638V20.79ZM127.73 27V15.192H131.402C132.002 15.192 132.554 15.252 133.058 15.372C133.562 15.48 133.994 15.666 134.354 15.93C134.726 16.194 135.014 16.536 135.218 16.956C135.422 17.376 135.524 17.892 135.524 18.504C135.524 19.428 135.284 20.166 134.804 20.718C134.324 21.27 133.682 21.648 132.878 21.852L135.884 27H134.174L131.33 22.014H129.224V27H127.73ZM129.224 20.79H131.186C132.11 20.79 132.812 20.604 133.292 20.232C133.784 19.848 134.03 19.272 134.03 18.504C134.03 17.724 133.784 17.178 133.292 16.866C132.812 16.554 132.11 16.398 131.186 16.398H129.224V20.79ZM138.775 27V15.192H146.083V16.452H140.287V20.16H145.183V21.438H140.287V25.722H146.263V27H138.775ZM149.928 27V15.192H151.404V25.722H157.254V27H149.928ZM162.485 20.394L161.927 22.194H165.455L164.897 20.394C164.693 19.734 164.489 19.08 164.285 18.432C164.093 17.772 163.907 17.1 163.727 16.416H163.655C163.463 17.1 163.271 17.772 163.079 18.432C162.887 19.08 162.689 19.734 162.485 20.394ZM158.885 27L162.863 15.192H164.555L168.533 27H166.949L165.833 23.4H161.549L160.415 27H158.885ZM173.746 27V16.452H169.858V15.192H179.146V16.452H175.258V27H173.746ZM181.605 27V25.722H184.539V16.452H181.605V15.192H188.985V16.452H186.051V25.722H188.985V27H181.605ZM196.088 27.216C195.416 27.216 194.804 27.078 194.252 26.802C193.7 26.514 193.22 26.106 192.812 25.578C192.416 25.05 192.104 24.408 191.875 23.652C191.66 22.884 191.552 22.014 191.552 21.042C191.552 20.094 191.66 19.242 191.875 18.486C192.104 17.73 192.416 17.094 192.812 16.578C193.22 16.062 193.7 15.666 194.252 15.39C194.804 15.114 195.416 14.976 196.088 14.976C196.748 14.976 197.354 15.114 197.906 15.39C198.47 15.666 198.95 16.062 199.346 16.578C199.754 17.094 200.066 17.73 200.282 18.486C200.51 19.242 200.624 20.094 200.624 21.042C200.624 22.014 200.51 22.884 200.282 23.652C200.066 24.408 199.754 25.05 199.346 25.578C198.95 26.106 198.47 26.514 197.906 26.802C197.354 27.078 196.748 27.216 196.088 27.216ZM196.088 25.902C196.532 25.902 196.94 25.794 197.312 25.578C197.684 25.35 197.996 25.026 198.248 24.606C198.512 24.186 198.716 23.676 198.86 23.076C199.004 22.476 199.076 21.798 199.076 21.042C199.076 20.298 199.004 19.632 198.86 19.044C198.716 18.456 198.512 17.958 198.248 17.55C197.996 17.142 197.684 16.83 197.312 16.614C196.94 16.398 196.532 16.29 196.088 16.29C195.632 16.29 195.218 16.398 194.846 16.614C194.486 16.83 194.174 17.142 193.91 17.55C193.658 17.958 193.46 18.456 193.316 19.044C193.172 19.632 193.1 20.298 193.1 21.042C193.1 21.798 193.172 22.476 193.316 23.076C193.46 23.676 193.658 24.186 193.91 24.606C194.174 25.026 194.486 25.35 194.846 25.578C195.218 25.794 195.632 25.902 196.088 25.902ZM202.956 27V15.192H204.612L208.392 22.608L209.526 25.056H209.562C209.538 24.468 209.496 23.856 209.436 23.22C209.388 22.572 209.364 21.936 209.364 21.312V15.192H210.804V27H209.148L205.368 19.584L204.234 17.136H204.198C204.222 17.748 204.258 18.366 204.306 18.99C204.366 19.602 204.396 20.214 204.396 20.826V27H202.956ZM217.763 27.216C216.899 27.216 216.101 27.06 215.369 26.748C214.649 26.436 214.019 26.01 213.479 25.47L214.379 24.426C214.823 24.87 215.339 25.23 215.927 25.506C216.515 25.77 217.151 25.902 217.835 25.902C218.651 25.902 219.281 25.728 219.725 25.38C220.181 25.032 220.409 24.582 220.409 24.03C220.409 23.718 220.355 23.454 220.247 23.238C220.139 23.022 219.989 22.836 219.797 22.68C219.605 22.524 219.377 22.386 219.113 22.266C218.861 22.146 218.585 22.02 218.285 21.888L216.593 21.15C216.293 21.03 215.993 20.886 215.693 20.718C215.393 20.55 215.117 20.346 214.865 20.106C214.625 19.866 214.427 19.584 214.271 19.26C214.115 18.924 214.037 18.54 214.037 18.108C214.037 17.664 214.133 17.25 214.325 16.866C214.517 16.482 214.781 16.152 215.117 15.876C215.465 15.588 215.873 15.366 216.341 15.21C216.821 15.054 217.343 14.976 217.907 14.976C218.651 14.976 219.335 15.114 219.959 15.39C220.583 15.654 221.111 16.002 221.543 16.434L220.751 17.406C220.367 17.058 219.941 16.788 219.473 16.596C219.005 16.392 218.465 16.29 217.853 16.29C217.169 16.29 216.617 16.446 216.197 16.758C215.777 17.058 215.567 17.478 215.567 18.018C215.567 18.306 215.627 18.552 215.747 18.756C215.879 18.948 216.041 19.122 216.233 19.278C216.437 19.422 216.665 19.548 216.917 19.656C217.169 19.764 217.421 19.872 217.673 19.98L219.329 20.7C219.689 20.844 220.025 21.012 220.337 21.204C220.661 21.384 220.937 21.6 221.165 21.852C221.405 22.092 221.591 22.38 221.723 22.716C221.867 23.04 221.939 23.418 221.939 23.85C221.939 24.318 221.843 24.756 221.651 25.164C221.459 25.572 221.183 25.932 220.823 26.244C220.463 26.544 220.025 26.784 219.509 26.964C218.993 27.132 218.411 27.216 217.763 27.216Z" fill="#676C79"></path> <rect x="0.5" y="0.5" width="241" height="41" stroke="#D4D9E8"></rect> </svg> 