<?xml version="1.0" encoding="UTF-8"?> <svg xmlns="http://www.w3.org/2000/svg" width="94" height="40" viewBox="0 0 94 40" fill="none"> <path d="M19.824 26V15.504H26.32V16.624H21.168V19.92H25.52V21.056H21.168V24.864H26.48V26H19.824ZM28.9858 26V15.504H31.5778C33.1671 15.504 34.3724 15.952 35.1938 16.848C36.0258 17.744 36.4418 19.0293 36.4418 20.704C36.4418 22.3787 36.0258 23.68 35.1938 24.608C34.3724 25.536 33.1884 26 31.6418 26H28.9858ZM30.3138 24.912H31.4818C32.6871 24.912 33.5831 24.544 34.1698 23.808C34.7671 23.072 35.0658 22.0373 35.0658 20.704C35.0658 19.3707 34.7671 18.352 34.1698 17.648C33.5831 16.944 32.6871 16.592 31.4818 16.592H30.3138V24.912ZM41.3155 26V16.624H37.8595V15.504H46.1155V16.624H42.6595V26H41.3155ZM48.6053 26V15.504H55.1013V16.624H49.9493V19.92H54.3013V21.056H49.9493V24.864H55.2613V26H48.6053ZM61.991 26.192C61.3403 26.192 60.7377 26.0693 60.183 25.824C59.6283 25.5787 59.143 25.2267 58.727 24.768C58.3217 24.2987 58.0017 23.728 57.767 23.056C57.5323 22.3733 57.415 21.6053 57.415 20.752C57.415 19.9093 57.5323 19.152 57.767 18.48C58.0017 17.808 58.327 17.2373 58.743 16.768C59.159 16.2987 59.655 15.9413 60.231 15.696C60.807 15.44 61.4363 15.312 62.119 15.312C62.7483 15.312 63.303 15.44 63.783 15.696C64.2737 15.952 64.6737 16.2507 64.983 16.592L64.231 17.44C63.9537 17.152 63.6443 16.9227 63.303 16.752C62.9617 16.5707 62.567 16.48 62.119 16.48C61.6177 16.48 61.159 16.5813 60.743 16.784C60.3377 16.976 59.991 17.2587 59.703 17.632C59.415 17.9947 59.191 18.4373 59.031 18.96C58.871 19.4827 58.791 20.0693 58.791 20.72C58.791 21.3813 58.871 21.9787 59.031 22.512C59.191 23.0347 59.415 23.4827 59.703 23.856C59.991 24.2293 60.3377 24.5173 60.743 24.72C61.159 24.9227 61.6177 25.024 62.119 25.024C62.599 25.024 63.0257 24.9227 63.399 24.72C63.783 24.5173 64.1457 24.2293 64.487 23.856L65.239 24.672C64.823 25.152 64.3537 25.5253 63.831 25.792C63.3083 26.0587 62.695 26.192 61.991 26.192ZM67.2328 26V15.504H68.5768V19.904H72.9608V15.504H74.3048V26H72.9608V21.056H68.5768V26H67.2328Z" fill="#676C79"></path> <rect x="0.5" y="0.5" width="93" height="39" stroke="#8CA6EA"></rect> </svg> 