<?xml version="1.0" encoding="UTF-8"?> <svg xmlns="http://www.w3.org/2000/svg" width="104" height="40" viewBox="0 0 104 40" fill="none"> <path d="M19.264 26V15.504H20.608V19.904H24.992V15.504H26.336V26H24.992V21.056H20.608V26H19.264ZM29.1938 26V15.504H32.4578C32.9911 15.504 33.4818 15.5573 33.9298 15.664C34.3778 15.76 34.7618 15.9253 35.0818 16.16C35.4124 16.3947 35.6684 16.6987 35.8498 17.072C36.0311 17.4453 36.1218 17.904 36.1218 18.448C36.1218 19.2693 35.9084 19.9253 35.4818 20.416C35.0551 20.9067 34.4844 21.2427 33.7698 21.424L36.4418 26H34.9218L32.3938 21.568H30.5218V26H29.1938ZM30.5218 20.48H32.2658C33.0871 20.48 33.7111 20.3147 34.1378 19.984C34.5751 19.6427 34.7938 19.1307 34.7938 18.448C34.7938 17.7547 34.5751 17.2693 34.1378 16.992C33.7111 16.7147 33.0871 16.576 32.2658 16.576H30.5218V20.48ZM50.9093 26V16.624H47.4533V15.504H55.7093V16.624H52.2533V26H50.9093ZM58.199 26V15.504H64.695V16.624H59.543V19.92H63.895V21.056H59.543V24.864H64.855V26H58.199ZM71.5848 26.192C70.9341 26.192 70.3314 26.0693 69.7768 25.824C69.2221 25.5787 68.7368 25.2267 68.3207 24.768C67.9154 24.2987 67.5954 23.728 67.3608 23.056C67.1261 22.3733 67.0088 21.6053 67.0088 20.752C67.0088 19.9093 67.1261 19.152 67.3608 18.48C67.5954 17.808 67.9208 17.2373 68.3368 16.768C68.7528 16.2987 69.2488 15.9413 69.8248 15.696C70.4008 15.44 71.0301 15.312 71.7128 15.312C72.3421 15.312 72.8968 15.44 73.3768 15.696C73.8674 15.952 74.2674 16.2507 74.5768 16.592L73.8248 17.44C73.5474 17.152 73.2381 16.9227 72.8968 16.752C72.5554 16.5707 72.1608 16.48 71.7128 16.48C71.2114 16.48 70.7528 16.5813 70.3368 16.784C69.9314 16.976 69.5848 17.2587 69.2968 17.632C69.0088 17.9947 68.7848 18.4373 68.6248 18.96C68.4648 19.4827 68.3848 20.0693 68.3848 20.72C68.3848 21.3813 68.4648 21.9787 68.6248 22.512C68.7848 23.0347 69.0088 23.4827 69.2968 23.856C69.5848 24.2293 69.9314 24.5173 70.3368 24.72C70.7528 24.9227 71.2114 25.024 71.7128 25.024C72.1928 25.024 72.6194 24.9227 72.9928 24.72C73.3768 24.5173 73.7394 24.2293 74.0808 23.856L74.8328 24.672C74.4168 25.152 73.9474 25.5253 73.4248 25.792C72.9021 26.0587 72.2888 26.192 71.5848 26.192ZM76.8265 26V15.504H78.1705V19.904H82.5545V15.504H83.8985V26H82.5545V21.056H78.1705V26H76.8265Z" fill="#676C79"></path> <rect x="0.5" y="0.5" width="103" height="39" stroke="#A48DEB"></rect> </svg> 