<?xml version="1.0" encoding="UTF-8"?> <svg xmlns="http://www.w3.org/2000/svg" width="101" height="42" viewBox="0 0 101 42" fill="none"> <path d="M24.066 27.216C23.322 27.216 22.638 27.078 22.014 26.802C21.39 26.526 20.85 26.13 20.394 25.614C19.938 25.086 19.584 24.444 19.332 23.688C19.08 22.92 18.954 22.056 18.954 21.096C18.954 20.148 19.08 19.296 19.332 18.54C19.596 17.772 19.956 17.13 20.412 16.614C20.88 16.086 21.432 15.684 22.068 15.408C22.716 15.12 23.424 14.976 24.192 14.976C24.588 14.976 24.948 15.018 25.272 15.102C25.596 15.186 25.89 15.3 26.154 15.444C26.43 15.576 26.67 15.726 26.874 15.894C27.09 16.062 27.282 16.236 27.45 16.416L26.604 17.37C26.316 17.058 25.986 16.8 25.614 16.596C25.242 16.392 24.768 16.29 24.192 16.29C23.64 16.29 23.136 16.404 22.68 16.632C22.236 16.848 21.852 17.166 21.528 17.586C21.204 17.994 20.952 18.492 20.772 19.08C20.604 19.668 20.52 20.328 20.52 21.06C20.52 21.804 20.598 22.476 20.754 23.076C20.922 23.664 21.156 24.168 21.456 24.588C21.768 25.008 22.152 25.332 22.608 25.56C23.064 25.788 23.58 25.902 24.156 25.902C24.576 25.902 24.966 25.842 25.326 25.722C25.686 25.59 25.98 25.416 26.208 25.2V22.122H23.85V20.88H27.594V25.848C27.222 26.232 26.73 26.556 26.118 26.82C25.518 27.084 24.834 27.216 24.066 27.216ZM34.193 27.216C33.521 27.216 32.909 27.078 32.357 26.802C31.805 26.514 31.325 26.106 30.917 25.578C30.521 25.05 30.209 24.408 29.981 23.652C29.765 22.884 29.657 22.014 29.657 21.042C29.657 20.094 29.765 19.242 29.981 18.486C30.209 17.73 30.521 17.094 30.917 16.578C31.325 16.062 31.805 15.666 32.357 15.39C32.909 15.114 33.521 14.976 34.193 14.976C34.853 14.976 35.459 15.114 36.011 15.39C36.575 15.666 37.055 16.062 37.451 16.578C37.859 17.094 38.171 17.73 38.387 18.486C38.615 19.242 38.729 20.094 38.729 21.042C38.729 22.014 38.615 22.884 38.387 23.652C38.171 24.408 37.859 25.05 37.451 25.578C37.055 26.106 36.575 26.514 36.011 26.802C35.459 27.078 34.853 27.216 34.193 27.216ZM34.193 25.902C34.637 25.902 35.045 25.794 35.417 25.578C35.789 25.35 36.101 25.026 36.353 24.606C36.617 24.186 36.821 23.676 36.965 23.076C37.109 22.476 37.181 21.798 37.181 21.042C37.181 20.298 37.109 19.632 36.965 19.044C36.821 18.456 36.617 17.958 36.353 17.55C36.101 17.142 35.789 16.83 35.417 16.614C35.045 16.398 34.637 16.29 34.193 16.29C33.737 16.29 33.323 16.398 32.951 16.614C32.591 16.83 32.279 17.142 32.015 17.55C31.763 17.958 31.565 18.456 31.421 19.044C31.277 19.632 31.205 20.298 31.205 21.042C31.205 21.798 31.277 22.476 31.421 23.076C31.565 23.676 31.763 24.186 32.015 24.606C32.279 25.026 32.591 25.35 32.951 25.578C33.323 25.794 33.737 25.902 34.193 25.902ZM41.9979 27V15.192H43.4739V25.722H49.3239V27H41.9979ZM54.5549 20.394L53.9969 22.194H57.5249L56.9669 20.394C56.7629 19.734 56.5589 19.08 56.3549 18.432C56.1629 17.772 55.9769 17.1 55.7969 16.416H55.7249C55.5329 17.1 55.3409 17.772 55.1489 18.432C54.9569 19.08 54.7589 19.734 54.5549 20.394ZM50.9549 27L54.9329 15.192H56.6249L60.6029 27H59.0189L57.9029 23.4H53.6189L52.4849 27H50.9549ZM62.6479 27V15.192H64.3039L68.0839 22.608L69.2179 25.056H69.2539C69.2299 24.468 69.1879 23.856 69.1279 23.22C69.0799 22.572 69.0559 21.936 69.0559 21.312V15.192H70.4959V27H68.8399L65.0599 19.584L63.9259 17.136H63.8899C63.9139 17.748 63.9499 18.366 63.9979 18.99C64.0579 19.602 64.0879 20.214 64.0879 20.826V27H62.6479ZM78.0308 27.216C77.2868 27.216 76.6028 27.078 75.9788 26.802C75.3548 26.526 74.8148 26.13 74.3588 25.614C73.9028 25.086 73.5488 24.444 73.2968 23.688C73.0448 22.92 72.9188 22.056 72.9188 21.096C72.9188 20.148 73.0448 19.296 73.2968 18.54C73.5608 17.772 73.9208 17.13 74.3768 16.614C74.8448 16.086 75.3968 15.684 76.0328 15.408C76.6808 15.12 77.3888 14.976 78.1568 14.976C78.5528 14.976 78.9128 15.018 79.2368 15.102C79.5608 15.186 79.8548 15.3 80.1188 15.444C80.3948 15.576 80.6348 15.726 80.8388 15.894C81.0548 16.062 81.2468 16.236 81.4148 16.416L80.5688 17.37C80.2808 17.058 79.9508 16.8 79.5788 16.596C79.2068 16.392 78.7328 16.29 78.1568 16.29C77.6048 16.29 77.1008 16.404 76.6448 16.632C76.2008 16.848 75.8168 17.166 75.4928 17.586C75.1688 17.994 74.9168 18.492 74.7368 19.08C74.5688 19.668 74.4848 20.328 74.4848 21.06C74.4848 21.804 74.5628 22.476 74.7188 23.076C74.8868 23.664 75.1208 24.168 75.4208 24.588C75.7328 25.008 76.1168 25.332 76.5728 25.56C77.0288 25.788 77.5448 25.902 78.1208 25.902C78.5408 25.902 78.9308 25.842 79.2908 25.722C79.6508 25.59 79.9448 25.416 80.1728 25.2V22.122H77.8148V20.88H81.5588V25.848C81.1868 26.232 80.6948 26.556 80.0828 26.82C79.4828 27.084 78.7988 27.216 78.0308 27.216Z" fill="#676C79"></path> <rect x="0.5" y="0.5" width="100" height="41" stroke="#A48DEB"></rect> </svg> 