<?xml version="1.0" encoding="UTF-8"?> <svg xmlns="http://www.w3.org/2000/svg" width="16" height="16" viewBox="0 0 16 16" fill="none"> <path d="M11.6178 12.8608L12.7389 14.2785C12.4263 14.589 12.0119 14.8793 11.4955 15.1494C10.4085 15.7165 9.22633 16 7.94904 16C5.80212 16 3.94055 15.2101 2.36433 13.6304C0.78811 12.0506 0 10.1738 0 8C0 5.82616 0.78811 3.94937 2.36433 2.36962C3.94055 0.789874 5.80212 0 7.94904 0C10.2183 0 12.1274 0.742616 13.6764 2.22785C15.2255 3.71308 16 5.50211 16 7.59494C16 8.93165 15.6671 9.97806 15.0013 10.7342C14.3355 11.4768 13.4794 11.8481 12.4331 11.8481C11.6722 11.8481 11.0335 11.6321 10.5172 11.2C10.2862 11.011 10.1096 10.7882 9.98726 10.5316H9.88535C9.73588 10.8152 9.55924 11.038 9.35541 11.2C8.83907 11.6321 8.2344 11.8481 7.5414 11.8481C6.60382 11.8481 5.80892 11.497 5.15669 10.7949C4.50446 10.0928 4.17834 9.19494 4.17834 8.10127C4.17834 7.0076 4.50446 6.10971 5.15669 5.4076C5.80892 4.70549 6.60382 4.35443 7.5414 4.35443C8.08493 4.35443 8.54013 4.48945 8.90701 4.75949C9.0293 4.84051 9.18556 4.97553 9.3758 5.16456H9.47771V4.4557H11.414V8.81013C11.414 9.16118 11.5227 9.45148 11.7401 9.68101C11.9575 9.91055 12.2225 10.0253 12.535 10.0253C13.4862 10.0253 13.9618 9.21519 13.9618 7.59494C13.9618 6.00169 13.3911 4.65823 12.2497 3.56456C11.1083 2.47089 9.67474 1.92405 7.94904 1.92405C6.30488 1.92405 4.90531 2.51139 3.75032 3.68608C2.60892 4.84726 2.03822 6.28523 2.03822 8C2.03822 9.71477 2.60892 11.1595 3.75032 12.3342C4.90531 13.4954 6.30488 14.076 7.94904 14.076C8.9138 14.076 9.81741 13.8734 10.6599 13.4684C11.0403 13.2793 11.3597 13.0768 11.6178 12.8608ZM6.66497 9.43798C6.97749 9.76203 7.37155 9.92405 7.84713 9.92405C8.32272 9.92405 8.70998 9.76203 9.00892 9.43798C9.32144 9.10042 9.47771 8.65485 9.47771 8.10127C9.47771 7.54768 9.32144 7.10886 9.00892 6.78481C8.69639 6.44726 8.30913 6.27848 7.84713 6.27848C7.37155 6.27848 6.97749 6.44726 6.66497 6.78481C6.36603 7.10886 6.21656 7.54768 6.21656 8.10127C6.21656 8.65485 6.36603 9.10042 6.66497 9.43798Z" fill="#676C79"></path> </svg> 