<?xml version="1.0" encoding="UTF-8"?> <svg xmlns="http://www.w3.org/2000/svg" width="231" height="42" viewBox="0 0 231 42" fill="none"> <path d="M24.318 27.216C23.586 27.216 22.908 27.078 22.284 26.802C21.66 26.526 21.114 26.13 20.646 25.614C20.19 25.086 19.83 24.444 19.566 23.688C19.302 22.92 19.17 22.056 19.17 21.096C19.17 20.148 19.302 19.296 19.566 18.54C19.83 17.784 20.196 17.142 20.664 16.614C21.132 16.086 21.69 15.684 22.338 15.408C22.986 15.12 23.694 14.976 24.462 14.976C25.17 14.976 25.794 15.12 26.334 15.408C26.886 15.696 27.336 16.032 27.684 16.416L26.838 17.37C26.526 17.046 26.178 16.788 25.794 16.596C25.41 16.392 24.966 16.29 24.462 16.29C23.898 16.29 23.382 16.404 22.914 16.632C22.458 16.848 22.068 17.166 21.744 17.586C21.42 17.994 21.168 18.492 20.988 19.08C20.808 19.668 20.718 20.328 20.718 21.06C20.718 21.804 20.808 22.476 20.988 23.076C21.168 23.664 21.42 24.168 21.744 24.588C22.068 25.008 22.458 25.332 22.914 25.56C23.382 25.788 23.898 25.902 24.462 25.902C25.002 25.902 25.482 25.788 25.902 25.56C26.334 25.332 26.742 25.008 27.126 24.588L27.972 25.506C27.504 26.046 26.976 26.466 26.388 26.766C25.8 27.066 25.11 27.216 24.318 27.216ZM34.193 27.216C33.521 27.216 32.909 27.078 32.357 26.802C31.805 26.514 31.325 26.106 30.917 25.578C30.521 25.05 30.209 24.408 29.981 23.652C29.765 22.884 29.657 22.014 29.657 21.042C29.657 20.094 29.765 19.242 29.981 18.486C30.209 17.73 30.521 17.094 30.917 16.578C31.325 16.062 31.805 15.666 32.357 15.39C32.909 15.114 33.521 14.976 34.193 14.976C34.853 14.976 35.459 15.114 36.011 15.39C36.575 15.666 37.055 16.062 37.451 16.578C37.859 17.094 38.171 17.73 38.387 18.486C38.615 19.242 38.729 20.094 38.729 21.042C38.729 22.014 38.615 22.884 38.387 23.652C38.171 24.408 37.859 25.05 37.451 25.578C37.055 26.106 36.575 26.514 36.011 26.802C35.459 27.078 34.853 27.216 34.193 27.216ZM34.193 25.902C34.637 25.902 35.045 25.794 35.417 25.578C35.789 25.35 36.101 25.026 36.353 24.606C36.617 24.186 36.821 23.676 36.965 23.076C37.109 22.476 37.181 21.798 37.181 21.042C37.181 20.298 37.109 19.632 36.965 19.044C36.821 18.456 36.617 17.958 36.353 17.55C36.101 17.142 35.789 16.83 35.417 16.614C35.045 16.398 34.637 16.29 34.193 16.29C33.737 16.29 33.323 16.398 32.951 16.614C32.591 16.83 32.279 17.142 32.015 17.55C31.763 17.958 31.565 18.456 31.421 19.044C31.277 19.632 31.205 20.298 31.205 21.042C31.205 21.798 31.277 22.476 31.421 23.076C31.565 23.676 31.763 24.186 32.015 24.606C32.279 25.026 32.591 25.35 32.951 25.578C33.323 25.794 33.737 25.902 34.193 25.902ZM40.8819 27V15.192H42.7179L44.3739 20.232L44.9499 22.14H45.0219L45.5799 20.232L47.2539 15.192H49.0899V27H47.6499V21.096C47.6499 20.808 47.6559 20.478 47.6679 20.106C47.6919 19.722 47.7159 19.338 47.7399 18.954C47.7759 18.57 47.8059 18.198 47.8299 17.838C47.8539 17.478 47.8779 17.172 47.9019 16.92H47.8479L47.1819 19.224L45.4899 23.868H44.4099L42.7539 19.224L42.0699 16.92H42.0339C42.0579 17.172 42.0819 17.478 42.1059 17.838C42.1419 18.198 42.1719 18.57 42.1959 18.954C42.2199 19.338 42.2379 19.722 42.2499 20.106C42.2739 20.478 42.2859 20.808 42.2859 21.096V27H40.8819ZM52.2149 27V15.192H55.7789C56.4269 15.192 57.0209 15.252 57.5609 15.372C58.1009 15.492 58.5629 15.69 58.9469 15.966C59.3309 16.23 59.6249 16.584 59.8289 17.028C60.0449 17.472 60.1529 18.018 60.1529 18.666C60.1529 19.29 60.0449 19.83 59.8289 20.286C59.6249 20.742 59.3249 21.12 58.9289 21.42C58.5449 21.72 58.0829 21.948 57.5429 22.104C57.0149 22.248 56.4269 22.32 55.7789 22.32H53.7089V27H52.2149ZM53.7089 21.096H55.5989C56.6429 21.096 57.4109 20.904 57.9029 20.52C58.3949 20.124 58.6409 19.506 58.6409 18.666C58.6409 17.814 58.3889 17.226 57.8849 16.902C57.3809 16.566 56.6189 16.398 55.5989 16.398H53.7089V21.096ZM66.5899 27.216C66.0139 27.216 65.4799 27.132 64.9879 26.964C64.4959 26.796 64.0699 26.526 63.7099 26.154C63.3619 25.77 63.0859 25.284 62.8819 24.696C62.6899 24.108 62.5939 23.388 62.5939 22.536V15.192H64.1059V22.572C64.1059 23.184 64.1659 23.706 64.2859 24.138C64.4179 24.558 64.5919 24.9 64.8079 25.164C65.0359 25.416 65.2999 25.602 65.5999 25.722C65.8999 25.842 66.2299 25.902 66.5899 25.902C66.9499 25.902 67.2799 25.842 67.5799 25.722C67.8799 25.602 68.1439 25.416 68.3719 25.164C68.5999 24.9 68.7739 24.558 68.8939 24.138C69.0259 23.706 69.0919 23.184 69.0919 22.572V15.192H70.5499V22.536C70.5499 23.388 70.4479 24.108 70.2439 24.696C70.0519 25.284 69.7819 25.77 69.4339 26.154C69.0859 26.526 68.6659 26.796 68.1739 26.964C67.6939 27.132 67.1659 27.216 66.5899 27.216ZM76.6088 27V16.452H72.7208V15.192H82.0088V16.452H78.1208V27H76.6088ZM84.8098 27V15.192H92.1178V16.452H86.3218V20.16H91.2178V21.438H86.3218V25.722H92.2978V27H84.8098ZM95.3508 27V15.192H99.0228C99.6228 15.192 100.175 15.252 100.679 15.372C101.183 15.48 101.615 15.666 101.975 15.93C102.347 16.194 102.635 16.536 102.839 16.956C103.043 17.376 103.145 17.892 103.145 18.504C103.145 19.428 102.905 20.166 102.425 20.718C101.945 21.27 101.303 21.648 100.499 21.852L103.505 27H101.795L98.9508 22.014H96.8448V27H95.3508ZM96.8448 20.79H98.8068C99.7308 20.79 100.433 20.604 100.913 20.232C101.405 19.848 101.651 19.272 101.651 18.504C101.651 17.724 101.405 17.178 100.913 16.866C100.433 16.554 99.7308 16.398 98.8068 16.398H96.8448V20.79ZM120.627 27.216C119.763 27.216 118.965 27.06 118.233 26.748C117.513 26.436 116.883 26.01 116.343 25.47L117.243 24.426C117.687 24.87 118.203 25.23 118.791 25.506C119.379 25.77 120.015 25.902 120.699 25.902C121.515 25.902 122.145 25.728 122.589 25.38C123.045 25.032 123.273 24.582 123.273 24.03C123.273 23.718 123.219 23.454 123.111 23.238C123.003 23.022 122.853 22.836 122.661 22.68C122.469 22.524 122.241 22.386 121.977 22.266C121.725 22.146 121.449 22.02 121.149 21.888L119.457 21.15C119.157 21.03 118.857 20.886 118.557 20.718C118.257 20.55 117.981 20.346 117.729 20.106C117.489 19.866 117.291 19.584 117.135 19.26C116.979 18.924 116.901 18.54 116.901 18.108C116.901 17.664 116.997 17.25 117.189 16.866C117.381 16.482 117.645 16.152 117.981 15.876C118.329 15.588 118.737 15.366 119.205 15.21C119.685 15.054 120.207 14.976 120.771 14.976C121.515 14.976 122.199 15.114 122.823 15.39C123.447 15.654 123.975 16.002 124.407 16.434L123.615 17.406C123.231 17.058 122.805 16.788 122.337 16.596C121.869 16.392 121.329 16.29 120.717 16.29C120.033 16.29 119.481 16.446 119.061 16.758C118.641 17.058 118.431 17.478 118.431 18.018C118.431 18.306 118.491 18.552 118.611 18.756C118.743 18.948 118.905 19.122 119.097 19.278C119.301 19.422 119.529 19.548 119.781 19.656C120.033 19.764 120.285 19.872 120.537 19.98L122.193 20.7C122.553 20.844 122.889 21.012 123.201 21.204C123.525 21.384 123.801 21.6 124.029 21.852C124.269 22.092 124.455 22.38 124.587 22.716C124.731 23.04 124.803 23.418 124.803 23.85C124.803 24.318 124.707 24.756 124.515 25.164C124.323 25.572 124.047 25.932 123.687 26.244C123.327 26.544 122.889 26.784 122.373 26.964C121.857 27.132 121.275 27.216 120.627 27.216ZM132.248 27.216C131.516 27.216 130.838 27.078 130.214 26.802C129.59 26.526 129.044 26.13 128.576 25.614C128.12 25.086 127.76 24.444 127.496 23.688C127.232 22.92 127.1 22.056 127.1 21.096C127.1 20.148 127.232 19.296 127.496 18.54C127.76 17.784 128.126 17.142 128.594 16.614C129.062 16.086 129.62 15.684 130.268 15.408C130.916 15.12 131.624 14.976 132.392 14.976C133.1 14.976 133.724 15.12 134.264 15.408C134.816 15.696 135.266 16.032 135.614 16.416L134.768 17.37C134.456 17.046 134.108 16.788 133.724 16.596C133.34 16.392 132.896 16.29 132.392 16.29C131.828 16.29 131.312 16.404 130.844 16.632C130.388 16.848 129.998 17.166 129.674 17.586C129.35 17.994 129.098 18.492 128.918 19.08C128.738 19.668 128.648 20.328 128.648 21.06C128.648 21.804 128.738 22.476 128.918 23.076C129.098 23.664 129.35 24.168 129.674 24.588C129.998 25.008 130.388 25.332 130.844 25.56C131.312 25.788 131.828 25.902 132.392 25.902C132.932 25.902 133.412 25.788 133.832 25.56C134.264 25.332 134.672 25.008 135.056 24.588L135.902 25.506C135.434 26.046 134.906 26.466 134.318 26.766C133.73 27.066 133.04 27.216 132.248 27.216ZM138.433 27V25.722H141.367V16.452H138.433V15.192H145.813V16.452H142.879V25.722H145.813V27H138.433ZM149.568 27V15.192H156.876V16.452H151.08V20.16H155.976V21.438H151.08V25.722H157.056V27H149.568ZM159.785 27V15.192H161.441L165.221 22.608L166.355 25.056H166.391C166.367 24.468 166.325 23.856 166.265 23.22C166.217 22.572 166.193 21.936 166.193 21.312V15.192H167.633V27H165.977L162.197 19.584L161.063 17.136H161.027C161.051 17.748 161.087 18.366 161.135 18.99C161.195 19.602 161.225 20.214 161.225 20.826V27H159.785ZM173.746 27V16.452H169.858V15.192H179.146V16.452H175.258V27H173.746ZM181.605 27V25.722H184.539V16.452H181.605V15.192H188.985V16.452H186.051V25.722H188.985V27H181.605ZM196.178 27.216C195.314 27.216 194.516 27.06 193.784 26.748C193.064 26.436 192.434 26.01 191.894 25.47L192.794 24.426C193.238 24.87 193.754 25.23 194.342 25.506C194.93 25.77 195.566 25.902 196.25 25.902C197.066 25.902 197.696 25.728 198.14 25.38C198.596 25.032 198.824 24.582 198.824 24.03C198.824 23.718 198.77 23.454 198.662 23.238C198.554 23.022 198.404 22.836 198.212 22.68C198.02 22.524 197.792 22.386 197.528 22.266C197.276 22.146 197 22.02 196.7 21.888L195.008 21.15C194.708 21.03 194.408 20.886 194.108 20.718C193.808 20.55 193.532 20.346 193.28 20.106C193.04 19.866 192.842 19.584 192.686 19.26C192.53 18.924 192.452 18.54 192.452 18.108C192.452 17.664 192.548 17.25 192.74 16.866C192.932 16.482 193.196 16.152 193.532 15.876C193.88 15.588 194.288 15.366 194.756 15.21C195.236 15.054 195.758 14.976 196.322 14.976C197.066 14.976 197.75 15.114 198.374 15.39C198.998 15.654 199.526 16.002 199.958 16.434L199.166 17.406C198.782 17.058 198.356 16.788 197.888 16.596C197.42 16.392 196.88 16.29 196.268 16.29C195.584 16.29 195.032 16.446 194.612 16.758C194.192 17.058 193.982 17.478 193.982 18.018C193.982 18.306 194.042 18.552 194.162 18.756C194.294 18.948 194.456 19.122 194.648 19.278C194.852 19.422 195.08 19.548 195.332 19.656C195.584 19.764 195.836 19.872 196.088 19.98L197.744 20.7C198.104 20.844 198.44 21.012 198.752 21.204C199.076 21.384 199.352 21.6 199.58 21.852C199.82 22.092 200.006 22.38 200.138 22.716C200.282 23.04 200.354 23.418 200.354 23.85C200.354 24.318 200.258 24.756 200.066 25.164C199.874 25.572 199.598 25.932 199.238 26.244C198.878 26.544 198.44 26.784 197.924 26.964C197.408 27.132 196.826 27.216 196.178 27.216ZM206.124 27V16.452H202.236V15.192H211.524V16.452H207.636V27H206.124Z" fill="#676C79"></path> <rect x="0.5" y="0.5" width="230" height="41" stroke="#7FE1E5"></rect> </svg> 