<?xml version="1.0" encoding="UTF-8"?> <svg xmlns="http://www.w3.org/2000/svg" width="112" height="42" viewBox="0 0 112 42" fill="none"> <path d="M22.176 20.394L21.618 22.194H25.146L24.588 20.394C24.384 19.734 24.18 19.08 23.976 18.432C23.784 17.772 23.598 17.1 23.418 16.416H23.346C23.154 17.1 22.962 17.772 22.77 18.432C22.578 19.08 22.38 19.734 22.176 20.394ZM18.576 27L22.554 15.192H24.246L28.224 27H26.64L25.524 23.4H21.24L20.106 27H18.576ZM30.269 27V15.192H31.925L35.705 22.608L36.839 25.056H36.875C36.851 24.468 36.809 23.856 36.749 23.22C36.701 22.572 36.677 21.936 36.677 21.312V15.192H38.117V27H36.461L32.681 19.584L31.547 17.136H31.511C31.535 17.748 31.571 18.366 31.619 18.99C31.679 19.602 31.709 20.214 31.709 20.826V27H30.269ZM41.1519 27V15.192H44.0679C45.8559 15.192 47.2119 15.696 48.1359 16.704C49.0719 17.712 49.5399 19.158 49.5399 21.042C49.5399 22.926 49.0719 24.39 48.1359 25.434C47.2119 26.478 45.8799 27 44.1399 27H41.1519ZM42.6459 25.776H43.9599C45.3159 25.776 46.3239 25.362 46.9839 24.534C47.6559 23.706 47.9919 22.542 47.9919 21.042C47.9919 19.542 47.6559 18.396 46.9839 17.604C46.3239 16.812 45.3159 16.416 43.9599 16.416H42.6459V25.776ZM52.1789 27V15.192H55.8509C56.4509 15.192 57.0029 15.252 57.5069 15.372C58.0109 15.48 58.4429 15.666 58.8029 15.93C59.1749 16.194 59.4629 16.536 59.6669 16.956C59.8709 17.376 59.9729 17.892 59.9729 18.504C59.9729 19.428 59.7329 20.166 59.2529 20.718C58.7729 21.27 58.1309 21.648 57.3269 21.852L60.3329 27H58.6229L55.7789 22.014H53.6729V27H52.1789ZM53.6729 20.79H55.6349C56.5589 20.79 57.2609 20.604 57.7409 20.232C58.2329 19.848 58.4789 19.272 58.4789 18.504C58.4789 17.724 58.2329 17.178 57.7409 16.866C57.2609 16.554 56.5589 16.398 55.6349 16.398H53.6729V20.79ZM66.5719 27.216C65.8999 27.216 65.2879 27.078 64.7359 26.802C64.1839 26.514 63.7039 26.106 63.2959 25.578C62.8999 25.05 62.5879 24.408 62.3599 23.652C62.1439 22.884 62.0359 22.014 62.0359 21.042C62.0359 20.094 62.1439 19.242 62.3599 18.486C62.5879 17.73 62.8999 17.094 63.2959 16.578C63.7039 16.062 64.1839 15.666 64.7359 15.39C65.2879 15.114 65.8999 14.976 66.5719 14.976C67.2319 14.976 67.8379 15.114 68.3899 15.39C68.9539 15.666 69.4339 16.062 69.8299 16.578C70.2379 17.094 70.5499 17.73 70.7659 18.486C70.9939 19.242 71.1079 20.094 71.1079 21.042C71.1079 22.014 70.9939 22.884 70.7659 23.652C70.5499 24.408 70.2379 25.05 69.8299 25.578C69.4339 26.106 68.9539 26.514 68.3899 26.802C67.8379 27.078 67.2319 27.216 66.5719 27.216ZM66.5719 25.902C67.0159 25.902 67.4239 25.794 67.7959 25.578C68.1679 25.35 68.4799 25.026 68.7319 24.606C68.9959 24.186 69.1999 23.676 69.3439 23.076C69.4879 22.476 69.5599 21.798 69.5599 21.042C69.5599 20.298 69.4879 19.632 69.3439 19.044C69.1999 18.456 68.9959 17.958 68.7319 17.55C68.4799 17.142 68.1679 16.83 67.7959 16.614C67.4239 16.398 67.0159 16.29 66.5719 16.29C66.1159 16.29 65.7019 16.398 65.3299 16.614C64.9699 16.83 64.6579 17.142 64.3939 17.55C64.1419 17.958 63.9439 18.456 63.7999 19.044C63.6559 19.632 63.5839 20.298 63.5839 21.042C63.5839 21.798 63.6559 22.476 63.7999 23.076C63.9439 23.676 64.1419 24.186 64.3939 24.606C64.6579 25.026 64.9699 25.35 65.3299 25.578C65.7019 25.794 66.1159 25.902 66.5719 25.902ZM73.6748 27V25.722H76.6088V16.452H73.6748V15.192H81.0548V16.452H78.1208V25.722H81.0548V27H73.6748ZM84.3238 27V15.192H87.2398C89.0278 15.192 90.3838 15.696 91.3078 16.704C92.2438 17.712 92.7118 19.158 92.7118 21.042C92.7118 22.926 92.2438 24.39 91.3078 25.434C90.3838 26.478 89.0518 27 87.3118 27H84.3238ZM85.8178 25.776H87.1318C88.4878 25.776 89.4958 25.362 90.1558 24.534C90.8278 23.706 91.1638 22.542 91.1638 21.042C91.1638 19.542 90.8278 18.396 90.1558 17.604C89.4958 16.812 88.4878 16.416 87.1318 16.416H85.8178V25.776Z" fill="#676C79"></path> <rect x="0.5" y="0.5" width="111" height="41" stroke="#A48DEB"></rect> </svg> 