<?xml version="1.0" encoding="UTF-8"?> <svg xmlns="http://www.w3.org/2000/svg" width="40" height="40" viewBox="0 0 40 40" fill="none"> <path d="M20 0C8.95422 0 0 8.95422 0 20C0 31.0458 8.95422 40 20 40C31.0458 40 40 31.0458 40 20C40 8.95422 31.0458 0 20 0Z" fill="white"></path> <path d="M13.8545 14.707C15.0239 14.707 15.9719 13.759 15.9719 12.5896C15.9719 11.4202 15.0239 10.4722 13.8545 10.4722C12.6851 10.4722 11.7371 11.4202 11.7371 12.5896C11.7371 13.759 12.6851 14.707 13.8545 14.707Z" fill="#3964D4"></path> <path d="M17.9712 16.3113V28.0587H21.6186V22.2494C21.6186 20.7165 21.907 19.232 23.8077 19.232C25.6822 19.232 25.7054 20.9845 25.7054 22.3462V28.0597H29.3548V21.6174C29.3548 18.4529 28.6735 16.021 24.9748 16.021C23.199 16.021 22.0086 16.9955 21.5219 17.9178H21.4725V16.3113H17.9712ZM12.0273 16.3113H15.6806V28.0587H12.0273V16.3113Z" fill="#3964D4"></path> </svg> 