<?xml version="1.0" encoding="UTF-8"?> <svg xmlns="http://www.w3.org/2000/svg" width="101" height="42" viewBox="0 0 101 42" fill="none"> <path d="M19.836 27V15.192H23.4C24.048 15.192 24.642 15.252 25.182 15.372C25.722 15.492 26.184 15.69 26.568 15.966C26.952 16.23 27.246 16.584 27.45 17.028C27.666 17.472 27.774 18.018 27.774 18.666C27.774 19.29 27.666 19.83 27.45 20.286C27.246 20.742 26.946 21.12 26.55 21.42C26.166 21.72 25.704 21.948 25.164 22.104C24.636 22.248 24.048 22.32 23.4 22.32H21.33V27H19.836ZM21.33 21.096H23.22C24.264 21.096 25.032 20.904 25.524 20.52C26.016 20.124 26.262 19.506 26.262 18.666C26.262 17.814 26.01 17.226 25.506 16.902C25.002 16.566 24.24 16.398 23.22 16.398H21.33V21.096ZM33.437 27V22.788L29.477 15.192H31.061L32.843 18.702C33.071 19.158 33.293 19.614 33.509 20.07C33.725 20.514 33.953 20.976 34.193 21.456H34.265C34.505 20.976 34.739 20.508 34.967 20.052C35.195 19.596 35.423 19.14 35.651 18.684L37.361 15.192H38.909L34.949 22.788V27H33.437ZM44.2299 27V16.452H40.3419V15.192H49.6299V16.452H45.7419V27H44.2299ZM51.8009 27V15.192H53.3129V20.142H58.2449V15.192H59.7569V27H58.2449V21.438H53.3129V27H51.8009ZM66.5719 27.216C65.8999 27.216 65.2879 27.078 64.7359 26.802C64.1839 26.514 63.7039 26.106 63.2959 25.578C62.8999 25.05 62.5879 24.408 62.3599 23.652C62.1439 22.884 62.0359 22.014 62.0359 21.042C62.0359 20.094 62.1439 19.242 62.3599 18.486C62.5879 17.73 62.8999 17.094 63.2959 16.578C63.7039 16.062 64.1839 15.666 64.7359 15.39C65.2879 15.114 65.8999 14.976 66.5719 14.976C67.2319 14.976 67.8379 15.114 68.3899 15.39C68.9539 15.666 69.4339 16.062 69.8299 16.578C70.2379 17.094 70.5499 17.73 70.7659 18.486C70.9939 19.242 71.1079 20.094 71.1079 21.042C71.1079 22.014 70.9939 22.884 70.7659 23.652C70.5499 24.408 70.2379 25.05 69.8299 25.578C69.4339 26.106 68.9539 26.514 68.3899 26.802C67.8379 27.078 67.2319 27.216 66.5719 27.216ZM66.5719 25.902C67.0159 25.902 67.4239 25.794 67.7959 25.578C68.1679 25.35 68.4799 25.026 68.7319 24.606C68.9959 24.186 69.1999 23.676 69.3439 23.076C69.4879 22.476 69.5599 21.798 69.5599 21.042C69.5599 20.298 69.4879 19.632 69.3439 19.044C69.1999 18.456 68.9959 17.958 68.7319 17.55C68.4799 17.142 68.1679 16.83 67.7959 16.614C67.4239 16.398 67.0159 16.29 66.5719 16.29C66.1159 16.29 65.7019 16.398 65.3299 16.614C64.9699 16.83 64.6579 17.142 64.3939 17.55C64.1419 17.958 63.9439 18.456 63.7999 19.044C63.6559 19.632 63.5839 20.298 63.5839 21.042C63.5839 21.798 63.6559 22.476 63.7999 23.076C63.9439 23.676 64.1419 24.186 64.3939 24.606C64.6579 25.026 64.9699 25.35 65.3299 25.578C65.7019 25.794 66.1159 25.902 66.5719 25.902ZM73.4408 27V15.192H75.0968L78.8768 22.608L80.0108 25.056H80.0468C80.0228 24.468 79.9808 23.856 79.9208 23.22C79.8728 22.572 79.8488 21.936 79.8488 21.312V15.192H81.2888V27H79.6328L75.8528 19.584L74.7188 17.136H74.6828C74.7068 17.748 74.7428 18.366 74.7908 18.99C74.8508 19.602 74.8808 20.214 74.8808 20.826V27H73.4408Z" fill="#676C79"></path> <rect x="0.5" y="0.5" width="100" height="41" stroke="#7FE1E5"></rect> </svg> 