<?xml version="1.0" encoding="UTF-8"?> <!-- Generator: Adobe Illustrator 25.1.0, SVG Export Plug-In . SVG Version: 6.00 Build 0) --> <svg xmlns="http://www.w3.org/2000/svg" xmlns:xlink="http://www.w3.org/1999/xlink" id="Layer_1" x="0px" y="0px" viewBox="0 0 1812.5 371.3" style="enable-background:new 0 0 1812.5 371.3;" xml:space="preserve"> <style type="text/css"> .st0{fill:#3964D4;} </style> <g> <polygon class="st0" points="170.8,107.1 123.6,107.1 76.7,118.8 76.7,107.1 0,107.1 0,365.3 76.7,365.3 76.7,173.6 170.8,173.6 170.8,365.3 247.5,365.3 247.5,107.1 "></polygon> <polygon class="st0" points="1184.4,107.1 1184.4,0 1055.1,0 1055.1,66.5 1107.7,66.5 1107.7,365.3 1184.4,365.3 1184.4,173.6 1278.5,173.6 1278.5,365.3 1355.2,365.3 1355.2,107.1 "></polygon> <polygon class="st0" points="1454.9,107.1 1454.9,298.8 1402.3,298.8 1402.3,365.3 1599,365.3 1599,298.8 1531.6,298.8 1531.6,173.6 1599,173.6 1599,107.1 "></polygon> <polygon class="st0" points="979.2,213.3 913,298.8 913,298.8 913,298.8 884.5,298.8 884.5,107.1 807.8,107.1 807.8,213.3 741.6,298.8 741.6,298.8 741.6,298.8 713.1,298.8 713.1,107.1 636.5,107.1 636.5,365.3 774.9,365.3 774.9,365.3 775.4,365.3 775.4,365.3 807.8,323.5 807.8,365.3 958.1,365.3 1055.9,239.1 1055.9,107.1 979.2,107.1 "></polygon> <polygon class="st0" points="1728.3,89.4 1644.2,208 1812.5,208 "></polygon> <path class="st0" d="M578.9,234.3c0-9.3-0.9-18.4-2.7-27.1C563.7,144.5,508.3,97.4,442,97.4c-75.6,0-137,61.3-137,137 s61.3,137,137,137c55,0,102.5-32.5,124.3-79.3h-83.1c-11.4,10.6-26.1,16.9-42.1,16.9c-29.9,0-55.2-22.3-63.5-52.9h199.7 C578.3,249,578.9,241.7,578.9,234.3z M379.2,207.2c9.6-27.8,33.7-47.5,61.8-47.5c28.1,0,52.2,19.7,61.8,47.5H379.2z"></path> </g> </svg> 