<?xml version="1.0" encoding="UTF-8"?> <svg xmlns="http://www.w3.org/2000/svg" width="209" height="40" viewBox="0 0 209 40" fill="none"> <path d="M19.6 26V15.504H22.864C23.3973 15.504 23.888 15.5573 24.336 15.664C24.784 15.76 25.168 15.9253 25.488 16.16C25.8187 16.3947 26.0747 16.6987 26.256 17.072C26.4373 17.4453 26.528 17.904 26.528 18.448C26.528 19.2693 26.3147 19.9253 25.888 20.416C25.4613 20.9067 24.8907 21.2427 24.176 21.424L26.848 26H25.328L22.8 21.568H20.928V26H19.6ZM20.928 20.48H22.672C23.4933 20.48 24.1173 20.3147 24.544 19.984C24.9813 19.6427 25.2 19.1307 25.2 18.448C25.2 17.7547 24.9813 17.2693 24.544 16.992C24.1173 16.7147 23.4933 16.576 22.672 16.576H20.928V20.48ZM29.1138 26V24.864H31.7218V16.624H29.1138V15.504H35.6737V16.624H33.0658V24.864H35.6737V26H29.1138ZM38.5795 26V15.504H41.1715C42.7608 15.504 43.9662 15.952 44.7875 16.848C45.6195 17.744 46.0355 19.0293 46.0355 20.704C46.0355 22.3787 45.6195 23.68 44.7875 24.608C43.9662 25.536 42.7822 26 41.2355 26H38.5795ZM39.9075 24.912H41.0755C42.2808 24.912 43.1768 24.544 43.7635 23.808C44.3608 23.072 44.6595 22.0373 44.6595 20.704C44.6595 19.3707 44.3608 18.352 43.7635 17.648C43.1768 16.944 42.2808 16.592 41.0755 16.592H39.9075V24.912ZM48.6053 26V15.504H55.1013V16.624H49.9493V19.92H54.3013V21.056H49.9493V24.864H55.2613V26H48.6053ZM57.735 21.216V20.224H64.615V21.216H57.735ZM67.2328 26V15.504H68.5768V19.904H72.9608V15.504H74.3048V26H72.9608V21.056H68.5768V26H67.2328ZM79.2745 20.128L78.7785 21.728H81.9145L81.4185 20.128C81.2372 19.5413 81.0558 18.96 80.8745 18.384C80.7038 17.7973 80.5385 17.2 80.3785 16.592H80.3145C80.1438 17.2 79.9732 17.7973 79.8025 18.384C79.6318 18.96 79.4558 19.5413 79.2745 20.128ZM76.0745 26L79.6105 15.504H81.1145L84.6505 26H83.2425L82.2505 22.8H78.4425L77.4345 26H76.0745ZM86.6763 26V24.864H89.2843V16.624H86.6763V15.504H93.2362V16.624H90.6283V24.864H93.2362V26H86.6763ZM96.894 26V15.504H98.206V24.864H103.406V26L96.894 26ZM105.864 26V24.864H108.472V16.624L105.864 16.624V15.504H112.424V16.624H109.816V24.864H112.424V26H105.864ZM115.25 26V15.504H116.722L120.082 22.096L121.09 24.272H121.122C121.1 23.7493 121.063 23.2053 121.01 22.64C120.967 22.064 120.946 21.4987 120.946 20.944V15.504H122.226V26H120.754L117.394 19.408L116.386 17.232H116.354C116.375 17.776 116.407 18.3253 116.45 18.88C116.503 19.424 116.53 19.968 116.53 20.512V26H115.25ZM128.923 26.192C128.262 26.192 127.654 26.0693 127.099 25.824C126.545 25.5787 126.065 25.2267 125.659 24.768C125.254 24.2987 124.939 23.728 124.715 23.056C124.491 22.3733 124.379 21.6053 124.379 20.752C124.379 19.9093 124.491 19.152 124.715 18.48C124.95 17.7973 125.27 17.2267 125.675 16.768C126.091 16.2987 126.582 15.9413 127.147 15.696C127.723 15.44 128.353 15.312 129.035 15.312C129.387 15.312 129.707 15.3493 129.995 15.424C130.283 15.4987 130.545 15.6 130.779 15.728C131.025 15.8453 131.238 15.9787 131.419 16.128C131.611 16.2773 131.782 16.432 131.931 16.592L131.179 17.44C130.923 17.1627 130.63 16.9333 130.299 16.752C129.969 16.5707 129.547 16.48 129.035 16.48C128.545 16.48 128.097 16.5813 127.691 16.784C127.297 16.976 126.955 17.2587 126.667 17.632C126.379 17.9947 126.155 18.4373 125.995 18.96C125.846 19.4827 125.771 20.0693 125.771 20.72C125.771 21.3813 125.841 21.9787 125.979 22.512C126.129 23.0347 126.337 23.4827 126.603 23.856C126.881 24.2293 127.222 24.5173 127.627 24.72C128.033 24.9227 128.491 25.024 129.003 25.024C129.377 25.024 129.723 24.9707 130.043 24.864C130.363 24.7467 130.625 24.592 130.827 24.4V21.664H128.731V20.56H132.059V24.976C131.729 25.3173 131.291 25.6053 130.747 25.84C130.214 26.0747 129.606 26.192 128.923 26.192ZM146.847 26V16.624H143.391V15.504H151.647V16.624H148.191V26H146.847ZM156.025 20.128L155.529 21.728H158.665L158.169 20.128C157.987 19.5413 157.806 18.96 157.625 18.384C157.454 17.7973 157.289 17.2 157.129 16.592H157.065C156.894 17.2 156.723 17.7973 156.553 18.384C156.382 18.96 156.206 19.5413 156.025 20.128ZM152.825 26L156.361 15.504H157.865L161.401 26H159.993L159.001 22.8H155.193L154.185 26H152.825ZM162.77 26L165.906 20.576L162.978 15.504H164.45L165.922 18.192C166.061 18.4373 166.194 18.6773 166.322 18.912C166.45 19.136 166.6 19.4027 166.77 19.712H166.834C166.984 19.4027 167.112 19.136 167.218 18.912C167.336 18.6773 167.458 18.4373 167.586 18.192L169.026 15.504H170.434L167.506 20.64L170.642 26H169.17L167.586 23.168C167.437 22.912 167.288 22.6507 167.138 22.384C167 22.1067 166.84 21.808 166.658 21.488H166.594C166.445 21.808 166.301 22.1067 166.162 22.384C166.024 22.6507 165.885 22.912 165.746 23.168L164.178 26H162.77ZM173.02 26V24.864H175.628V16.624H173.02V15.504H179.58V16.624H176.972V24.864H179.58V26H173.02Z" fill="#676C79"></path> <rect x="0.5" y="0.5" width="208" height="39" stroke="#D4D9E8"></rect> </svg> 