<?xml version="1.0" encoding="UTF-8"?> <svg xmlns="http://www.w3.org/2000/svg" width="188" height="42" viewBox="0 0 188 42" fill="none"> <path d="M22.536 27L18.774 15.192H20.358L22.266 21.564C22.47 22.272 22.656 22.926 22.824 23.526C22.992 24.126 23.184 24.774 23.4 25.47H23.472C23.58 25.122 23.682 24.792 23.778 24.48C23.874 24.156 23.964 23.838 24.048 23.526C24.144 23.214 24.234 22.896 24.318 22.572C24.414 22.248 24.51 21.912 24.606 21.564L26.496 15.192H28.026L24.282 27H22.536ZM30.629 27V15.192H34.193C34.841 15.192 35.435 15.252 35.975 15.372C36.515 15.492 36.977 15.69 37.361 15.966C37.745 16.23 38.039 16.584 38.243 17.028C38.459 17.472 38.567 18.018 38.567 18.666C38.567 19.29 38.459 19.83 38.243 20.286C38.039 20.742 37.739 21.12 37.343 21.42C36.959 21.72 36.497 21.948 35.957 22.104C35.429 22.248 34.841 22.32 34.193 22.32H32.123V27H30.629ZM32.123 21.096H34.013C35.057 21.096 35.825 20.904 36.317 20.52C36.809 20.124 37.055 19.506 37.055 18.666C37.055 17.814 36.803 17.226 36.299 16.902C35.795 16.566 35.033 16.398 34.013 16.398H32.123V21.096ZM52.4309 27V15.192H59.7389V16.452H53.9429V20.16H58.8389V21.438H53.9429V25.722H59.9189V27H52.4309ZM62.6479 27V15.192H64.3039L68.0839 22.608L69.2179 25.056H69.2539C69.2299 24.468 69.1879 23.856 69.1279 23.22C69.0799 22.572 69.0559 21.936 69.0559 21.312V15.192H70.4959V27H68.8399L65.0599 19.584L63.9259 17.136H63.8899C63.9139 17.748 63.9499 18.366 63.9979 18.99C64.0579 19.602 64.0879 20.214 64.0879 20.826V27H62.6479ZM78.0308 27.216C77.2868 27.216 76.6028 27.078 75.9788 26.802C75.3548 26.526 74.8148 26.13 74.3588 25.614C73.9028 25.086 73.5488 24.444 73.2968 23.688C73.0448 22.92 72.9188 22.056 72.9188 21.096C72.9188 20.148 73.0448 19.296 73.2968 18.54C73.5608 17.772 73.9208 17.13 74.3768 16.614C74.8448 16.086 75.3968 15.684 76.0328 15.408C76.6808 15.12 77.3888 14.976 78.1568 14.976C78.5528 14.976 78.9128 15.018 79.2368 15.102C79.5608 15.186 79.8548 15.3 80.1188 15.444C80.3948 15.576 80.6348 15.726 80.8388 15.894C81.0548 16.062 81.2468 16.236 81.4148 16.416L80.5688 17.37C80.2808 17.058 79.9508 16.8 79.5788 16.596C79.2068 16.392 78.7328 16.29 78.1568 16.29C77.6048 16.29 77.1008 16.404 76.6448 16.632C76.2008 16.848 75.8168 17.166 75.4928 17.586C75.1688 17.994 74.9168 18.492 74.7368 19.08C74.5688 19.668 74.4848 20.328 74.4848 21.06C74.4848 21.804 74.5628 22.476 74.7188 23.076C74.8868 23.664 75.1208 24.168 75.4208 24.588C75.7328 25.008 76.1168 25.332 76.5728 25.56C77.0288 25.788 77.5448 25.902 78.1208 25.902C78.5408 25.902 78.9308 25.842 79.2908 25.722C79.6508 25.59 79.9448 25.416 80.1728 25.2V22.122H77.8148V20.88H81.5588V25.848C81.1868 26.232 80.6948 26.556 80.0828 26.82C79.4828 27.084 78.7988 27.216 78.0308 27.216ZM84.4678 27V25.722H87.4018V16.452H84.4678V15.192H91.8478V16.452H88.9138V25.722H91.8478V27H84.4678ZM95.0268 27V15.192H96.6828L100.463 22.608L101.597 25.056H101.633C101.609 24.468 101.567 23.856 101.507 23.22C101.459 22.572 101.435 21.936 101.435 21.312V15.192H102.875V27H101.219L97.4388 19.584L96.3048 17.136H96.2688C96.2928 17.748 96.3288 18.366 96.3768 18.99C96.4368 19.602 96.4668 20.214 96.4668 20.826V27H95.0268ZM106.396 27V15.192H113.704V16.452H107.908V20.16H112.804V21.438H107.908V25.722H113.884V27H106.396ZM117.189 27V15.192H124.497V16.452H118.701V20.16H123.597V21.438H118.701V25.722H124.677V27H117.189ZM127.73 27V15.192H131.402C132.002 15.192 132.554 15.252 133.058 15.372C133.562 15.48 133.994 15.666 134.354 15.93C134.726 16.194 135.014 16.536 135.218 16.956C135.422 17.376 135.524 17.892 135.524 18.504C135.524 19.428 135.284 20.166 134.804 20.718C134.324 21.27 133.682 21.648 132.878 21.852L135.884 27H134.174L131.33 22.014H129.224V27H127.73ZM129.224 20.79H131.186C132.11 20.79 132.812 20.604 133.292 20.232C133.784 19.848 134.03 19.272 134.03 18.504C134.03 17.724 133.784 17.178 133.292 16.866C132.812 16.554 132.11 16.398 131.186 16.398H129.224V20.79ZM138.433 27V25.722H141.367V16.452H138.433V15.192H145.813V16.452H142.879V25.722H145.813V27H138.433ZM148.992 27V15.192H150.648L154.428 22.608L155.562 25.056H155.598C155.574 24.468 155.532 23.856 155.472 23.22C155.424 22.572 155.4 21.936 155.4 21.312V15.192H156.84V27H155.184L151.404 19.584L150.27 17.136H150.234C150.258 17.748 150.294 18.366 150.342 18.99C150.402 19.602 150.432 20.214 150.432 20.826V27H148.992ZM164.375 27.216C163.631 27.216 162.947 27.078 162.323 26.802C161.699 26.526 161.159 26.13 160.703 25.614C160.247 25.086 159.893 24.444 159.641 23.688C159.389 22.92 159.263 22.056 159.263 21.096C159.263 20.148 159.389 19.296 159.641 18.54C159.905 17.772 160.265 17.13 160.721 16.614C161.189 16.086 161.741 15.684 162.377 15.408C163.025 15.12 163.733 14.976 164.501 14.976C164.897 14.976 165.257 15.018 165.581 15.102C165.905 15.186 166.199 15.3 166.463 15.444C166.739 15.576 166.979 15.726 167.183 15.894C167.399 16.062 167.591 16.236 167.759 16.416L166.913 17.37C166.625 17.058 166.295 16.8 165.923 16.596C165.551 16.392 165.077 16.29 164.501 16.29C163.949 16.29 163.445 16.404 162.989 16.632C162.545 16.848 162.161 17.166 161.837 17.586C161.513 17.994 161.261 18.492 161.081 19.08C160.913 19.668 160.829 20.328 160.829 21.06C160.829 21.804 160.907 22.476 161.063 23.076C161.231 23.664 161.465 24.168 161.765 24.588C162.077 25.008 162.461 25.332 162.917 25.56C163.373 25.788 163.889 25.902 164.465 25.902C164.885 25.902 165.275 25.842 165.635 25.722C165.995 25.59 166.289 25.416 166.517 25.2V22.122H164.159V20.88H167.903V25.848C167.531 26.232 167.039 26.556 166.427 26.82C165.827 27.084 165.143 27.216 164.375 27.216Z" fill="#676C79"></path> <rect x="0.5" y="0.5" width="187" height="41" stroke="#7FE1E5"></rect> </svg> 