<?xml version="1.0" encoding="UTF-8"?> <svg xmlns="http://www.w3.org/2000/svg" width="190" height="40" viewBox="0 0 190 40" fill="none"> <path d="M23.616 26.192C22.9653 26.192 22.3627 26.0693 21.808 25.824C21.2533 25.5787 20.768 25.2267 20.352 24.768C19.9467 24.2987 19.6267 23.728 19.392 23.056C19.1573 22.3733 19.04 21.6053 19.04 20.752C19.04 19.9093 19.1573 19.152 19.392 18.48C19.6267 17.808 19.952 17.2373 20.368 16.768C20.784 16.2987 21.28 15.9413 21.856 15.696C22.432 15.44 23.0613 15.312 23.744 15.312C24.3733 15.312 24.928 15.44 25.408 15.696C25.8987 15.952 26.2987 16.2507 26.608 16.592L25.856 17.44C25.5787 17.152 25.2693 16.9227 24.928 16.752C24.5867 16.5707 24.192 16.48 23.744 16.48C23.2427 16.48 22.784 16.5813 22.368 16.784C21.9627 16.976 21.616 17.2587 21.328 17.632C21.04 17.9947 20.816 18.4373 20.656 18.96C20.496 19.4827 20.416 20.0693 20.416 20.72C20.416 21.3813 20.496 21.9787 20.656 22.512C20.816 23.0347 21.04 23.4827 21.328 23.856C21.616 24.2293 21.9627 24.5173 22.368 24.72C22.784 24.9227 23.2427 25.024 23.744 25.024C24.224 25.024 24.6507 24.9227 25.024 24.72C25.408 24.5173 25.7707 24.2293 26.112 23.856L26.864 24.672C26.448 25.152 25.9787 25.5253 25.456 25.792C24.9333 26.0587 24.32 26.192 23.616 26.192ZM32.3938 26.192C31.7964 26.192 31.2524 26.0693 30.7618 25.824C30.2711 25.568 29.8444 25.2053 29.4818 24.736C29.1298 24.2667 28.8524 23.696 28.6497 23.024C28.4578 22.3413 28.3618 21.568 28.3618 20.704C28.3618 19.8613 28.4578 19.104 28.6497 18.432C28.8524 17.76 29.1298 17.1947 29.4818 16.736C29.8444 16.2773 30.2711 15.9253 30.7618 15.68C31.2524 15.4347 31.7964 15.312 32.3938 15.312C32.9804 15.312 33.5191 15.4347 34.0098 15.68C34.5111 15.9253 34.9378 16.2773 35.2898 16.736C35.6524 17.1947 35.9298 17.76 36.1218 18.432C36.3244 19.104 36.4258 19.8613 36.4258 20.704C36.4258 21.568 36.3244 22.3413 36.1218 23.024C35.9298 23.696 35.6524 24.2667 35.2898 24.736C34.9378 25.2053 34.5111 25.568 34.0098 25.824C33.5191 26.0693 32.9804 26.192 32.3938 26.192ZM32.3938 25.024C32.7884 25.024 33.1511 24.928 33.4818 24.736C33.8124 24.5333 34.0898 24.2453 34.3138 23.872C34.5484 23.4987 34.7298 23.0453 34.8578 22.512C34.9858 21.9787 35.0498 21.376 35.0498 20.704C35.0498 20.0427 34.9858 19.4507 34.8578 18.928C34.7298 18.4053 34.5484 17.9627 34.3138 17.6C34.0898 17.2373 33.8124 16.96 33.4818 16.768C33.1511 16.576 32.7884 16.48 32.3938 16.48C31.9884 16.48 31.6204 16.576 31.2898 16.768C30.9698 16.96 30.6924 17.2373 30.4578 17.6C30.2338 17.9627 30.0578 18.4053 29.9298 18.928C29.8018 19.4507 29.7378 20.0427 29.7378 20.704C29.7378 21.376 29.8018 21.9787 29.9298 22.512C30.0578 23.0453 30.2338 23.4987 30.4578 23.872C30.6924 24.2453 30.9698 24.5333 31.2898 24.736C31.6204 24.928 31.9884 25.024 32.3938 25.024ZM38.3395 26V15.504H39.9715L41.4435 19.984L41.9555 21.68H42.0195L42.5155 19.984L44.0035 15.504H45.6355V26H44.3555V20.752C44.3555 20.496 44.3608 20.2027 44.3715 19.872C44.3928 19.5307 44.4142 19.1893 44.4355 18.848C44.4675 18.5067 44.4942 18.176 44.5155 17.856C44.5368 17.536 44.5582 17.264 44.5795 17.04H44.5315L43.9395 19.088L42.4355 23.216H41.4755L40.0035 19.088L39.3955 17.04H39.3635C39.3848 17.264 39.4062 17.536 39.4275 17.856C39.4595 18.176 39.4862 18.5067 39.5075 18.848C39.5288 19.1893 39.5448 19.5307 39.5555 19.872C39.5768 20.2027 39.5875 20.496 39.5875 20.752V26H38.3395ZM48.4133 26V15.504H51.5813C52.1573 15.504 52.6853 15.5573 53.1653 15.664C53.6453 15.7707 54.0559 15.9467 54.3973 16.192C54.7386 16.4267 54.9999 16.7413 55.1813 17.136C55.3733 17.5307 55.4693 18.016 55.4693 18.592C55.4693 19.1467 55.3733 19.6267 55.1813 20.032C54.9999 20.4373 54.7333 20.7733 54.3813 21.04C54.0399 21.3067 53.6293 21.5093 53.1493 21.648C52.6799 21.776 52.1573 21.84 51.5813 21.84H49.7413V26H48.4133ZM49.7413 20.752H51.4213C52.3493 20.752 53.0319 20.5813 53.4693 20.24C53.9066 19.888 54.1253 19.3387 54.1253 18.592C54.1253 17.8347 53.9013 17.312 53.4533 17.024C53.0053 16.7253 52.3279 16.576 51.4213 16.576H49.7413V20.752ZM61.191 26.192C60.679 26.192 60.2043 26.1173 59.767 25.968C59.3297 25.8187 58.951 25.5787 58.631 25.248C58.3217 24.9067 58.0763 24.4747 57.895 23.952C57.7243 23.4293 57.639 22.7893 57.639 22.032V15.504H58.983V22.064C58.983 22.608 59.0363 23.072 59.143 23.456C59.2603 23.8293 59.415 24.1333 59.607 24.368C59.8097 24.592 60.0443 24.7573 60.311 24.864C60.5777 24.9707 60.871 25.024 61.191 25.024C61.511 25.024 61.8043 24.9707 62.071 24.864C62.3377 24.7573 62.5723 24.592 62.775 24.368C62.9777 24.1333 63.1323 23.8293 63.239 23.456C63.3563 23.072 63.415 22.608 63.415 22.064V15.504H64.711V22.032C64.711 22.7893 64.6203 23.4293 64.439 23.952C64.2683 24.4747 64.0283 24.9067 63.719 25.248C63.4097 25.5787 63.0363 25.8187 62.599 25.968C62.1723 26.1173 61.703 26.192 61.191 26.192ZM70.0968 26V16.624H66.6408V15.504H74.8968V16.624H71.4408V26H70.0968ZM77.3865 26V15.504H83.8825V16.624H78.7305V19.92H83.0825V21.056H78.7305V24.864H84.0425V26H77.3865ZM86.7563 26V15.504H90.0203C90.5536 15.504 91.0443 15.5573 91.4923 15.664C91.9403 15.76 92.3243 15.9253 92.6443 16.16C92.9749 16.3947 93.2309 16.6987 93.4123 17.072C93.5936 17.4453 93.6843 17.904 93.6843 18.448C93.6843 19.2693 93.4709 19.9253 93.0443 20.416C92.6176 20.9067 92.0469 21.2427 91.3323 21.424L94.0043 26H92.4843L89.9563 21.568H88.0843V26H86.7563ZM88.0843 20.48H89.8283C90.6496 20.48 91.2736 20.3147 91.7003 19.984C92.1376 19.6427 92.3563 19.1307 92.3563 18.448C92.3563 17.7547 92.1376 17.2693 91.7003 16.992C91.2736 16.7147 90.6496 16.576 89.8283 16.576H88.0843V20.48ZM108.376 26L105.032 15.504H106.44L108.136 21.168C108.317 21.7973 108.482 22.3787 108.632 22.912C108.781 23.4453 108.952 24.0213 109.144 24.64H109.208C109.304 24.3307 109.394 24.0373 109.48 23.76C109.565 23.472 109.645 23.1893 109.72 22.912C109.805 22.6347 109.885 22.352 109.96 22.064C110.045 21.776 110.13 21.4773 110.216 21.168L111.896 15.504H113.256L109.928 26H108.376ZM115.458 26V24.864H118.066V16.624H115.458V15.504H122.017V16.624H119.41V24.864H122.017V26H115.458ZM128.411 26.192C127.643 26.192 126.934 26.0533 126.283 25.776C125.643 25.4987 125.083 25.12 124.603 24.64L125.403 23.712C125.798 24.1067 126.257 24.4267 126.779 24.672C127.302 24.9067 127.867 25.024 128.475 25.024C129.201 25.024 129.761 24.8693 130.155 24.56C130.561 24.2507 130.763 23.8507 130.763 23.36C130.763 23.0827 130.715 22.848 130.619 22.656C130.523 22.464 130.39 22.2987 130.219 22.16C130.049 22.0213 129.846 21.8987 129.611 21.792C129.387 21.6853 129.142 21.5733 128.875 21.456L127.371 20.8C127.105 20.6933 126.838 20.5653 126.571 20.416C126.305 20.2667 126.059 20.0853 125.835 19.872C125.622 19.6587 125.446 19.408 125.307 19.12C125.169 18.8213 125.099 18.48 125.099 18.096C125.099 17.7013 125.185 17.3333 125.355 16.992C125.526 16.6507 125.761 16.3573 126.059 16.112C126.369 15.856 126.731 15.6587 127.147 15.52C127.574 15.3813 128.038 15.312 128.539 15.312C129.201 15.312 129.809 15.4347 130.363 15.68C130.918 15.9147 131.387 16.224 131.771 16.608L131.067 17.472C130.726 17.1627 130.347 16.9227 129.931 16.752C129.515 16.5707 129.035 16.48 128.491 16.48C127.883 16.48 127.393 16.6187 127.019 16.896C126.646 17.1627 126.459 17.536 126.459 18.016C126.459 18.272 126.513 18.4907 126.619 18.672C126.737 18.8427 126.881 18.9973 127.051 19.136C127.233 19.264 127.435 19.376 127.659 19.472C127.883 19.568 128.107 19.664 128.331 19.76L129.803 20.4C130.123 20.528 130.422 20.6773 130.699 20.848C130.987 21.008 131.233 21.2 131.435 21.424C131.649 21.6373 131.814 21.8933 131.931 22.192C132.059 22.48 132.123 22.816 132.123 23.2C132.123 23.616 132.038 24.0053 131.867 24.368C131.697 24.7307 131.451 25.0507 131.131 25.328C130.811 25.5947 130.422 25.808 129.963 25.968C129.505 26.1173 128.987 26.192 128.411 26.192ZM134.645 26V24.864H137.253V16.624H134.645V15.504H141.205V16.624H138.597V24.864H141.205V26H134.645ZM147.519 26.192C146.921 26.192 146.377 26.0693 145.887 25.824C145.396 25.568 144.969 25.2053 144.607 24.736C144.255 24.2667 143.977 23.696 143.775 23.024C143.583 22.3413 143.487 21.568 143.487 20.704C143.487 19.8613 143.583 19.104 143.775 18.432C143.977 17.76 144.255 17.1947 144.607 16.736C144.969 16.2773 145.396 15.9253 145.887 15.68C146.377 15.4347 146.921 15.312 147.519 15.312C148.105 15.312 148.644 15.4347 149.135 15.68C149.636 15.9253 150.063 16.2773 150.415 16.736C150.777 17.1947 151.055 17.76 151.247 18.432C151.449 19.104 151.551 19.8613 151.551 20.704C151.551 21.568 151.449 22.3413 151.247 23.024C151.055 23.696 150.777 24.2667 150.415 24.736C150.063 25.2053 149.636 25.568 149.135 25.824C148.644 26.0693 148.105 26.192 147.519 26.192ZM147.519 25.024C147.913 25.024 148.276 24.928 148.607 24.736C148.937 24.5333 149.215 24.2453 149.439 23.872C149.673 23.4987 149.855 23.0453 149.983 22.512C150.111 21.9787 150.175 21.376 150.175 20.704C150.175 20.0427 150.111 19.4507 149.983 18.928C149.855 18.4053 149.673 17.9627 149.439 17.6C149.215 17.2373 148.937 16.96 148.607 16.768C148.276 16.576 147.913 16.48 147.519 16.48C147.113 16.48 146.745 16.576 146.415 16.768C146.095 16.96 145.817 17.2373 145.583 17.6C145.359 17.9627 145.183 18.4053 145.055 18.928C144.927 19.4507 144.863 20.0427 144.863 20.704C144.863 21.376 144.927 21.9787 145.055 22.512C145.183 23.0453 145.359 23.4987 145.583 23.872C145.817 24.2453 146.095 24.5333 146.415 24.736C146.745 24.928 147.113 25.024 147.519 25.024ZM153.625 26V15.504H155.097L158.457 22.096L159.465 24.272H159.497C159.475 23.7493 159.438 23.2053 159.385 22.64C159.342 22.064 159.321 21.4987 159.321 20.944V15.504H160.601V26H159.129L155.769 19.408L154.761 17.232H154.729C154.75 17.776 154.782 18.3253 154.825 18.88C154.878 19.424 154.905 19.968 154.905 20.512V26H153.625Z" fill="#676C79"></path> <rect x="0.5" y="0.5" width="189" height="39" stroke="#7FE1E5"></rect> </svg> 