<?xml version="1.0" encoding="UTF-8"?> <svg xmlns="http://www.w3.org/2000/svg" width="3247" height="42" viewBox="0 0 3247 42" fill="none"> <path d="M1186.84 27V15.192H1190.4C1191.05 15.192 1191.64 15.252 1192.18 15.372C1192.72 15.492 1193.18 15.69 1193.57 15.966C1193.95 16.23 1194.25 16.584 1194.45 17.028C1194.67 17.472 1194.77 18.018 1194.77 18.666C1194.77 19.29 1194.67 19.83 1194.45 20.286C1194.25 20.742 1193.95 21.12 1193.55 21.42C1193.17 21.72 1192.7 21.948 1192.16 22.104C1191.64 22.248 1191.05 22.32 1190.4 22.32H1188.33V27H1186.84ZM1188.33 21.096H1190.22C1191.26 21.096 1192.03 20.904 1192.52 20.52C1193.02 20.124 1193.26 19.506 1193.26 18.666C1193.26 17.814 1193.01 17.226 1192.51 16.902C1192 16.566 1191.24 16.398 1190.22 16.398H1188.33V21.096ZM1200.44 27V22.788L1196.48 15.192H1198.06L1199.84 18.702C1200.07 19.158 1200.29 19.614 1200.51 20.07C1200.72 20.514 1200.95 20.976 1201.19 21.456H1201.26C1201.5 20.976 1201.74 20.508 1201.97 20.052C1202.19 19.596 1202.42 19.14 1202.65 18.684L1204.36 15.192H1205.91L1201.95 22.788V27H1200.44ZM1211.23 27V16.452H1207.34V15.192H1216.63V16.452H1212.74V27H1211.23ZM1218.8 27V15.192H1220.31V20.142H1225.24V15.192H1226.76V27H1225.24V21.438H1220.31V27H1218.8ZM1233.57 27.216C1232.9 27.216 1232.29 27.078 1231.74 26.802C1231.18 26.514 1230.7 26.106 1230.3 25.578C1229.9 25.05 1229.59 24.408 1229.36 23.652C1229.14 22.884 1229.04 22.014 1229.04 21.042C1229.04 20.094 1229.14 19.242 1229.36 18.486C1229.59 17.73 1229.9 17.094 1230.3 16.578C1230.7 16.062 1231.18 15.666 1231.74 15.39C1232.29 15.114 1232.9 14.976 1233.57 14.976C1234.23 14.976 1234.84 15.114 1235.39 15.39C1235.95 15.666 1236.43 16.062 1236.83 16.578C1237.24 17.094 1237.55 17.73 1237.77 18.486C1237.99 19.242 1238.11 20.094 1238.11 21.042C1238.11 22.014 1237.99 22.884 1237.77 23.652C1237.55 24.408 1237.24 25.05 1236.83 25.578C1236.43 26.106 1235.95 26.514 1235.39 26.802C1234.84 27.078 1234.23 27.216 1233.57 27.216ZM1233.57 25.902C1234.02 25.902 1234.42 25.794 1234.8 25.578C1235.17 25.35 1235.48 25.026 1235.73 24.606C1236 24.186 1236.2 23.676 1236.34 23.076C1236.49 22.476 1236.56 21.798 1236.56 21.042C1236.56 20.298 1236.49 19.632 1236.34 19.044C1236.2 18.456 1236 17.958 1235.73 17.55C1235.48 17.142 1235.17 16.83 1234.8 16.614C1234.42 16.398 1234.02 16.29 1233.57 16.29C1233.12 16.29 1232.7 16.398 1232.33 16.614C1231.97 16.83 1231.66 17.142 1231.39 17.55C1231.14 17.958 1230.94 18.456 1230.8 19.044C1230.66 19.632 1230.58 20.298 1230.58 21.042C1230.58 21.798 1230.66 22.476 1230.8 23.076C1230.94 23.676 1231.14 24.186 1231.39 24.606C1231.66 25.026 1231.97 25.35 1232.33 25.578C1232.7 25.794 1233.12 25.902 1233.57 25.902ZM1240.44 27V15.192H1242.1L1245.88 22.608L1247.01 25.056H1247.05C1247.02 24.468 1246.98 23.856 1246.92 23.22C1246.87 22.572 1246.85 21.936 1246.85 21.312V15.192H1248.29V27H1246.63L1242.85 19.584L1241.72 17.136H1241.68C1241.71 17.748 1241.74 18.366 1241.79 18.99C1241.85 19.602 1241.88 20.214 1241.88 20.826V27H1240.44Z" fill="#676C79"></path> <rect x="1167.5" y="0.5" width="100" height="41" stroke="#8CA6EA"></rect> <path d="M1112.4 25.974C1113.31 25.974 1114.03 25.542 1114.56 24.678C1115.1 23.814 1115.37 22.602 1115.37 21.042C1115.37 19.554 1115.1 18.384 1114.56 17.532C1114.03 16.68 1113.31 16.254 1112.4 16.254C1111.49 16.254 1110.76 16.68 1110.22 17.532C1109.69 18.384 1109.43 19.554 1109.43 21.042C1109.43 22.602 1109.69 23.814 1110.22 24.678C1110.76 25.542 1111.49 25.974 1112.4 25.974ZM1115.66 29.934C1114.61 29.934 1113.76 29.67 1113.1 29.142C1112.44 28.614 1111.97 27.954 1111.68 27.162C1111.1 27.066 1110.58 26.856 1110.11 26.532C1109.66 26.208 1109.26 25.788 1108.93 25.272C1108.6 24.744 1108.35 24.126 1108.17 23.418C1107.99 22.71 1107.9 21.918 1107.9 21.042C1107.9 20.094 1108.01 19.242 1108.22 18.486C1108.44 17.73 1108.75 17.094 1109.14 16.578C1109.54 16.05 1110.01 15.648 1110.56 15.372C1111.12 15.096 1111.73 14.958 1112.4 14.958C1113.07 14.958 1113.68 15.096 1114.24 15.372C1114.79 15.648 1115.26 16.05 1115.66 16.578C1116.05 17.094 1116.36 17.73 1116.58 18.486C1116.79 19.242 1116.9 20.094 1116.9 21.042C1116.9 21.894 1116.81 22.674 1116.63 23.382C1116.46 24.078 1116.22 24.684 1115.89 25.2C1115.58 25.716 1115.2 26.142 1114.76 26.478C1114.31 26.802 1113.82 27.018 1113.26 27.126C1113.47 27.642 1113.79 28.026 1114.24 28.278C1114.68 28.53 1115.21 28.656 1115.82 28.656C1116 28.656 1116.16 28.638 1116.31 28.602C1116.46 28.566 1116.59 28.524 1116.7 28.476L1116.99 29.682C1116.79 29.754 1116.58 29.814 1116.36 29.862C1116.14 29.91 1115.91 29.934 1115.66 29.934ZM1121.97 20.394L1121.41 22.194H1124.94L1124.38 20.394C1124.18 19.734 1123.97 19.08 1123.77 18.432C1123.58 17.772 1123.39 17.1 1123.21 16.416H1123.14C1122.95 17.1 1122.75 17.772 1122.56 18.432C1122.37 19.08 1122.17 19.734 1121.97 20.394ZM1118.37 27L1122.35 15.192H1124.04L1128.02 27H1126.43L1125.32 23.4H1121.03L1119.9 27H1118.37Z" fill="#676C79"></path> <rect x="1089.5" y="0.5" width="57" height="41" stroke="#A48DEB"></rect> <path d="M1310.64 27V16.452H1306.76V15.192H1316.04V16.452H1312.16V27H1310.64ZM1318.84 27V15.192H1326.15V16.452H1320.36V20.16H1325.25V21.438H1320.36V25.722H1326.33V27H1318.84ZM1331.76 20.394L1331.2 22.194H1334.73L1334.17 20.394C1333.97 19.734 1333.77 19.08 1333.56 18.432C1333.37 17.772 1333.18 17.1 1333 16.416H1332.93C1332.74 17.1 1332.55 17.772 1332.36 18.432C1332.16 19.08 1331.97 19.734 1331.76 20.394ZM1328.16 27L1332.14 15.192H1333.83L1337.81 27H1336.23L1335.11 23.4H1330.83L1329.69 27H1328.16ZM1339.67 27V15.192H1341.51L1343.17 20.232L1343.74 22.14H1343.81L1344.37 20.232L1346.05 15.192H1347.88V27H1346.44V21.096C1346.44 20.808 1346.45 20.478 1346.46 20.106C1346.48 19.722 1346.51 19.338 1346.53 18.954C1346.57 18.57 1346.6 18.198 1346.62 17.838C1346.65 17.478 1346.67 17.172 1346.69 16.92H1346.64L1345.97 19.224L1344.28 23.868H1343.2L1341.55 19.224L1340.86 16.92H1340.83C1340.85 17.172 1340.87 17.478 1340.9 17.838C1340.93 18.198 1340.96 18.57 1340.99 18.954C1341.01 19.338 1341.03 19.722 1341.04 20.106C1341.07 20.478 1341.08 20.808 1341.08 21.096V27H1339.67ZM1351.58 27V15.192H1353.06V25.722H1358.91V27H1351.58ZM1362.02 27V15.192H1369.32V16.452H1363.53V20.16H1368.42V21.438H1363.53V25.722H1369.5V27H1362.02ZM1374.93 20.394L1374.38 22.194H1377.9L1377.35 20.394C1377.14 19.734 1376.94 19.08 1376.73 18.432C1376.54 17.772 1376.36 17.1 1376.18 16.416H1376.1C1375.91 17.1 1375.72 17.772 1375.53 18.432C1375.34 19.08 1375.14 19.734 1374.93 20.394ZM1371.33 27L1375.31 15.192H1377L1380.98 27H1379.4L1378.28 23.4H1374L1372.86 27H1371.33ZM1383.12 27V15.192H1386.03C1387.82 15.192 1389.18 15.696 1390.1 16.704C1391.04 17.712 1391.5 19.158 1391.5 21.042C1391.5 22.926 1391.04 24.39 1390.1 25.434C1389.18 26.478 1387.84 27 1386.1 27H1383.12ZM1384.61 25.776H1385.92C1387.28 25.776 1388.29 25.362 1388.95 24.534C1389.62 23.706 1389.96 22.542 1389.96 21.042C1389.96 19.542 1389.62 18.396 1388.95 17.604C1388.29 16.812 1387.28 16.416 1385.92 16.416H1384.61V25.776Z" fill="#676C79"></path> <rect x="1288.5" y="0.5" width="122" height="41" stroke="#7FE1E5"></rect> <path d="M1663.32 27.216C1662.59 27.216 1661.91 27.078 1661.28 26.802C1660.66 26.526 1660.11 26.13 1659.65 25.614C1659.19 25.086 1658.83 24.444 1658.57 23.688C1658.3 22.92 1658.17 22.056 1658.17 21.096C1658.17 20.148 1658.3 19.296 1658.57 18.54C1658.83 17.784 1659.2 17.142 1659.66 16.614C1660.13 16.086 1660.69 15.684 1661.34 15.408C1661.99 15.12 1662.69 14.976 1663.46 14.976C1664.17 14.976 1664.79 15.12 1665.33 15.408C1665.89 15.696 1666.34 16.032 1666.68 16.416L1665.84 17.37C1665.53 17.046 1665.18 16.788 1664.79 16.596C1664.41 16.392 1663.97 16.29 1663.46 16.29C1662.9 16.29 1662.38 16.404 1661.91 16.632C1661.46 16.848 1661.07 17.166 1660.74 17.586C1660.42 17.994 1660.17 18.492 1659.99 19.08C1659.81 19.668 1659.72 20.328 1659.72 21.06C1659.72 21.804 1659.81 22.476 1659.99 23.076C1660.17 23.664 1660.42 24.168 1660.74 24.588C1661.07 25.008 1661.46 25.332 1661.91 25.56C1662.38 25.788 1662.9 25.902 1663.46 25.902C1664 25.902 1664.48 25.788 1664.9 25.56C1665.33 25.332 1665.74 25.008 1666.13 24.588L1666.97 25.506C1666.5 26.046 1665.98 26.466 1665.39 26.766C1664.8 27.066 1664.11 27.216 1663.32 27.216ZM1672.44 27V16.452H1668.55V15.192H1677.84V16.452H1673.95V27H1672.44ZM1683.99 27.216C1683.31 27.216 1682.7 27.078 1682.15 26.802C1681.6 26.514 1681.12 26.106 1680.71 25.578C1680.31 25.05 1680 24.408 1679.77 23.652C1679.56 22.884 1679.45 22.014 1679.45 21.042C1679.45 20.094 1679.56 19.242 1679.77 18.486C1680 17.73 1680.31 17.094 1680.71 16.578C1681.12 16.062 1681.6 15.666 1682.15 15.39C1682.7 15.114 1683.31 14.976 1683.99 14.976C1684.65 14.976 1685.25 15.114 1685.8 15.39C1686.37 15.666 1686.85 16.062 1687.24 16.578C1687.65 17.094 1687.96 17.73 1688.18 18.486C1688.41 19.242 1688.52 20.094 1688.52 21.042C1688.52 22.014 1688.41 22.884 1688.18 23.652C1687.96 24.408 1687.65 25.05 1687.24 25.578C1686.85 26.106 1686.37 26.514 1685.8 26.802C1685.25 27.078 1684.65 27.216 1683.99 27.216ZM1683.99 25.902C1684.43 25.902 1684.84 25.794 1685.21 25.578C1685.58 25.35 1685.89 25.026 1686.15 24.606C1686.41 24.186 1686.61 23.676 1686.76 23.076C1686.9 22.476 1686.97 21.798 1686.97 21.042C1686.97 20.298 1686.9 19.632 1686.76 19.044C1686.61 18.456 1686.41 17.958 1686.15 17.55C1685.89 17.142 1685.58 16.83 1685.21 16.614C1684.84 16.398 1684.43 16.29 1683.99 16.29C1683.53 16.29 1683.12 16.398 1682.74 16.614C1682.38 16.83 1682.07 17.142 1681.81 17.55C1681.56 17.958 1681.36 18.456 1681.21 19.044C1681.07 19.632 1681 20.298 1681 21.042C1681 21.798 1681.07 22.476 1681.21 23.076C1681.36 23.676 1681.56 24.186 1681.81 24.606C1682.07 25.026 1682.38 25.35 1682.74 25.578C1683.12 25.794 1683.53 25.902 1683.99 25.902Z" fill="#676C79"></path> <rect x="1639.5" y="0.5" width="68" height="41" stroke="#7FE1E5"></rect> <path d="M1747.71 27V25.722H1750.64V16.452H1747.71V15.192H1755.09V16.452H1752.16V25.722H1755.09V27H1747.71ZM1758.27 27V15.192H1759.92L1763.7 22.608L1764.84 25.056H1764.87C1764.85 24.468 1764.81 23.856 1764.75 23.22C1764.7 22.572 1764.68 21.936 1764.68 21.312V15.192H1766.12V27H1764.46L1760.68 19.584L1759.55 17.136H1759.51C1759.53 17.748 1759.57 18.366 1759.62 18.99C1759.68 19.602 1759.71 20.214 1759.71 20.826V27H1758.27ZM1769.98 27V15.192H1777.23V16.452H1771.49V20.448H1776.35V21.708H1771.49V27H1769.98ZM1783.78 27.216C1783.11 27.216 1782.49 27.078 1781.94 26.802C1781.39 26.514 1780.91 26.106 1780.5 25.578C1780.11 25.05 1779.79 24.408 1779.57 23.652C1779.35 22.884 1779.24 22.014 1779.24 21.042C1779.24 20.094 1779.35 19.242 1779.57 18.486C1779.79 17.73 1780.11 17.094 1780.5 16.578C1780.91 16.062 1781.39 15.666 1781.94 15.39C1782.49 15.114 1783.11 14.976 1783.78 14.976C1784.44 14.976 1785.04 15.114 1785.6 15.39C1786.16 15.666 1786.64 16.062 1787.04 16.578C1787.44 17.094 1787.76 17.73 1787.97 18.486C1788.2 19.242 1788.31 20.094 1788.31 21.042C1788.31 22.014 1788.2 22.884 1787.97 23.652C1787.76 24.408 1787.44 25.05 1787.04 25.578C1786.64 26.106 1786.16 26.514 1785.6 26.802C1785.04 27.078 1784.44 27.216 1783.78 27.216ZM1783.78 25.902C1784.22 25.902 1784.63 25.794 1785 25.578C1785.37 25.35 1785.69 25.026 1785.94 24.606C1786.2 24.186 1786.41 23.676 1786.55 23.076C1786.69 22.476 1786.77 21.798 1786.77 21.042C1786.77 20.298 1786.69 19.632 1786.55 19.044C1786.41 18.456 1786.2 17.958 1785.94 17.55C1785.69 17.142 1785.37 16.83 1785 16.614C1784.63 16.398 1784.22 16.29 1783.78 16.29C1783.32 16.29 1782.91 16.398 1782.54 16.614C1782.18 16.83 1781.86 17.142 1781.6 17.55C1781.35 17.958 1781.15 18.456 1781.01 19.044C1780.86 19.632 1780.79 20.298 1780.79 21.042C1780.79 21.798 1780.86 22.476 1781.01 23.076C1781.15 23.676 1781.35 24.186 1781.6 24.606C1781.86 25.026 1782.18 25.35 1782.54 25.578C1782.91 25.794 1783.32 25.902 1783.78 25.902ZM1790.97 27V15.192H1794.64C1795.24 15.192 1795.8 15.252 1796.3 15.372C1796.8 15.48 1797.24 15.666 1797.6 15.93C1797.97 16.194 1798.26 16.536 1798.46 16.956C1798.66 17.376 1798.77 17.892 1798.77 18.504C1798.77 19.428 1798.53 20.166 1798.05 20.718C1797.57 21.27 1796.92 21.648 1796.12 21.852L1799.13 27H1797.42L1794.57 22.014H1792.47V27H1790.97ZM1792.47 20.79H1794.43C1795.35 20.79 1796.05 20.604 1796.53 20.232C1797.03 19.848 1797.27 19.272 1797.27 18.504C1797.27 17.724 1797.03 17.178 1796.53 16.866C1796.05 16.554 1795.35 16.398 1794.43 16.398H1792.47V20.79ZM1801.26 27V15.192H1803.1L1804.75 20.232L1805.33 22.14H1805.4L1805.96 20.232L1807.63 15.192H1809.47V27H1808.03V21.096C1808.03 20.808 1808.03 20.478 1808.05 20.106C1808.07 19.722 1808.09 19.338 1808.12 18.954C1808.15 18.57 1808.18 18.198 1808.21 17.838C1808.23 17.478 1808.26 17.172 1808.28 16.92H1808.23L1807.56 19.224L1805.87 23.868H1804.79L1803.13 19.224L1802.45 16.92H1802.41C1802.44 17.172 1802.46 17.478 1802.48 17.838C1802.52 18.198 1802.55 18.57 1802.57 18.954C1802.6 19.338 1802.62 19.722 1802.63 20.106C1802.65 20.478 1802.66 20.808 1802.66 21.096V27H1801.26ZM1814.93 20.394L1814.38 22.194H1817.9L1817.35 20.394C1817.14 19.734 1816.94 19.08 1816.73 18.432C1816.54 17.772 1816.36 17.1 1816.18 16.416H1816.1C1815.91 17.1 1815.72 17.772 1815.53 18.432C1815.34 19.08 1815.14 19.734 1814.93 20.394ZM1811.33 27L1815.31 15.192H1817L1820.98 27H1819.4L1818.28 23.4H1814L1812.86 27H1811.33ZM1826.19 27V16.452H1822.31V15.192L1831.59 15.192V16.452H1827.71V27H1826.19ZM1834.05 27V25.722H1836.99V16.452H1834.05V15.192H1841.43V16.452H1838.5V25.722H1841.43V27H1834.05ZM1848.54 27.216C1847.86 27.216 1847.25 27.078 1846.7 26.802C1846.15 26.514 1845.67 26.106 1845.26 25.578C1844.86 25.05 1844.55 24.408 1844.32 23.652C1844.11 22.884 1844 22.014 1844 21.042C1844 20.094 1844.11 19.242 1844.32 18.486C1844.55 17.73 1844.86 17.094 1845.26 16.578C1845.67 16.062 1846.15 15.666 1846.7 15.39C1847.25 15.114 1847.86 14.976 1848.54 14.976C1849.2 14.976 1849.8 15.114 1850.35 15.39C1850.92 15.666 1851.4 16.062 1851.79 16.578C1852.2 17.094 1852.51 17.73 1852.73 18.486C1852.96 19.242 1853.07 20.094 1853.07 21.042C1853.07 22.014 1852.96 22.884 1852.73 23.652C1852.51 24.408 1852.2 25.05 1851.79 25.578C1851.4 26.106 1850.92 26.514 1850.35 26.802C1849.8 27.078 1849.2 27.216 1848.54 27.216ZM1848.54 25.902C1848.98 25.902 1849.39 25.794 1849.76 25.578C1850.13 25.35 1850.44 25.026 1850.7 24.606C1850.96 24.186 1851.16 23.676 1851.31 23.076C1851.45 22.476 1851.52 21.798 1851.52 21.042C1851.52 20.298 1851.45 19.632 1851.31 19.044C1851.16 18.456 1850.96 17.958 1850.7 17.55C1850.44 17.142 1850.13 16.83 1849.76 16.614C1849.39 16.398 1848.98 16.29 1848.54 16.29C1848.08 16.29 1847.67 16.398 1847.29 16.614C1846.93 16.83 1846.62 17.142 1846.36 17.55C1846.11 17.958 1845.91 18.456 1845.76 19.044C1845.62 19.632 1845.55 20.298 1845.55 21.042C1845.55 21.798 1845.62 22.476 1845.76 23.076C1845.91 23.676 1846.11 24.186 1846.36 24.606C1846.62 25.026 1846.93 25.35 1847.29 25.578C1847.67 25.794 1848.08 25.902 1848.54 25.902ZM1855.41 27V15.192H1857.06L1860.84 22.608L1861.98 25.056H1862.01C1861.99 24.468 1861.95 23.856 1861.89 23.22C1861.84 22.572 1861.81 21.936 1861.81 21.312V15.192H1863.25V27H1861.6L1857.82 19.584L1856.68 17.136H1856.65C1856.67 17.748 1856.71 18.366 1856.76 18.99C1856.82 19.602 1856.85 20.214 1856.85 20.826V27H1855.41ZM1881.01 27.216C1880.14 27.216 1879.34 27.06 1878.61 26.748C1877.89 26.436 1877.26 26.01 1876.72 25.47L1877.62 24.426C1878.07 24.87 1878.58 25.23 1879.17 25.506C1879.76 25.77 1880.39 25.902 1881.08 25.902C1881.89 25.902 1882.52 25.728 1882.97 25.38C1883.42 25.032 1883.65 24.582 1883.65 24.03C1883.65 23.718 1883.6 23.454 1883.49 23.238C1883.38 23.022 1883.23 22.836 1883.04 22.68C1882.85 22.524 1882.62 22.386 1882.36 22.266C1882.1 22.146 1881.83 22.02 1881.53 21.888L1879.84 21.15C1879.54 21.03 1879.24 20.886 1878.94 20.718C1878.64 20.55 1878.36 20.346 1878.11 20.106C1877.87 19.866 1877.67 19.584 1877.51 19.26C1877.36 18.924 1877.28 18.54 1877.28 18.108C1877.28 17.664 1877.38 17.25 1877.57 16.866C1877.76 16.482 1878.02 16.152 1878.36 15.876C1878.71 15.588 1879.12 15.366 1879.58 15.21C1880.06 15.054 1880.59 14.976 1881.15 14.976C1881.89 14.976 1882.58 15.114 1883.2 15.39C1883.83 15.654 1884.35 16.002 1884.79 16.434L1883.99 17.406C1883.61 17.058 1883.18 16.788 1882.72 16.596C1882.25 16.392 1881.71 16.29 1881.1 16.29C1880.41 16.29 1879.86 16.446 1879.44 16.758C1879.02 17.058 1878.81 17.478 1878.81 18.018C1878.81 18.306 1878.87 18.552 1878.99 18.756C1879.12 18.948 1879.28 19.122 1879.48 19.278C1879.68 19.422 1879.91 19.548 1880.16 19.656C1880.41 19.764 1880.66 19.872 1880.92 19.98L1882.57 20.7C1882.93 20.844 1883.27 21.012 1883.58 21.204C1883.9 21.384 1884.18 21.6 1884.41 21.852C1884.65 22.092 1884.83 22.38 1884.97 22.716C1885.11 23.04 1885.18 23.418 1885.18 23.85C1885.18 24.318 1885.09 24.756 1884.89 25.164C1884.7 25.572 1884.43 25.932 1884.07 26.244C1883.71 26.544 1883.27 26.784 1882.75 26.964C1882.24 27.132 1881.65 27.216 1881.01 27.216ZM1888.36 27V15.192H1895.67V16.452H1889.87V20.16H1894.77V21.438H1889.87V25.722H1895.85V27H1888.36ZM1903.42 27.216C1902.69 27.216 1902.01 27.078 1901.39 26.802C1900.76 26.526 1900.22 26.13 1899.75 25.614C1899.29 25.086 1898.93 24.444 1898.67 23.688C1898.4 22.92 1898.27 22.056 1898.27 21.096C1898.27 20.148 1898.4 19.296 1898.67 18.54C1898.93 17.784 1899.3 17.142 1899.77 16.614C1900.23 16.086 1900.79 15.684 1901.44 15.408C1902.09 15.12 1902.8 14.976 1903.56 14.976C1904.27 14.976 1904.9 15.12 1905.44 15.408C1905.99 15.696 1906.44 16.032 1906.79 16.416L1905.94 17.37C1905.63 17.046 1905.28 16.788 1904.9 16.596C1904.51 16.392 1904.07 16.29 1903.56 16.29C1903 16.29 1902.48 16.404 1902.02 16.632C1901.56 16.848 1901.17 17.166 1900.85 17.586C1900.52 17.994 1900.27 18.492 1900.09 19.08C1899.91 19.668 1899.82 20.328 1899.82 21.06C1899.82 21.804 1899.91 22.476 1900.09 23.076C1900.27 23.664 1900.52 24.168 1900.85 24.588C1901.17 25.008 1901.56 25.332 1902.02 25.56C1902.48 25.788 1903 25.902 1903.56 25.902C1904.1 25.902 1904.58 25.788 1905 25.56C1905.44 25.332 1905.84 25.008 1906.23 24.588L1907.07 25.506C1906.61 26.046 1906.08 26.466 1905.49 26.766C1904.9 27.066 1904.21 27.216 1903.42 27.216ZM1913.31 27.216C1912.74 27.216 1912.2 27.132 1911.71 26.964C1911.22 26.796 1910.79 26.526 1910.43 26.154C1910.08 25.77 1909.81 25.284 1909.6 24.696C1909.41 24.108 1909.32 23.388 1909.32 22.536V15.192H1910.83V22.572C1910.83 23.184 1910.89 23.706 1911.01 24.138C1911.14 24.558 1911.31 24.9 1911.53 25.164C1911.76 25.416 1912.02 25.602 1912.32 25.722C1912.62 25.842 1912.95 25.902 1913.31 25.902C1913.67 25.902 1914 25.842 1914.3 25.722C1914.6 25.602 1914.87 25.416 1915.09 25.164C1915.32 24.9 1915.5 24.558 1915.62 24.138C1915.75 23.706 1915.81 23.184 1915.81 22.572V15.192H1917.27V22.536C1917.27 23.388 1917.17 24.108 1916.97 24.696C1916.77 25.284 1916.5 25.77 1916.16 26.154C1915.81 26.526 1915.39 26.796 1914.9 26.964C1914.42 27.132 1913.89 27.216 1913.31 27.216ZM1920.49 27V15.192L1924.16 15.192C1924.76 15.192 1925.31 15.252 1925.82 15.372C1926.32 15.48 1926.75 15.666 1927.11 15.93C1927.48 16.194 1927.77 16.536 1927.98 16.956C1928.18 17.376 1928.28 17.892 1928.28 18.504C1928.28 19.428 1928.04 20.166 1927.56 20.718C1927.08 21.27 1926.44 21.648 1925.64 21.852L1928.64 27H1926.93L1924.09 22.014H1921.98V27H1920.49ZM1921.98 20.79H1923.94C1924.87 20.79 1925.57 20.604 1926.05 20.232C1926.54 19.848 1926.79 19.272 1926.79 18.504C1926.79 17.724 1926.54 17.178 1926.05 16.866C1925.57 16.554 1924.87 16.398 1923.94 16.398H1921.98V20.79ZM1931.19 27V25.722H1934.12V16.452H1931.19V15.192H1938.57V16.452H1935.64V25.722L1938.57 25.722V27L1931.19 27ZM1944.92 27V16.452H1941.03V15.192H1950.32V16.452H1946.43V27H1944.92ZM1955.71 27V22.788L1951.75 15.192H1953.33L1955.12 18.702C1955.34 19.158 1955.57 19.614 1955.78 20.07C1956 20.514 1956.23 20.976 1956.47 21.456H1956.54C1956.78 20.976 1957.01 20.508 1957.24 20.052C1957.47 19.596 1957.7 19.14 1957.92 18.684L1959.63 15.192H1961.18L1957.22 22.788V27H1955.71Z" fill="#676C79"></path> <rect x="1728.5" y="0.5" width="251" height="41" stroke="#8CA6EA"></rect> <path d="M2019.48 27V15.192H2021.13L2024.91 22.608L2026.05 25.056H2026.08C2026.06 24.468 2026.02 23.856 2025.96 23.22C2025.91 22.572 2025.88 21.936 2025.88 21.312V15.192H2027.32V27H2025.67L2021.89 19.584L2020.75 17.136H2020.72C2020.74 17.748 2020.78 18.366 2020.83 18.99C2020.89 19.602 2020.92 20.214 2020.92 20.826V27H2019.48ZM2031.2 27V15.192H2032.68V25.722H2038.53V27H2031.2ZM2041.42 27V15.192H2044.99C2045.63 15.192 2046.23 15.252 2046.77 15.372C2047.31 15.492 2047.77 15.69 2048.15 15.966C2048.54 16.23 2048.83 16.584 2049.04 17.028C2049.25 17.472 2049.36 18.018 2049.36 18.666C2049.36 19.29 2049.25 19.83 2049.04 20.286C2048.83 20.742 2048.53 21.12 2048.14 21.42C2047.75 21.72 2047.29 21.948 2046.75 22.104C2046.22 22.248 2045.63 22.32 2044.99 22.32H2042.92V27H2041.42ZM2042.92 21.096H2044.81C2045.85 21.096 2046.62 20.904 2047.11 20.52C2047.6 20.124 2047.85 19.506 2047.85 18.666C2047.85 17.814 2047.6 17.226 2047.09 16.902C2046.59 16.566 2045.83 16.398 2044.81 16.398H2042.92V21.096Z" fill="#676C79"></path> <rect x="2000.5" y="0.5" width="68" height="41" stroke="#8CA6EA"></rect> <path d="M1453.54 27L1449.77 15.192H1451.36L1453.27 21.564C1453.47 22.272 1453.66 22.926 1453.82 23.526C1453.99 24.126 1454.18 24.774 1454.4 25.47H1454.47C1454.58 25.122 1454.68 24.792 1454.78 24.48C1454.87 24.156 1454.96 23.838 1455.05 23.526C1455.14 23.214 1455.23 22.896 1455.32 22.572C1455.41 22.248 1455.51 21.912 1455.61 21.564L1457.5 15.192H1459.03L1455.28 27H1453.54ZM1461.63 27V15.192H1465.19C1465.84 15.192 1466.43 15.252 1466.97 15.372C1467.51 15.492 1467.98 15.69 1468.36 15.966C1468.74 16.23 1469.04 16.584 1469.24 17.028C1469.46 17.472 1469.57 18.018 1469.57 18.666C1469.57 19.29 1469.46 19.83 1469.24 20.286C1469.04 20.742 1468.74 21.12 1468.34 21.42C1467.96 21.72 1467.5 21.948 1466.96 22.104C1466.43 22.248 1465.84 22.32 1465.19 22.32H1463.12V27H1461.63ZM1463.12 21.096H1465.01C1466.06 21.096 1466.82 20.904 1467.32 20.52C1467.81 20.124 1468.05 19.506 1468.05 18.666C1468.05 17.814 1467.8 17.226 1467.3 16.902C1466.79 16.566 1466.03 16.398 1465.01 16.398H1463.12V21.096ZM1483.43 27V15.192H1490.74V16.452H1484.94V20.16H1489.84V21.438H1484.94V25.722H1490.92V27H1483.43ZM1493.65 27V15.192H1495.3L1499.08 22.608L1500.22 25.056H1500.25C1500.23 24.468 1500.19 23.856 1500.13 23.22C1500.08 22.572 1500.06 21.936 1500.06 21.312V15.192H1501.5V27H1499.84L1496.06 19.584L1494.93 17.136H1494.89C1494.91 17.748 1494.95 18.366 1495 18.99C1495.06 19.602 1495.09 20.214 1495.09 20.826V27H1493.65ZM1509.03 27.216C1508.29 27.216 1507.6 27.078 1506.98 26.802C1506.35 26.526 1505.81 26.13 1505.36 25.614C1504.9 25.086 1504.55 24.444 1504.3 23.688C1504.04 22.92 1503.92 22.056 1503.92 21.096C1503.92 20.148 1504.04 19.296 1504.3 18.54C1504.56 17.772 1504.92 17.13 1505.38 16.614C1505.84 16.086 1506.4 15.684 1507.03 15.408C1507.68 15.12 1508.39 14.976 1509.16 14.976C1509.55 14.976 1509.91 15.018 1510.24 15.102C1510.56 15.186 1510.85 15.3 1511.12 15.444C1511.39 15.576 1511.63 15.726 1511.84 15.894C1512.05 16.062 1512.25 16.236 1512.41 16.416L1511.57 17.37C1511.28 17.058 1510.95 16.8 1510.58 16.596C1510.21 16.392 1509.73 16.29 1509.16 16.29C1508.6 16.29 1508.1 16.404 1507.64 16.632C1507.2 16.848 1506.82 17.166 1506.49 17.586C1506.17 17.994 1505.92 18.492 1505.74 19.08C1505.57 19.668 1505.48 20.328 1505.48 21.06C1505.48 21.804 1505.56 22.476 1505.72 23.076C1505.89 23.664 1506.12 24.168 1506.42 24.588C1506.73 25.008 1507.12 25.332 1507.57 25.56C1508.03 25.788 1508.54 25.902 1509.12 25.902C1509.54 25.902 1509.93 25.842 1510.29 25.722C1510.65 25.59 1510.94 25.416 1511.17 25.2V22.122H1508.81V20.88H1512.56V25.848C1512.19 26.232 1511.69 26.556 1511.08 26.82C1510.48 27.084 1509.8 27.216 1509.03 27.216ZM1515.47 27V25.722H1518.4V16.452H1515.47V15.192H1522.85V16.452H1519.91V25.722H1522.85V27H1515.47ZM1526.03 27V15.192H1527.68L1531.46 22.608L1532.6 25.056H1532.63C1532.61 24.468 1532.57 23.856 1532.51 23.22C1532.46 22.572 1532.43 21.936 1532.43 21.312V15.192H1533.87V27H1532.22L1528.44 19.584L1527.3 17.136H1527.27C1527.29 17.748 1527.33 18.366 1527.38 18.99C1527.44 19.602 1527.47 20.214 1527.47 20.826V27H1526.03ZM1537.4 27V15.192H1544.7V16.452H1538.91V20.16H1543.8V21.438H1538.91V25.722H1544.88V27H1537.4ZM1548.19 27V15.192H1555.5V16.452H1549.7V20.16H1554.6V21.438H1549.7V25.722H1555.68V27H1548.19ZM1558.73 27V15.192H1562.4C1563 15.192 1563.55 15.252 1564.06 15.372C1564.56 15.48 1564.99 15.666 1565.35 15.93C1565.73 16.194 1566.01 16.536 1566.22 16.956C1566.42 17.376 1566.52 17.892 1566.52 18.504C1566.52 19.428 1566.28 20.166 1565.8 20.718C1565.32 21.27 1564.68 21.648 1563.88 21.852L1566.88 27H1565.17L1562.33 22.014H1560.22V27H1558.73ZM1560.22 20.79H1562.19C1563.11 20.79 1563.81 20.604 1564.29 20.232C1564.78 19.848 1565.03 19.272 1565.03 18.504C1565.03 17.724 1564.78 17.178 1564.29 16.866C1563.81 16.554 1563.11 16.398 1562.19 16.398H1560.22V20.79ZM1569.43 27V25.722H1572.37V16.452H1569.43V15.192H1576.81V16.452H1573.88V25.722H1576.81V27H1569.43ZM1579.99 27V15.192H1581.65L1585.43 22.608L1586.56 25.056H1586.6C1586.57 24.468 1586.53 23.856 1586.47 23.22C1586.42 22.572 1586.4 21.936 1586.4 21.312V15.192H1587.84V27H1586.18L1582.4 19.584L1581.27 17.136H1581.23C1581.26 17.748 1581.29 18.366 1581.34 18.99C1581.4 19.602 1581.43 20.214 1581.43 20.826V27H1579.99ZM1595.37 27.216C1594.63 27.216 1593.95 27.078 1593.32 26.802C1592.7 26.526 1592.16 26.13 1591.7 25.614C1591.25 25.086 1590.89 24.444 1590.64 23.688C1590.39 22.92 1590.26 22.056 1590.26 21.096C1590.26 20.148 1590.39 19.296 1590.64 18.54C1590.9 17.772 1591.26 17.13 1591.72 16.614C1592.19 16.086 1592.74 15.684 1593.38 15.408C1594.02 15.12 1594.73 14.976 1595.5 14.976C1595.9 14.976 1596.26 15.018 1596.58 15.102C1596.9 15.186 1597.2 15.3 1597.46 15.444C1597.74 15.576 1597.98 15.726 1598.18 15.894C1598.4 16.062 1598.59 16.236 1598.76 16.416L1597.91 17.37C1597.62 17.058 1597.29 16.8 1596.92 16.596C1596.55 16.392 1596.08 16.29 1595.5 16.29C1594.95 16.29 1594.44 16.404 1593.99 16.632C1593.54 16.848 1593.16 17.166 1592.84 17.586C1592.51 17.994 1592.26 18.492 1592.08 19.08C1591.91 19.668 1591.83 20.328 1591.83 21.06C1591.83 21.804 1591.91 22.476 1592.06 23.076C1592.23 23.664 1592.46 24.168 1592.76 24.588C1593.08 25.008 1593.46 25.332 1593.92 25.56C1594.37 25.788 1594.89 25.902 1595.46 25.902C1595.88 25.902 1596.27 25.842 1596.63 25.722C1596.99 25.59 1597.29 25.416 1597.52 25.2V22.122H1595.16V20.88H1598.9V25.848C1598.53 26.232 1598.04 26.556 1597.43 26.82C1596.83 27.084 1596.14 27.216 1595.37 27.216Z" fill="#676C79"></path> <rect x="1431.5" y="0.5" width="187" height="41" stroke="#A48DEB"></rect> <path d="M2112.49 27.216C2111.63 27.216 2110.83 27.06 2110.1 26.748C2109.38 26.436 2108.75 26.01 2108.21 25.47L2109.11 24.426C2109.55 24.87 2110.07 25.23 2110.65 25.506C2111.24 25.77 2111.88 25.902 2112.56 25.902C2113.38 25.902 2114.01 25.728 2114.45 25.38C2114.91 25.032 2115.14 24.582 2115.14 24.03C2115.14 23.718 2115.08 23.454 2114.97 23.238C2114.87 23.022 2114.72 22.836 2114.52 22.68C2114.33 22.524 2114.1 22.386 2113.84 22.266C2113.59 22.146 2113.31 22.02 2113.01 21.888L2111.32 21.15C2111.02 21.03 2110.72 20.886 2110.42 20.718C2110.12 20.55 2109.84 20.346 2109.59 20.106C2109.35 19.866 2109.15 19.584 2109 19.26C2108.84 18.924 2108.76 18.54 2108.76 18.108C2108.76 17.664 2108.86 17.25 2109.05 16.866C2109.24 16.482 2109.51 16.152 2109.84 15.876C2110.19 15.588 2110.6 15.366 2111.07 15.21C2111.55 15.054 2112.07 14.976 2112.63 14.976C2113.38 14.976 2114.06 15.114 2114.69 15.39C2115.31 15.654 2115.84 16.002 2116.27 16.434L2115.48 17.406C2115.09 17.058 2114.67 16.788 2114.2 16.596C2113.73 16.392 2113.19 16.29 2112.58 16.29C2111.9 16.29 2111.34 16.446 2110.92 16.758C2110.5 17.058 2110.29 17.478 2110.29 18.018C2110.29 18.306 2110.35 18.552 2110.47 18.756C2110.61 18.948 2110.77 19.122 2110.96 19.278C2111.16 19.422 2111.39 19.548 2111.64 19.656C2111.9 19.764 2112.15 19.872 2112.4 19.98L2114.06 20.7C2114.42 20.844 2114.75 21.012 2115.06 21.204C2115.39 21.384 2115.66 21.6 2115.89 21.852C2116.13 22.092 2116.32 22.38 2116.45 22.716C2116.59 23.04 2116.67 23.418 2116.67 23.85C2116.67 24.318 2116.57 24.756 2116.38 25.164C2116.19 25.572 2115.91 25.932 2115.55 26.244C2115.19 26.544 2114.75 26.784 2114.24 26.964C2113.72 27.132 2113.14 27.216 2112.49 27.216ZM2119.59 27V15.192H2123.26C2123.86 15.192 2124.42 15.252 2124.92 15.372C2125.42 15.48 2125.86 15.666 2126.22 15.93C2126.59 16.194 2126.88 16.536 2127.08 16.956C2127.28 17.376 2127.39 17.892 2127.39 18.504C2127.39 19.428 2127.15 20.166 2126.67 20.718C2126.19 21.27 2125.54 21.648 2124.74 21.852L2127.75 27H2126.04L2123.19 22.014H2121.09V27H2119.59ZM2121.09 20.79H2123.05C2123.97 20.79 2124.67 20.604 2125.15 20.232C2125.65 19.848 2125.89 19.272 2125.89 18.504C2125.89 17.724 2125.65 17.178 2125.15 16.866C2124.67 16.554 2123.97 16.398 2123.05 16.398H2121.09V20.79ZM2130.64 27V15.192H2137.95V16.452H2132.15V20.16H2137.05V21.438H2132.15V25.722H2138.13V27H2130.64Z" fill="#676C79"></path> <rect x="2089.5" y="0.5" width="68" height="41" stroke="#A48DEB"></rect> <path d="M97.836 27V15.192H101.4C102.048 15.192 102.642 15.252 103.182 15.372C103.722 15.492 104.184 15.69 104.568 15.966C104.952 16.23 105.246 16.584 105.45 17.028C105.666 17.472 105.774 18.018 105.774 18.666C105.774 19.29 105.666 19.83 105.45 20.286C105.246 20.742 104.946 21.12 104.55 21.42C104.166 21.72 103.704 21.948 103.164 22.104C102.636 22.248 102.048 22.32 101.4 22.32H99.33V27H97.836ZM99.33 21.096H101.22C102.264 21.096 103.032 20.904 103.524 20.52C104.016 20.124 104.262 19.506 104.262 18.666C104.262 17.814 104.01 17.226 103.506 16.902C103.002 16.566 102.24 16.398 101.22 16.398H99.33V21.096ZM111.437 27V22.788L107.477 15.192H109.061L110.843 18.702C111.071 19.158 111.293 19.614 111.509 20.07C111.725 20.514 111.953 20.976 112.193 21.456H112.265C112.505 20.976 112.739 20.508 112.967 20.052C113.195 19.596 113.423 19.14 113.651 18.684L115.361 15.192H116.909L112.949 22.788V27H111.437ZM122.23 27V16.452H118.342V15.192H127.63V16.452H123.742V27H122.23ZM129.801 27V15.192H131.313V20.142H136.245V15.192H137.757V27H136.245V21.438H131.313V27H129.801ZM144.572 27.216C143.9 27.216 143.288 27.078 142.736 26.802C142.184 26.514 141.704 26.106 141.296 25.578C140.9 25.05 140.588 24.408 140.36 23.652C140.144 22.884 140.036 22.014 140.036 21.042C140.036 20.094 140.144 19.242 140.36 18.486C140.588 17.73 140.9 17.094 141.296 16.578C141.704 16.062 142.184 15.666 142.736 15.39C143.288 15.114 143.9 14.976 144.572 14.976C145.232 14.976 145.838 15.114 146.39 15.39C146.954 15.666 147.434 16.062 147.83 16.578C148.238 17.094 148.55 17.73 148.766 18.486C148.994 19.242 149.108 20.094 149.108 21.042C149.108 22.014 148.994 22.884 148.766 23.652C148.55 24.408 148.238 25.05 147.83 25.578C147.434 26.106 146.954 26.514 146.39 26.802C145.838 27.078 145.232 27.216 144.572 27.216ZM144.572 25.902C145.016 25.902 145.424 25.794 145.796 25.578C146.168 25.35 146.48 25.026 146.732 24.606C146.996 24.186 147.2 23.676 147.344 23.076C147.488 22.476 147.56 21.798 147.56 21.042C147.56 20.298 147.488 19.632 147.344 19.044C147.2 18.456 146.996 17.958 146.732 17.55C146.48 17.142 146.168 16.83 145.796 16.614C145.424 16.398 145.016 16.29 144.572 16.29C144.116 16.29 143.702 16.398 143.33 16.614C142.97 16.83 142.658 17.142 142.394 17.55C142.142 17.958 141.944 18.456 141.8 19.044C141.656 19.632 141.584 20.298 141.584 21.042C141.584 21.798 141.656 22.476 141.8 23.076C141.944 23.676 142.142 24.186 142.394 24.606C142.658 25.026 142.97 25.35 143.33 25.578C143.702 25.794 144.116 25.902 144.572 25.902ZM151.441 27V15.192H153.097L156.877 22.608L158.011 25.056H158.047C158.023 24.468 157.981 23.856 157.921 23.22C157.873 22.572 157.849 21.936 157.849 21.312V15.192H159.289V27H157.633L153.853 19.584L152.719 17.136H152.683C152.707 17.748 152.743 18.366 152.791 18.99C152.851 19.602 152.881 20.214 152.881 20.826V27H151.441Z" fill="#676C79"></path> <rect x="78.5" y="0.5" width="100" height="41" stroke="#8CA6EA"></rect> <path d="M23.4 25.974C24.312 25.974 25.032 25.542 25.56 24.678C26.1 23.814 26.37 22.602 26.37 21.042C26.37 19.554 26.1 18.384 25.56 17.532C25.032 16.68 24.312 16.254 23.4 16.254C22.488 16.254 21.762 16.68 21.222 17.532C20.694 18.384 20.43 19.554 20.43 21.042C20.43 22.602 20.694 23.814 21.222 24.678C21.762 25.542 22.488 25.974 23.4 25.974ZM26.658 29.934C25.614 29.934 24.762 29.67 24.102 29.142C23.442 28.614 22.968 27.954 22.68 27.162C22.104 27.066 21.582 26.856 21.114 26.532C20.658 26.208 20.262 25.788 19.926 25.272C19.602 24.744 19.35 24.126 19.17 23.418C18.99 22.71 18.9 21.918 18.9 21.042C18.9 20.094 19.008 19.242 19.224 18.486C19.44 17.73 19.746 17.094 20.142 16.578C20.538 16.05 21.012 15.648 21.564 15.372C22.116 15.096 22.728 14.958 23.4 14.958C24.072 14.958 24.684 15.096 25.236 15.372C25.788 15.648 26.262 16.05 26.658 16.578C27.054 17.094 27.36 17.73 27.576 18.486C27.792 19.242 27.9 20.094 27.9 21.042C27.9 21.894 27.81 22.674 27.63 23.382C27.462 24.078 27.216 24.684 26.892 25.2C26.58 25.716 26.202 26.142 25.758 26.478C25.314 26.802 24.816 27.018 24.264 27.126C24.468 27.642 24.792 28.026 25.236 28.278C25.68 28.53 26.208 28.656 26.82 28.656C27 28.656 27.162 28.638 27.306 28.602C27.462 28.566 27.594 28.524 27.702 28.476L27.99 29.682C27.786 29.754 27.576 29.814 27.36 29.862C27.144 29.91 26.91 29.934 26.658 29.934ZM32.969 20.394L32.411 22.194H35.939L35.381 20.394C35.177 19.734 34.973 19.08 34.769 18.432C34.577 17.772 34.391 17.1 34.211 16.416H34.139C33.947 17.1 33.755 17.772 33.563 18.432C33.371 19.08 33.173 19.734 32.969 20.394ZM29.369 27L33.347 15.192H35.039L39.017 27H37.433L36.317 23.4H32.033L30.899 27H29.369Z" fill="#676C79"></path> <rect x="0.5" y="0.5" width="57" height="41" stroke="#8CA6EA"></rect> <path d="M221.644 27V16.452H217.756V15.192H227.044V16.452H223.156V27H221.644ZM229.845 27V15.192H237.153V16.452H231.357V20.16H236.253V21.438H231.357V25.722H237.333V27H229.845ZM242.762 20.394L242.204 22.194H245.732L245.174 20.394C244.97 19.734 244.766 19.08 244.562 18.432C244.37 17.772 244.184 17.1 244.004 16.416H243.932C243.74 17.1 243.548 17.772 243.356 18.432C243.164 19.08 242.966 19.734 242.762 20.394ZM239.162 27L243.14 15.192H244.832L248.81 27H247.226L246.11 23.4H241.826L240.692 27H239.162ZM250.675 27V15.192H252.511L254.167 20.232L254.743 22.14H254.815L255.373 20.232L257.047 15.192H258.883V27H257.443V21.096C257.443 20.808 257.449 20.478 257.461 20.106C257.485 19.722 257.509 19.338 257.533 18.954C257.569 18.57 257.599 18.198 257.623 17.838C257.647 17.478 257.671 17.172 257.695 16.92H257.641L256.975 19.224L255.283 23.868H254.203L252.547 19.224L251.863 16.92H251.827C251.851 17.172 251.875 17.478 251.899 17.838C251.935 18.198 251.965 18.57 251.989 18.954C252.013 19.338 252.031 19.722 252.043 20.106C252.067 20.478 252.079 20.808 252.079 21.096V27H250.675ZM262.584 27V15.192H264.06V25.722H269.91V27H262.584ZM273.017 27V15.192H280.325V16.452H274.529V20.16H279.425V21.438H274.529V25.722H280.505V27H273.017ZM285.934 20.394L285.376 22.194H288.904L288.346 20.394C288.142 19.734 287.938 19.08 287.734 18.432C287.542 17.772 287.356 17.1 287.176 16.416H287.104C286.912 17.1 286.72 17.772 286.528 18.432C286.336 19.08 286.138 19.734 285.934 20.394ZM282.334 27L286.312 15.192H288.004L291.982 27H290.398L289.282 23.4H284.998L283.864 27H282.334ZM294.117 27V15.192H297.033C298.821 15.192 300.177 15.696 301.101 16.704C302.037 17.712 302.505 19.158 302.505 21.042C302.505 22.926 302.037 24.39 301.101 25.434C300.177 26.478 298.845 27 297.105 27H294.117ZM295.611 25.776H296.925C298.281 25.776 299.289 25.362 299.949 24.534C300.621 23.706 300.957 22.542 300.957 21.042C300.957 19.542 300.621 18.396 299.949 17.604C299.289 16.812 298.281 16.416 296.925 16.416H295.611V25.776Z" fill="#676C79"></path> <rect x="199.5" y="0.5" width="122" height="41" stroke="#7FE1E5"></rect> <path d="M574.318 27.216C573.586 27.216 572.908 27.078 572.284 26.802C571.66 26.526 571.114 26.13 570.646 25.614C570.19 25.086 569.83 24.444 569.566 23.688C569.302 22.92 569.17 22.056 569.17 21.096C569.17 20.148 569.302 19.296 569.566 18.54C569.83 17.784 570.196 17.142 570.664 16.614C571.132 16.086 571.69 15.684 572.338 15.408C572.986 15.12 573.694 14.976 574.462 14.976C575.17 14.976 575.794 15.12 576.334 15.408C576.886 15.696 577.336 16.032 577.684 16.416L576.838 17.37C576.526 17.046 576.178 16.788 575.794 16.596C575.41 16.392 574.966 16.29 574.462 16.29C573.898 16.29 573.382 16.404 572.914 16.632C572.458 16.848 572.068 17.166 571.744 17.586C571.42 17.994 571.168 18.492 570.988 19.08C570.808 19.668 570.718 20.328 570.718 21.06C570.718 21.804 570.808 22.476 570.988 23.076C571.168 23.664 571.42 24.168 571.744 24.588C572.068 25.008 572.458 25.332 572.914 25.56C573.382 25.788 573.898 25.902 574.462 25.902C575.002 25.902 575.482 25.788 575.902 25.56C576.334 25.332 576.742 25.008 577.126 24.588L577.972 25.506C577.504 26.046 576.976 26.466 576.388 26.766C575.8 27.066 575.11 27.216 574.318 27.216ZM583.437 27V16.452H579.549V15.192H588.837V16.452H584.949V27H583.437ZM594.986 27.216C594.314 27.216 593.702 27.078 593.15 26.802C592.598 26.514 592.118 26.106 591.71 25.578C591.314 25.05 591.002 24.408 590.774 23.652C590.558 22.884 590.45 22.014 590.45 21.042C590.45 20.094 590.558 19.242 590.774 18.486C591.002 17.73 591.314 17.094 591.71 16.578C592.118 16.062 592.598 15.666 593.15 15.39C593.702 15.114 594.314 14.976 594.986 14.976C595.646 14.976 596.252 15.114 596.804 15.39C597.368 15.666 597.848 16.062 598.244 16.578C598.652 17.094 598.964 17.73 599.18 18.486C599.408 19.242 599.522 20.094 599.522 21.042C599.522 22.014 599.408 22.884 599.18 23.652C598.964 24.408 598.652 25.05 598.244 25.578C597.848 26.106 597.368 26.514 596.804 26.802C596.252 27.078 595.646 27.216 594.986 27.216ZM594.986 25.902C595.43 25.902 595.838 25.794 596.21 25.578C596.582 25.35 596.894 25.026 597.146 24.606C597.41 24.186 597.614 23.676 597.758 23.076C597.902 22.476 597.974 21.798 597.974 21.042C597.974 20.298 597.902 19.632 597.758 19.044C597.614 18.456 597.41 17.958 597.146 17.55C596.894 17.142 596.582 16.83 596.21 16.614C595.838 16.398 595.43 16.29 594.986 16.29C594.53 16.29 594.116 16.398 593.744 16.614C593.384 16.83 593.072 17.142 592.808 17.55C592.556 17.958 592.358 18.456 592.214 19.044C592.07 19.632 591.998 20.298 591.998 21.042C591.998 21.798 592.07 22.476 592.214 23.076C592.358 23.676 592.556 24.186 592.808 24.606C593.072 25.026 593.384 25.35 593.744 25.578C594.116 25.794 594.53 25.902 594.986 25.902Z" fill="#676C79"></path> <rect x="550.5" y="0.5" width="68" height="41" stroke="#7FE1E5"></rect> <path d="M658.71 27V25.722H661.644V16.452H658.71V15.192H666.09V16.452H663.156V25.722H666.09V27H658.71ZM669.269 27V15.192H670.925L674.705 22.608L675.839 25.056H675.875C675.851 24.468 675.809 23.856 675.749 23.22C675.701 22.572 675.677 21.936 675.677 21.312V15.192H677.117V27H675.461L671.681 19.584L670.547 17.136H670.511C670.535 17.748 670.571 18.366 670.619 18.99C670.679 19.602 670.709 20.214 670.709 20.826V27H669.269ZM680.98 27V15.192H688.234V16.452H682.492V20.448H687.352V21.708H682.492V27H680.98ZM694.779 27.216C694.107 27.216 693.495 27.078 692.943 26.802C692.391 26.514 691.911 26.106 691.503 25.578C691.107 25.05 690.795 24.408 690.567 23.652C690.351 22.884 690.243 22.014 690.243 21.042C690.243 20.094 690.351 19.242 690.567 18.486C690.795 17.73 691.107 17.094 691.503 16.578C691.911 16.062 692.391 15.666 692.943 15.39C693.495 15.114 694.107 14.976 694.779 14.976C695.439 14.976 696.045 15.114 696.597 15.39C697.161 15.666 697.641 16.062 698.037 16.578C698.445 17.094 698.757 17.73 698.973 18.486C699.201 19.242 699.315 20.094 699.315 21.042C699.315 22.014 699.201 22.884 698.973 23.652C698.757 24.408 698.445 25.05 698.037 25.578C697.641 26.106 697.161 26.514 696.597 26.802C696.045 27.078 695.439 27.216 694.779 27.216ZM694.779 25.902C695.223 25.902 695.631 25.794 696.003 25.578C696.375 25.35 696.687 25.026 696.939 24.606C697.203 24.186 697.407 23.676 697.551 23.076C697.695 22.476 697.767 21.798 697.767 21.042C697.767 20.298 697.695 19.632 697.551 19.044C697.407 18.456 697.203 17.958 696.939 17.55C696.687 17.142 696.375 16.83 696.003 16.614C695.631 16.398 695.223 16.29 694.779 16.29C694.323 16.29 693.909 16.398 693.537 16.614C693.177 16.83 692.865 17.142 692.601 17.55C692.349 17.958 692.151 18.456 692.007 19.044C691.863 19.632 691.791 20.298 691.791 21.042C691.791 21.798 691.863 22.476 692.007 23.076C692.151 23.676 692.349 24.186 692.601 24.606C692.865 25.026 693.177 25.35 693.537 25.578C693.909 25.794 694.323 25.902 694.779 25.902ZM701.972 27V15.192H705.644C706.244 15.192 706.796 15.252 707.3 15.372C707.804 15.48 708.236 15.666 708.596 15.93C708.968 16.194 709.256 16.536 709.46 16.956C709.664 17.376 709.766 17.892 709.766 18.504C709.766 19.428 709.526 20.166 709.046 20.718C708.566 21.27 707.924 21.648 707.12 21.852L710.126 27H708.416L705.572 22.014H703.466V27H701.972ZM703.466 20.79H705.428C706.352 20.79 707.054 20.604 707.534 20.232C708.026 19.848 708.272 19.272 708.272 18.504C708.272 17.724 708.026 17.178 707.534 16.866C707.054 16.554 706.352 16.398 705.428 16.398H703.466V20.79ZM712.261 27V15.192H714.097L715.753 20.232L716.329 22.14H716.401L716.959 20.232L718.633 15.192H720.469V27H719.029V21.096C719.029 20.808 719.035 20.478 719.047 20.106C719.071 19.722 719.095 19.338 719.119 18.954C719.155 18.57 719.185 18.198 719.209 17.838C719.233 17.478 719.257 17.172 719.281 16.92H719.227L718.561 19.224L716.869 23.868H715.789L714.133 19.224L713.449 16.92H713.413C713.437 17.172 713.461 17.478 713.485 17.838C713.521 18.198 713.551 18.57 713.575 18.954C713.599 19.338 713.617 19.722 713.629 20.106C713.653 20.478 713.665 20.808 713.665 21.096V27H712.261ZM725.934 20.394L725.376 22.194H728.904L728.346 20.394C728.142 19.734 727.938 19.08 727.734 18.432C727.542 17.772 727.356 17.1 727.176 16.416H727.104C726.912 17.1 726.72 17.772 726.528 18.432C726.336 19.08 726.138 19.734 725.934 20.394ZM722.334 27L726.312 15.192H728.004L731.982 27H730.398L729.282 23.4H724.998L723.864 27H722.334ZM737.195 27V16.452H733.307V15.192L742.595 15.192V16.452H738.707V27H737.195ZM745.054 27V25.722H747.988V16.452H745.054V15.192H752.434V16.452H749.5V25.722H752.434V27H745.054ZM759.537 27.216C758.865 27.216 758.253 27.078 757.701 26.802C757.149 26.514 756.669 26.106 756.261 25.578C755.865 25.05 755.553 24.408 755.325 23.652C755.109 22.884 755.001 22.014 755.001 21.042C755.001 20.094 755.109 19.242 755.325 18.486C755.553 17.73 755.865 17.094 756.261 16.578C756.669 16.062 757.149 15.666 757.701 15.39C758.253 15.114 758.865 14.976 759.537 14.976C760.197 14.976 760.803 15.114 761.355 15.39C761.919 15.666 762.399 16.062 762.795 16.578C763.203 17.094 763.515 17.73 763.731 18.486C763.959 19.242 764.073 20.094 764.073 21.042C764.073 22.014 763.959 22.884 763.731 23.652C763.515 24.408 763.203 25.05 762.795 25.578C762.399 26.106 761.919 26.514 761.355 26.802C760.803 27.078 760.197 27.216 759.537 27.216ZM759.537 25.902C759.981 25.902 760.389 25.794 760.761 25.578C761.133 25.35 761.445 25.026 761.697 24.606C761.961 24.186 762.165 23.676 762.309 23.076C762.453 22.476 762.525 21.798 762.525 21.042C762.525 20.298 762.453 19.632 762.309 19.044C762.165 18.456 761.961 17.958 761.697 17.55C761.445 17.142 761.133 16.83 760.761 16.614C760.389 16.398 759.981 16.29 759.537 16.29C759.081 16.29 758.667 16.398 758.295 16.614C757.935 16.83 757.623 17.142 757.359 17.55C757.107 17.958 756.909 18.456 756.765 19.044C756.621 19.632 756.549 20.298 756.549 21.042C756.549 21.798 756.621 22.476 756.765 23.076C756.909 23.676 757.107 24.186 757.359 24.606C757.623 25.026 757.935 25.35 758.295 25.578C758.667 25.794 759.081 25.902 759.537 25.902ZM766.406 27V15.192H768.062L771.842 22.608L772.976 25.056H773.012C772.988 24.468 772.946 23.856 772.886 23.22C772.838 22.572 772.814 21.936 772.814 21.312V15.192H774.254V27H772.598L768.818 19.584L767.684 17.136H767.648C767.672 17.748 767.708 18.366 767.756 18.99C767.816 19.602 767.846 20.214 767.846 20.826V27H766.406ZM792.006 27.216C791.142 27.216 790.344 27.06 789.612 26.748C788.892 26.436 788.262 26.01 787.722 25.47L788.622 24.426C789.066 24.87 789.582 25.23 790.17 25.506C790.758 25.77 791.394 25.902 792.078 25.902C792.894 25.902 793.524 25.728 793.968 25.38C794.424 25.032 794.652 24.582 794.652 24.03C794.652 23.718 794.598 23.454 794.49 23.238C794.382 23.022 794.232 22.836 794.04 22.68C793.848 22.524 793.62 22.386 793.356 22.266C793.104 22.146 792.828 22.02 792.528 21.888L790.836 21.15C790.536 21.03 790.236 20.886 789.936 20.718C789.636 20.55 789.36 20.346 789.108 20.106C788.868 19.866 788.67 19.584 788.514 19.26C788.358 18.924 788.28 18.54 788.28 18.108C788.28 17.664 788.376 17.25 788.568 16.866C788.76 16.482 789.024 16.152 789.36 15.876C789.708 15.588 790.116 15.366 790.584 15.21C791.064 15.054 791.586 14.976 792.15 14.976C792.894 14.976 793.578 15.114 794.202 15.39C794.826 15.654 795.354 16.002 795.786 16.434L794.994 17.406C794.61 17.058 794.184 16.788 793.716 16.596C793.248 16.392 792.708 16.29 792.096 16.29C791.412 16.29 790.86 16.446 790.44 16.758C790.02 17.058 789.81 17.478 789.81 18.018C789.81 18.306 789.87 18.552 789.99 18.756C790.122 18.948 790.284 19.122 790.476 19.278C790.68 19.422 790.908 19.548 791.16 19.656C791.412 19.764 791.664 19.872 791.916 19.98L793.572 20.7C793.932 20.844 794.268 21.012 794.58 21.204C794.904 21.384 795.18 21.6 795.408 21.852C795.648 22.092 795.834 22.38 795.966 22.716C796.11 23.04 796.182 23.418 796.182 23.85C796.182 24.318 796.086 24.756 795.894 25.164C795.702 25.572 795.426 25.932 795.066 26.244C794.706 26.544 794.268 26.784 793.752 26.964C793.236 27.132 792.654 27.216 792.006 27.216ZM799.361 27V15.192H806.669V16.452H800.873V20.16H805.769V21.438H800.873V25.722H806.849V27H799.361ZM814.42 27.216C813.688 27.216 813.01 27.078 812.386 26.802C811.762 26.526 811.216 26.13 810.748 25.614C810.292 25.086 809.932 24.444 809.668 23.688C809.404 22.92 809.272 22.056 809.272 21.096C809.272 20.148 809.404 19.296 809.668 18.54C809.932 17.784 810.298 17.142 810.766 16.614C811.234 16.086 811.792 15.684 812.44 15.408C813.088 15.12 813.796 14.976 814.564 14.976C815.272 14.976 815.896 15.12 816.436 15.408C816.988 15.696 817.438 16.032 817.786 16.416L816.94 17.37C816.628 17.046 816.28 16.788 815.896 16.596C815.512 16.392 815.068 16.29 814.564 16.29C814 16.29 813.484 16.404 813.016 16.632C812.56 16.848 812.17 17.166 811.846 17.586C811.522 17.994 811.27 18.492 811.09 19.08C810.91 19.668 810.82 20.328 810.82 21.06C810.82 21.804 810.91 22.476 811.09 23.076C811.27 23.664 811.522 24.168 811.846 24.588C812.17 25.008 812.56 25.332 813.016 25.56C813.484 25.788 814 25.902 814.564 25.902C815.104 25.902 815.584 25.788 816.004 25.56C816.436 25.332 816.844 25.008 817.228 24.588L818.074 25.506C817.606 26.046 817.078 26.466 816.49 26.766C815.902 27.066 815.212 27.216 814.42 27.216ZM824.313 27.216C823.737 27.216 823.203 27.132 822.711 26.964C822.219 26.796 821.793 26.526 821.433 26.154C821.085 25.77 820.809 25.284 820.605 24.696C820.413 24.108 820.317 23.388 820.317 22.536V15.192H821.829V22.572C821.829 23.184 821.889 23.706 822.009 24.138C822.141 24.558 822.315 24.9 822.531 25.164C822.759 25.416 823.023 25.602 823.323 25.722C823.623 25.842 823.953 25.902 824.313 25.902C824.673 25.902 825.003 25.842 825.303 25.722C825.603 25.602 825.867 25.416 826.095 25.164C826.323 24.9 826.497 24.558 826.617 24.138C826.749 23.706 826.815 23.184 826.815 22.572V15.192H828.273V22.536C828.273 23.388 828.171 24.108 827.967 24.696C827.775 25.284 827.505 25.77 827.157 26.154C826.809 26.526 826.389 26.796 825.897 26.964C825.417 27.132 824.889 27.216 824.313 27.216ZM831.488 27V15.192L835.16 15.192C835.76 15.192 836.312 15.252 836.816 15.372C837.32 15.48 837.752 15.666 838.112 15.93C838.484 16.194 838.772 16.536 838.976 16.956C839.18 17.376 839.282 17.892 839.282 18.504C839.282 19.428 839.042 20.166 838.562 20.718C838.082 21.27 837.44 21.648 836.636 21.852L839.642 27H837.932L835.088 22.014H832.982V27H831.488ZM832.982 20.79H834.944C835.868 20.79 836.57 20.604 837.05 20.232C837.542 19.848 837.788 19.272 837.788 18.504C837.788 17.724 837.542 17.178 837.05 16.866C836.57 16.554 835.868 16.398 834.944 16.398H832.982V20.79ZM842.19 27V25.722H845.124V16.452H842.19V15.192H849.57V16.452H846.636V25.722L849.57 25.722V27L842.19 27ZM855.917 27V16.452H852.029V15.192H861.317V16.452H857.429V27H855.917ZM866.71 27V22.788L862.75 15.192H864.334L866.116 18.702C866.344 19.158 866.566 19.614 866.782 20.07C866.998 20.514 867.226 20.976 867.466 21.456H867.538C867.778 20.976 868.012 20.508 868.24 20.052C868.468 19.596 868.696 19.14 868.924 18.684L870.634 15.192H872.182L868.222 22.788V27H866.71Z" fill="#676C79"></path> <rect x="639.5" y="0.5" width="251" height="41" stroke="#8CA6EA"></rect> <path d="M930.476 27V15.192H932.132L935.912 22.608L937.046 25.056H937.082C937.058 24.468 937.016 23.856 936.956 23.22C936.908 22.572 936.884 21.936 936.884 21.312V15.192H938.324V27H936.668L932.888 19.584L931.754 17.136H931.718C931.742 17.748 931.778 18.366 931.826 18.99C931.886 19.602 931.916 20.214 931.916 20.826V27H930.476ZM942.205 27V15.192H943.681V25.722H949.531V27H942.205ZM952.422 27V15.192H955.986C956.634 15.192 957.228 15.252 957.768 15.372C958.308 15.492 958.77 15.69 959.154 15.966C959.538 16.23 959.832 16.584 960.036 17.028C960.252 17.472 960.36 18.018 960.36 18.666C960.36 19.29 960.252 19.83 960.036 20.286C959.832 20.742 959.532 21.12 959.136 21.42C958.752 21.72 958.29 21.948 957.75 22.104C957.222 22.248 956.634 22.32 955.986 22.32H953.916V27H952.422ZM953.916 21.096H955.806C956.85 21.096 957.618 20.904 958.11 20.52C958.602 20.124 958.848 19.506 958.848 18.666C958.848 17.814 958.596 17.226 958.092 16.902C957.588 16.566 956.826 16.398 955.806 16.398H953.916V21.096Z" fill="#676C79"></path> <rect x="911.5" y="0.5" width="68" height="41" stroke="#8CA6EA"></rect> <path d="M364.536 27L360.774 15.192H362.358L364.266 21.564C364.47 22.272 364.656 22.926 364.824 23.526C364.992 24.126 365.184 24.774 365.4 25.47H365.472C365.58 25.122 365.682 24.792 365.778 24.48C365.874 24.156 365.964 23.838 366.048 23.526C366.144 23.214 366.234 22.896 366.318 22.572C366.414 22.248 366.51 21.912 366.606 21.564L368.496 15.192H370.026L366.282 27H364.536ZM372.629 27V15.192H376.193C376.841 15.192 377.435 15.252 377.975 15.372C378.515 15.492 378.977 15.69 379.361 15.966C379.745 16.23 380.039 16.584 380.243 17.028C380.459 17.472 380.567 18.018 380.567 18.666C380.567 19.29 380.459 19.83 380.243 20.286C380.039 20.742 379.739 21.12 379.343 21.42C378.959 21.72 378.497 21.948 377.957 22.104C377.429 22.248 376.841 22.32 376.193 22.32H374.123V27H372.629ZM374.123 21.096H376.013C377.057 21.096 377.825 20.904 378.317 20.52C378.809 20.124 379.055 19.506 379.055 18.666C379.055 17.814 378.803 17.226 378.299 16.902C377.795 16.566 377.033 16.398 376.013 16.398H374.123V21.096ZM394.431 27V15.192H401.739V16.452H395.943V20.16H400.839V21.438H395.943V25.722H401.919V27H394.431ZM404.648 27V15.192H406.304L410.084 22.608L411.218 25.056H411.254C411.23 24.468 411.188 23.856 411.128 23.22C411.08 22.572 411.056 21.936 411.056 21.312V15.192H412.496V27H410.84L407.06 19.584L405.926 17.136H405.89C405.914 17.748 405.95 18.366 405.998 18.99C406.058 19.602 406.088 20.214 406.088 20.826V27H404.648ZM420.031 27.216C419.287 27.216 418.603 27.078 417.979 26.802C417.355 26.526 416.815 26.13 416.359 25.614C415.903 25.086 415.549 24.444 415.297 23.688C415.045 22.92 414.919 22.056 414.919 21.096C414.919 20.148 415.045 19.296 415.297 18.54C415.561 17.772 415.921 17.13 416.377 16.614C416.845 16.086 417.397 15.684 418.033 15.408C418.681 15.12 419.389 14.976 420.157 14.976C420.553 14.976 420.913 15.018 421.237 15.102C421.561 15.186 421.855 15.3 422.119 15.444C422.395 15.576 422.635 15.726 422.839 15.894C423.055 16.062 423.247 16.236 423.415 16.416L422.569 17.37C422.281 17.058 421.951 16.8 421.579 16.596C421.207 16.392 420.733 16.29 420.157 16.29C419.605 16.29 419.101 16.404 418.645 16.632C418.201 16.848 417.817 17.166 417.493 17.586C417.169 17.994 416.917 18.492 416.737 19.08C416.569 19.668 416.485 20.328 416.485 21.06C416.485 21.804 416.563 22.476 416.719 23.076C416.887 23.664 417.121 24.168 417.421 24.588C417.733 25.008 418.117 25.332 418.573 25.56C419.029 25.788 419.545 25.902 420.121 25.902C420.541 25.902 420.931 25.842 421.291 25.722C421.651 25.59 421.945 25.416 422.173 25.2V22.122H419.815V20.88H423.559V25.848C423.187 26.232 422.695 26.556 422.083 26.82C421.483 27.084 420.799 27.216 420.031 27.216ZM426.468 27V25.722H429.402V16.452H426.468V15.192H433.848V16.452H430.914V25.722H433.848V27H426.468ZM437.027 27V15.192H438.683L442.463 22.608L443.597 25.056H443.633C443.609 24.468 443.567 23.856 443.507 23.22C443.459 22.572 443.435 21.936 443.435 21.312V15.192H444.875V27H443.219L439.439 19.584L438.305 17.136H438.269C438.293 17.748 438.329 18.366 438.377 18.99C438.437 19.602 438.467 20.214 438.467 20.826V27H437.027ZM448.396 27V15.192H455.704V16.452H449.908V20.16H454.804V21.438H449.908V25.722H455.884V27H448.396ZM459.189 27V15.192H466.497V16.452H460.701V20.16H465.597V21.438H460.701V25.722H466.677V27H459.189ZM469.73 27V15.192H473.402C474.002 15.192 474.554 15.252 475.058 15.372C475.562 15.48 475.994 15.666 476.354 15.93C476.726 16.194 477.014 16.536 477.218 16.956C477.422 17.376 477.524 17.892 477.524 18.504C477.524 19.428 477.284 20.166 476.804 20.718C476.324 21.27 475.682 21.648 474.878 21.852L477.884 27H476.174L473.33 22.014H471.224V27H469.73ZM471.224 20.79H473.186C474.11 20.79 474.812 20.604 475.292 20.232C475.784 19.848 476.03 19.272 476.03 18.504C476.03 17.724 475.784 17.178 475.292 16.866C474.812 16.554 474.11 16.398 473.186 16.398H471.224V20.79ZM480.433 27V25.722H483.367V16.452H480.433V15.192H487.813V16.452H484.879V25.722H487.813V27H480.433ZM490.992 27V15.192H492.648L496.428 22.608L497.562 25.056H497.598C497.574 24.468 497.532 23.856 497.472 23.22C497.424 22.572 497.4 21.936 497.4 21.312V15.192H498.84V27H497.184L493.404 19.584L492.27 17.136H492.234C492.258 17.748 492.294 18.366 492.342 18.99C492.402 19.602 492.432 20.214 492.432 20.826V27H490.992ZM506.375 27.216C505.631 27.216 504.947 27.078 504.323 26.802C503.699 26.526 503.159 26.13 502.703 25.614C502.247 25.086 501.893 24.444 501.641 23.688C501.389 22.92 501.263 22.056 501.263 21.096C501.263 20.148 501.389 19.296 501.641 18.54C501.905 17.772 502.265 17.13 502.721 16.614C503.189 16.086 503.741 15.684 504.377 15.408C505.025 15.12 505.733 14.976 506.501 14.976C506.897 14.976 507.257 15.018 507.581 15.102C507.905 15.186 508.199 15.3 508.463 15.444C508.739 15.576 508.979 15.726 509.183 15.894C509.399 16.062 509.591 16.236 509.759 16.416L508.913 17.37C508.625 17.058 508.295 16.8 507.923 16.596C507.551 16.392 507.077 16.29 506.501 16.29C505.949 16.29 505.445 16.404 504.989 16.632C504.545 16.848 504.161 17.166 503.837 17.586C503.513 17.994 503.261 18.492 503.081 19.08C502.913 19.668 502.829 20.328 502.829 21.06C502.829 21.804 502.907 22.476 503.063 23.076C503.231 23.664 503.465 24.168 503.765 24.588C504.077 25.008 504.461 25.332 504.917 25.56C505.373 25.788 505.889 25.902 506.465 25.902C506.885 25.902 507.275 25.842 507.635 25.722C507.995 25.59 508.289 25.416 508.517 25.2V22.122H506.159V20.88H509.903V25.848C509.531 26.232 509.039 26.556 508.427 26.82C507.827 27.084 507.143 27.216 506.375 27.216Z" fill="#676C79"></path> <rect x="342.5" y="0.5" width="187" height="41" stroke="#8CA6EA"></rect> <path d="M1023.49 27.216C1022.63 27.216 1021.83 27.06 1021.1 26.748C1020.38 26.436 1019.75 26.01 1019.21 25.47L1020.11 24.426C1020.55 24.87 1021.07 25.23 1021.65 25.506C1022.24 25.77 1022.88 25.902 1023.56 25.902C1024.38 25.902 1025.01 25.728 1025.45 25.38C1025.91 25.032 1026.14 24.582 1026.14 24.03C1026.14 23.718 1026.08 23.454 1025.97 23.238C1025.87 23.022 1025.72 22.836 1025.52 22.68C1025.33 22.524 1025.1 22.386 1024.84 22.266C1024.59 22.146 1024.31 22.02 1024.01 21.888L1022.32 21.15C1022.02 21.03 1021.72 20.886 1021.42 20.718C1021.12 20.55 1020.84 20.346 1020.59 20.106C1020.35 19.866 1020.15 19.584 1020 19.26C1019.84 18.924 1019.76 18.54 1019.76 18.108C1019.76 17.664 1019.86 17.25 1020.05 16.866C1020.24 16.482 1020.51 16.152 1020.84 15.876C1021.19 15.588 1021.6 15.366 1022.07 15.21C1022.55 15.054 1023.07 14.976 1023.63 14.976C1024.38 14.976 1025.06 15.114 1025.69 15.39C1026.31 15.654 1026.84 16.002 1027.27 16.434L1026.48 17.406C1026.09 17.058 1025.67 16.788 1025.2 16.596C1024.73 16.392 1024.19 16.29 1023.58 16.29C1022.9 16.29 1022.34 16.446 1021.92 16.758C1021.5 17.058 1021.29 17.478 1021.29 18.018C1021.29 18.306 1021.35 18.552 1021.47 18.756C1021.61 18.948 1021.77 19.122 1021.96 19.278C1022.16 19.422 1022.39 19.548 1022.64 19.656C1022.9 19.764 1023.15 19.872 1023.4 19.98L1025.06 20.7C1025.42 20.844 1025.75 21.012 1026.06 21.204C1026.39 21.384 1026.66 21.6 1026.89 21.852C1027.13 22.092 1027.32 22.38 1027.45 22.716C1027.59 23.04 1027.67 23.418 1027.67 23.85C1027.67 24.318 1027.57 24.756 1027.38 25.164C1027.19 25.572 1026.91 25.932 1026.55 26.244C1026.19 26.544 1025.75 26.784 1025.24 26.964C1024.72 27.132 1024.14 27.216 1023.49 27.216ZM1030.59 27V15.192H1034.26C1034.86 15.192 1035.42 15.252 1035.92 15.372C1036.42 15.48 1036.86 15.666 1037.22 15.93C1037.59 16.194 1037.88 16.536 1038.08 16.956C1038.28 17.376 1038.39 17.892 1038.39 18.504C1038.39 19.428 1038.15 20.166 1037.67 20.718C1037.19 21.27 1036.54 21.648 1035.74 21.852L1038.75 27H1037.04L1034.19 22.014H1032.09V27H1030.59ZM1032.09 20.79H1034.05C1034.97 20.79 1035.67 20.604 1036.15 20.232C1036.65 19.848 1036.89 19.272 1036.89 18.504C1036.89 17.724 1036.65 17.178 1036.15 16.866C1035.67 16.554 1034.97 16.398 1034.05 16.398H1032.09V20.79ZM1041.64 27V15.192H1048.95V16.452H1043.15V20.16H1048.05V21.438H1043.15V25.722H1049.13V27H1041.64Z" fill="#676C79"></path> <rect x="1000.5" y="0.5" width="68" height="41" stroke="#8CA6EA"></rect> <path d="M2275.84 27V15.192H2279.4C2280.05 15.192 2280.64 15.252 2281.18 15.372C2281.72 15.492 2282.18 15.69 2282.57 15.966C2282.95 16.23 2283.25 16.584 2283.45 17.028C2283.67 17.472 2283.77 18.018 2283.77 18.666C2283.77 19.29 2283.67 19.83 2283.45 20.286C2283.25 20.742 2282.95 21.12 2282.55 21.42C2282.17 21.72 2281.7 21.948 2281.16 22.104C2280.64 22.248 2280.05 22.32 2279.4 22.32H2277.33V27H2275.84ZM2277.33 21.096H2279.22C2280.26 21.096 2281.03 20.904 2281.52 20.52C2282.02 20.124 2282.26 19.506 2282.26 18.666C2282.26 17.814 2282.01 17.226 2281.51 16.902C2281 16.566 2280.24 16.398 2279.22 16.398H2277.33V21.096ZM2289.44 27V22.788L2285.48 15.192H2287.06L2288.84 18.702C2289.07 19.158 2289.29 19.614 2289.51 20.07C2289.72 20.514 2289.95 20.976 2290.19 21.456H2290.26C2290.5 20.976 2290.74 20.508 2290.97 20.052C2291.19 19.596 2291.42 19.14 2291.65 18.684L2293.36 15.192H2294.91L2290.95 22.788V27H2289.44ZM2300.23 27V16.452H2296.34V15.192H2305.63V16.452H2301.74V27H2300.23ZM2307.8 27V15.192H2309.31V20.142H2314.24V15.192H2315.76V27H2314.24V21.438H2309.31V27H2307.8ZM2322.57 27.216C2321.9 27.216 2321.29 27.078 2320.74 26.802C2320.18 26.514 2319.7 26.106 2319.3 25.578C2318.9 25.05 2318.59 24.408 2318.36 23.652C2318.14 22.884 2318.04 22.014 2318.04 21.042C2318.04 20.094 2318.14 19.242 2318.36 18.486C2318.59 17.73 2318.9 17.094 2319.3 16.578C2319.7 16.062 2320.18 15.666 2320.74 15.39C2321.29 15.114 2321.9 14.976 2322.57 14.976C2323.23 14.976 2323.84 15.114 2324.39 15.39C2324.95 15.666 2325.43 16.062 2325.83 16.578C2326.24 17.094 2326.55 17.73 2326.77 18.486C2326.99 19.242 2327.11 20.094 2327.11 21.042C2327.11 22.014 2326.99 22.884 2326.77 23.652C2326.55 24.408 2326.24 25.05 2325.83 25.578C2325.43 26.106 2324.95 26.514 2324.39 26.802C2323.84 27.078 2323.23 27.216 2322.57 27.216ZM2322.57 25.902C2323.02 25.902 2323.42 25.794 2323.8 25.578C2324.17 25.35 2324.48 25.026 2324.73 24.606C2325 24.186 2325.2 23.676 2325.34 23.076C2325.49 22.476 2325.56 21.798 2325.56 21.042C2325.56 20.298 2325.49 19.632 2325.34 19.044C2325.2 18.456 2325 17.958 2324.73 17.55C2324.48 17.142 2324.17 16.83 2323.8 16.614C2323.42 16.398 2323.02 16.29 2322.57 16.29C2322.12 16.29 2321.7 16.398 2321.33 16.614C2320.97 16.83 2320.66 17.142 2320.39 17.55C2320.14 17.958 2319.94 18.456 2319.8 19.044C2319.66 19.632 2319.58 20.298 2319.58 21.042C2319.58 21.798 2319.66 22.476 2319.8 23.076C2319.94 23.676 2320.14 24.186 2320.39 24.606C2320.66 25.026 2320.97 25.35 2321.33 25.578C2321.7 25.794 2322.12 25.902 2322.57 25.902ZM2329.44 27V15.192H2331.1L2334.88 22.608L2336.01 25.056H2336.05C2336.02 24.468 2335.98 23.856 2335.92 23.22C2335.87 22.572 2335.85 21.936 2335.85 21.312V15.192H2337.29V27H2335.63L2331.85 19.584L2330.72 17.136H2330.68C2330.71 17.748 2330.74 18.366 2330.79 18.99C2330.85 19.602 2330.88 20.214 2330.88 20.826V27H2329.44Z" fill="#676C79"></path> <rect x="2256.5" y="0.5" width="100" height="41" stroke="#8CA6EA"></rect> <path d="M2201.4 25.974C2202.31 25.974 2203.03 25.542 2203.56 24.678C2204.1 23.814 2204.37 22.602 2204.37 21.042C2204.37 19.554 2204.1 18.384 2203.56 17.532C2203.03 16.68 2202.31 16.254 2201.4 16.254C2200.49 16.254 2199.76 16.68 2199.22 17.532C2198.69 18.384 2198.43 19.554 2198.43 21.042C2198.43 22.602 2198.69 23.814 2199.22 24.678C2199.76 25.542 2200.49 25.974 2201.4 25.974ZM2204.66 29.934C2203.61 29.934 2202.76 29.67 2202.1 29.142C2201.44 28.614 2200.97 27.954 2200.68 27.162C2200.1 27.066 2199.58 26.856 2199.11 26.532C2198.66 26.208 2198.26 25.788 2197.93 25.272C2197.6 24.744 2197.35 24.126 2197.17 23.418C2196.99 22.71 2196.9 21.918 2196.9 21.042C2196.9 20.094 2197.01 19.242 2197.22 18.486C2197.44 17.73 2197.75 17.094 2198.14 16.578C2198.54 16.05 2199.01 15.648 2199.56 15.372C2200.12 15.096 2200.73 14.958 2201.4 14.958C2202.07 14.958 2202.68 15.096 2203.24 15.372C2203.79 15.648 2204.26 16.05 2204.66 16.578C2205.05 17.094 2205.36 17.73 2205.58 18.486C2205.79 19.242 2205.9 20.094 2205.9 21.042C2205.9 21.894 2205.81 22.674 2205.63 23.382C2205.46 24.078 2205.22 24.684 2204.89 25.2C2204.58 25.716 2204.2 26.142 2203.76 26.478C2203.31 26.802 2202.82 27.018 2202.26 27.126C2202.47 27.642 2202.79 28.026 2203.24 28.278C2203.68 28.53 2204.21 28.656 2204.82 28.656C2205 28.656 2205.16 28.638 2205.31 28.602C2205.46 28.566 2205.59 28.524 2205.7 28.476L2205.99 29.682C2205.79 29.754 2205.58 29.814 2205.36 29.862C2205.14 29.91 2204.91 29.934 2204.66 29.934ZM2210.97 20.394L2210.41 22.194H2213.94L2213.38 20.394C2213.18 19.734 2212.97 19.08 2212.77 18.432C2212.58 17.772 2212.39 17.1 2212.21 16.416H2212.14C2211.95 17.1 2211.75 17.772 2211.56 18.432C2211.37 19.08 2211.17 19.734 2210.97 20.394ZM2207.37 27L2211.35 15.192H2213.04L2217.02 27H2215.43L2214.32 23.4H2210.03L2208.9 27H2207.37Z" fill="#676C79"></path> <rect x="2178.5" y="0.5" width="57" height="41" stroke="#8CA6EA"></rect> <path d="M2399.64 27V16.452H2395.76V15.192H2405.04V16.452H2401.16V27H2399.64ZM2407.84 27V15.192H2415.15V16.452H2409.36V20.16H2414.25V21.438H2409.36V25.722H2415.33V27H2407.84ZM2420.76 20.394L2420.2 22.194H2423.73L2423.17 20.394C2422.97 19.734 2422.77 19.08 2422.56 18.432C2422.37 17.772 2422.18 17.1 2422 16.416H2421.93C2421.74 17.1 2421.55 17.772 2421.36 18.432C2421.16 19.08 2420.97 19.734 2420.76 20.394ZM2417.16 27L2421.14 15.192H2422.83L2426.81 27H2425.23L2424.11 23.4H2419.83L2418.69 27H2417.16ZM2428.67 27V15.192H2430.51L2432.17 20.232L2432.74 22.14H2432.81L2433.37 20.232L2435.05 15.192H2436.88V27H2435.44V21.096C2435.44 20.808 2435.45 20.478 2435.46 20.106C2435.48 19.722 2435.51 19.338 2435.53 18.954C2435.57 18.57 2435.6 18.198 2435.62 17.838C2435.65 17.478 2435.67 17.172 2435.69 16.92H2435.64L2434.97 19.224L2433.28 23.868H2432.2L2430.55 19.224L2429.86 16.92H2429.83C2429.85 17.172 2429.87 17.478 2429.9 17.838C2429.93 18.198 2429.96 18.57 2429.99 18.954C2430.01 19.338 2430.03 19.722 2430.04 20.106C2430.07 20.478 2430.08 20.808 2430.08 21.096V27H2428.67ZM2440.58 27V15.192H2442.06V25.722H2447.91V27H2440.58ZM2451.02 27V15.192H2458.32V16.452H2452.53V20.16H2457.42V21.438H2452.53V25.722H2458.5V27H2451.02ZM2463.93 20.394L2463.38 22.194H2466.9L2466.35 20.394C2466.14 19.734 2465.94 19.08 2465.73 18.432C2465.54 17.772 2465.36 17.1 2465.18 16.416H2465.1C2464.91 17.1 2464.72 17.772 2464.53 18.432C2464.34 19.08 2464.14 19.734 2463.93 20.394ZM2460.33 27L2464.31 15.192H2466L2469.98 27H2468.4L2467.28 23.4H2463L2461.86 27H2460.33ZM2472.12 27V15.192H2475.03C2476.82 15.192 2478.18 15.696 2479.1 16.704C2480.04 17.712 2480.5 19.158 2480.5 21.042C2480.5 22.926 2480.04 24.39 2479.1 25.434C2478.18 26.478 2476.84 27 2475.1 27H2472.12ZM2473.61 25.776H2474.92C2476.28 25.776 2477.29 25.362 2477.95 24.534C2478.62 23.706 2478.96 22.542 2478.96 21.042C2478.96 19.542 2478.62 18.396 2477.95 17.604C2477.29 16.812 2476.28 16.416 2474.92 16.416H2473.61V25.776Z" fill="#676C79"></path> <rect x="2377.5" y="0.5" width="122" height="41" stroke="#7FE1E5"></rect> <path d="M2752.32 27.216C2751.59 27.216 2750.91 27.078 2750.28 26.802C2749.66 26.526 2749.11 26.13 2748.65 25.614C2748.19 25.086 2747.83 24.444 2747.57 23.688C2747.3 22.92 2747.17 22.056 2747.17 21.096C2747.17 20.148 2747.3 19.296 2747.57 18.54C2747.83 17.784 2748.2 17.142 2748.66 16.614C2749.13 16.086 2749.69 15.684 2750.34 15.408C2750.99 15.12 2751.69 14.976 2752.46 14.976C2753.17 14.976 2753.79 15.12 2754.33 15.408C2754.89 15.696 2755.34 16.032 2755.68 16.416L2754.84 17.37C2754.53 17.046 2754.18 16.788 2753.79 16.596C2753.41 16.392 2752.97 16.29 2752.46 16.29C2751.9 16.29 2751.38 16.404 2750.91 16.632C2750.46 16.848 2750.07 17.166 2749.74 17.586C2749.42 17.994 2749.17 18.492 2748.99 19.08C2748.81 19.668 2748.72 20.328 2748.72 21.06C2748.72 21.804 2748.81 22.476 2748.99 23.076C2749.17 23.664 2749.42 24.168 2749.74 24.588C2750.07 25.008 2750.46 25.332 2750.91 25.56C2751.38 25.788 2751.9 25.902 2752.46 25.902C2753 25.902 2753.48 25.788 2753.9 25.56C2754.33 25.332 2754.74 25.008 2755.13 24.588L2755.97 25.506C2755.5 26.046 2754.98 26.466 2754.39 26.766C2753.8 27.066 2753.11 27.216 2752.32 27.216ZM2761.44 27V16.452H2757.55V15.192H2766.84V16.452H2762.95V27H2761.44ZM2772.99 27.216C2772.31 27.216 2771.7 27.078 2771.15 26.802C2770.6 26.514 2770.12 26.106 2769.71 25.578C2769.31 25.05 2769 24.408 2768.77 23.652C2768.56 22.884 2768.45 22.014 2768.45 21.042C2768.45 20.094 2768.56 19.242 2768.77 18.486C2769 17.73 2769.31 17.094 2769.71 16.578C2770.12 16.062 2770.6 15.666 2771.15 15.39C2771.7 15.114 2772.31 14.976 2772.99 14.976C2773.65 14.976 2774.25 15.114 2774.8 15.39C2775.37 15.666 2775.85 16.062 2776.24 16.578C2776.65 17.094 2776.96 17.73 2777.18 18.486C2777.41 19.242 2777.52 20.094 2777.52 21.042C2777.52 22.014 2777.41 22.884 2777.18 23.652C2776.96 24.408 2776.65 25.05 2776.24 25.578C2775.85 26.106 2775.37 26.514 2774.8 26.802C2774.25 27.078 2773.65 27.216 2772.99 27.216ZM2772.99 25.902C2773.43 25.902 2773.84 25.794 2774.21 25.578C2774.58 25.35 2774.89 25.026 2775.15 24.606C2775.41 24.186 2775.61 23.676 2775.76 23.076C2775.9 22.476 2775.97 21.798 2775.97 21.042C2775.97 20.298 2775.9 19.632 2775.76 19.044C2775.61 18.456 2775.41 17.958 2775.15 17.55C2774.89 17.142 2774.58 16.83 2774.21 16.614C2773.84 16.398 2773.43 16.29 2772.99 16.29C2772.53 16.29 2772.12 16.398 2771.74 16.614C2771.38 16.83 2771.07 17.142 2770.81 17.55C2770.56 17.958 2770.36 18.456 2770.21 19.044C2770.07 19.632 2770 20.298 2770 21.042C2770 21.798 2770.07 22.476 2770.21 23.076C2770.36 23.676 2770.56 24.186 2770.81 24.606C2771.07 25.026 2771.38 25.35 2771.74 25.578C2772.12 25.794 2772.53 25.902 2772.99 25.902Z" fill="#676C79"></path> <rect x="2728.5" y="0.5" width="68" height="41" stroke="#7FE1E5"></rect> <path d="M2836.71 27V25.722H2839.64V16.452H2836.71V15.192H2844.09V16.452H2841.16V25.722H2844.09V27H2836.71ZM2847.27 27V15.192H2848.92L2852.7 22.608L2853.84 25.056H2853.87C2853.85 24.468 2853.81 23.856 2853.75 23.22C2853.7 22.572 2853.68 21.936 2853.68 21.312V15.192H2855.12V27H2853.46L2849.68 19.584L2848.55 17.136H2848.51C2848.53 17.748 2848.57 18.366 2848.62 18.99C2848.68 19.602 2848.71 20.214 2848.71 20.826V27H2847.27ZM2858.98 27V15.192H2866.23V16.452H2860.49V20.448H2865.35V21.708H2860.49V27H2858.98ZM2872.78 27.216C2872.11 27.216 2871.49 27.078 2870.94 26.802C2870.39 26.514 2869.91 26.106 2869.5 25.578C2869.11 25.05 2868.79 24.408 2868.57 23.652C2868.35 22.884 2868.24 22.014 2868.24 21.042C2868.24 20.094 2868.35 19.242 2868.57 18.486C2868.79 17.73 2869.11 17.094 2869.5 16.578C2869.91 16.062 2870.39 15.666 2870.94 15.39C2871.49 15.114 2872.11 14.976 2872.78 14.976C2873.44 14.976 2874.04 15.114 2874.6 15.39C2875.16 15.666 2875.64 16.062 2876.04 16.578C2876.44 17.094 2876.76 17.73 2876.97 18.486C2877.2 19.242 2877.31 20.094 2877.31 21.042C2877.31 22.014 2877.2 22.884 2876.97 23.652C2876.76 24.408 2876.44 25.05 2876.04 25.578C2875.64 26.106 2875.16 26.514 2874.6 26.802C2874.04 27.078 2873.44 27.216 2872.78 27.216ZM2872.78 25.902C2873.22 25.902 2873.63 25.794 2874 25.578C2874.37 25.35 2874.69 25.026 2874.94 24.606C2875.2 24.186 2875.41 23.676 2875.55 23.076C2875.69 22.476 2875.77 21.798 2875.77 21.042C2875.77 20.298 2875.69 19.632 2875.55 19.044C2875.41 18.456 2875.2 17.958 2874.94 17.55C2874.69 17.142 2874.37 16.83 2874 16.614C2873.63 16.398 2873.22 16.29 2872.78 16.29C2872.32 16.29 2871.91 16.398 2871.54 16.614C2871.18 16.83 2870.86 17.142 2870.6 17.55C2870.35 17.958 2870.15 18.456 2870.01 19.044C2869.86 19.632 2869.79 20.298 2869.79 21.042C2869.79 21.798 2869.86 22.476 2870.01 23.076C2870.15 23.676 2870.35 24.186 2870.6 24.606C2870.86 25.026 2871.18 25.35 2871.54 25.578C2871.91 25.794 2872.32 25.902 2872.78 25.902ZM2879.97 27V15.192H2883.64C2884.24 15.192 2884.8 15.252 2885.3 15.372C2885.8 15.48 2886.24 15.666 2886.6 15.93C2886.97 16.194 2887.26 16.536 2887.46 16.956C2887.66 17.376 2887.77 17.892 2887.77 18.504C2887.77 19.428 2887.53 20.166 2887.05 20.718C2886.57 21.27 2885.92 21.648 2885.12 21.852L2888.13 27H2886.42L2883.57 22.014H2881.47V27H2879.97ZM2881.47 20.79H2883.43C2884.35 20.79 2885.05 20.604 2885.53 20.232C2886.03 19.848 2886.27 19.272 2886.27 18.504C2886.27 17.724 2886.03 17.178 2885.53 16.866C2885.05 16.554 2884.35 16.398 2883.43 16.398H2881.47V20.79ZM2890.26 27V15.192H2892.1L2893.75 20.232L2894.33 22.14H2894.4L2894.96 20.232L2896.63 15.192H2898.47V27H2897.03V21.096C2897.03 20.808 2897.03 20.478 2897.05 20.106C2897.07 19.722 2897.09 19.338 2897.12 18.954C2897.15 18.57 2897.18 18.198 2897.21 17.838C2897.23 17.478 2897.26 17.172 2897.28 16.92H2897.23L2896.56 19.224L2894.87 23.868H2893.79L2892.13 19.224L2891.45 16.92H2891.41C2891.44 17.172 2891.46 17.478 2891.48 17.838C2891.52 18.198 2891.55 18.57 2891.57 18.954C2891.6 19.338 2891.62 19.722 2891.63 20.106C2891.65 20.478 2891.66 20.808 2891.66 21.096V27H2890.26ZM2903.93 20.394L2903.38 22.194H2906.9L2906.35 20.394C2906.14 19.734 2905.94 19.08 2905.73 18.432C2905.54 17.772 2905.36 17.1 2905.18 16.416H2905.1C2904.91 17.1 2904.72 17.772 2904.53 18.432C2904.34 19.08 2904.14 19.734 2903.93 20.394ZM2900.33 27L2904.31 15.192H2906L2909.98 27H2908.4L2907.28 23.4H2903L2901.86 27H2900.33ZM2915.19 27V16.452H2911.31V15.192L2920.59 15.192V16.452H2916.71V27H2915.19ZM2923.05 27V25.722H2925.99V16.452H2923.05V15.192H2930.43V16.452H2927.5V25.722H2930.43V27H2923.05ZM2937.54 27.216C2936.86 27.216 2936.25 27.078 2935.7 26.802C2935.15 26.514 2934.67 26.106 2934.26 25.578C2933.86 25.05 2933.55 24.408 2933.32 23.652C2933.11 22.884 2933 22.014 2933 21.042C2933 20.094 2933.11 19.242 2933.32 18.486C2933.55 17.73 2933.86 17.094 2934.26 16.578C2934.67 16.062 2935.15 15.666 2935.7 15.39C2936.25 15.114 2936.86 14.976 2937.54 14.976C2938.2 14.976 2938.8 15.114 2939.35 15.39C2939.92 15.666 2940.4 16.062 2940.79 16.578C2941.2 17.094 2941.51 17.73 2941.73 18.486C2941.96 19.242 2942.07 20.094 2942.07 21.042C2942.07 22.014 2941.96 22.884 2941.73 23.652C2941.51 24.408 2941.2 25.05 2940.79 25.578C2940.4 26.106 2939.92 26.514 2939.35 26.802C2938.8 27.078 2938.2 27.216 2937.54 27.216ZM2937.54 25.902C2937.98 25.902 2938.39 25.794 2938.76 25.578C2939.13 25.35 2939.44 25.026 2939.7 24.606C2939.96 24.186 2940.16 23.676 2940.31 23.076C2940.45 22.476 2940.52 21.798 2940.52 21.042C2940.52 20.298 2940.45 19.632 2940.31 19.044C2940.16 18.456 2939.96 17.958 2939.7 17.55C2939.44 17.142 2939.13 16.83 2938.76 16.614C2938.39 16.398 2937.98 16.29 2937.54 16.29C2937.08 16.29 2936.67 16.398 2936.29 16.614C2935.93 16.83 2935.62 17.142 2935.36 17.55C2935.11 17.958 2934.91 18.456 2934.76 19.044C2934.62 19.632 2934.55 20.298 2934.55 21.042C2934.55 21.798 2934.62 22.476 2934.76 23.076C2934.91 23.676 2935.11 24.186 2935.36 24.606C2935.62 25.026 2935.93 25.35 2936.29 25.578C2936.67 25.794 2937.08 25.902 2937.54 25.902ZM2944.41 27V15.192H2946.06L2949.84 22.608L2950.98 25.056H2951.01C2950.99 24.468 2950.95 23.856 2950.89 23.22C2950.84 22.572 2950.81 21.936 2950.81 21.312V15.192H2952.25V27H2950.6L2946.82 19.584L2945.68 17.136H2945.65C2945.67 17.748 2945.71 18.366 2945.76 18.99C2945.82 19.602 2945.85 20.214 2945.85 20.826V27H2944.41ZM2970.01 27.216C2969.14 27.216 2968.34 27.06 2967.61 26.748C2966.89 26.436 2966.26 26.01 2965.72 25.47L2966.62 24.426C2967.07 24.87 2967.58 25.23 2968.17 25.506C2968.76 25.77 2969.39 25.902 2970.08 25.902C2970.89 25.902 2971.52 25.728 2971.97 25.38C2972.42 25.032 2972.65 24.582 2972.65 24.03C2972.65 23.718 2972.6 23.454 2972.49 23.238C2972.38 23.022 2972.23 22.836 2972.04 22.68C2971.85 22.524 2971.62 22.386 2971.36 22.266C2971.1 22.146 2970.83 22.02 2970.53 21.888L2968.84 21.15C2968.54 21.03 2968.24 20.886 2967.94 20.718C2967.64 20.55 2967.36 20.346 2967.11 20.106C2966.87 19.866 2966.67 19.584 2966.51 19.26C2966.36 18.924 2966.28 18.54 2966.28 18.108C2966.28 17.664 2966.38 17.25 2966.57 16.866C2966.76 16.482 2967.02 16.152 2967.36 15.876C2967.71 15.588 2968.12 15.366 2968.58 15.21C2969.06 15.054 2969.59 14.976 2970.15 14.976C2970.89 14.976 2971.58 15.114 2972.2 15.39C2972.83 15.654 2973.35 16.002 2973.79 16.434L2972.99 17.406C2972.61 17.058 2972.18 16.788 2971.72 16.596C2971.25 16.392 2970.71 16.29 2970.1 16.29C2969.41 16.29 2968.86 16.446 2968.44 16.758C2968.02 17.058 2967.81 17.478 2967.81 18.018C2967.81 18.306 2967.87 18.552 2967.99 18.756C2968.12 18.948 2968.28 19.122 2968.48 19.278C2968.68 19.422 2968.91 19.548 2969.16 19.656C2969.41 19.764 2969.66 19.872 2969.92 19.98L2971.57 20.7C2971.93 20.844 2972.27 21.012 2972.58 21.204C2972.9 21.384 2973.18 21.6 2973.41 21.852C2973.65 22.092 2973.83 22.38 2973.97 22.716C2974.11 23.04 2974.18 23.418 2974.18 23.85C2974.18 24.318 2974.09 24.756 2973.89 25.164C2973.7 25.572 2973.43 25.932 2973.07 26.244C2972.71 26.544 2972.27 26.784 2971.75 26.964C2971.24 27.132 2970.65 27.216 2970.01 27.216ZM2977.36 27V15.192H2984.67V16.452H2978.87V20.16H2983.77V21.438H2978.87V25.722H2984.85V27H2977.36ZM2992.42 27.216C2991.69 27.216 2991.01 27.078 2990.39 26.802C2989.76 26.526 2989.22 26.13 2988.75 25.614C2988.29 25.086 2987.93 24.444 2987.67 23.688C2987.4 22.92 2987.27 22.056 2987.27 21.096C2987.27 20.148 2987.4 19.296 2987.67 18.54C2987.93 17.784 2988.3 17.142 2988.77 16.614C2989.23 16.086 2989.79 15.684 2990.44 15.408C2991.09 15.12 2991.8 14.976 2992.56 14.976C2993.27 14.976 2993.9 15.12 2994.44 15.408C2994.99 15.696 2995.44 16.032 2995.79 16.416L2994.94 17.37C2994.63 17.046 2994.28 16.788 2993.9 16.596C2993.51 16.392 2993.07 16.29 2992.56 16.29C2992 16.29 2991.48 16.404 2991.02 16.632C2990.56 16.848 2990.17 17.166 2989.85 17.586C2989.52 17.994 2989.27 18.492 2989.09 19.08C2988.91 19.668 2988.82 20.328 2988.82 21.06C2988.82 21.804 2988.91 22.476 2989.09 23.076C2989.27 23.664 2989.52 24.168 2989.85 24.588C2990.17 25.008 2990.56 25.332 2991.02 25.56C2991.48 25.788 2992 25.902 2992.56 25.902C2993.1 25.902 2993.58 25.788 2994 25.56C2994.44 25.332 2994.84 25.008 2995.23 24.588L2996.07 25.506C2995.61 26.046 2995.08 26.466 2994.49 26.766C2993.9 27.066 2993.21 27.216 2992.42 27.216ZM3002.31 27.216C3001.74 27.216 3001.2 27.132 3000.71 26.964C3000.22 26.796 2999.79 26.526 2999.43 26.154C2999.08 25.77 2998.81 25.284 2998.6 24.696C2998.41 24.108 2998.32 23.388 2998.32 22.536V15.192H2999.83V22.572C2999.83 23.184 2999.89 23.706 3000.01 24.138C3000.14 24.558 3000.31 24.9 3000.53 25.164C3000.76 25.416 3001.02 25.602 3001.32 25.722C3001.62 25.842 3001.95 25.902 3002.31 25.902C3002.67 25.902 3003 25.842 3003.3 25.722C3003.6 25.602 3003.87 25.416 3004.09 25.164C3004.32 24.9 3004.5 24.558 3004.62 24.138C3004.75 23.706 3004.81 23.184 3004.81 22.572V15.192H3006.27V22.536C3006.27 23.388 3006.17 24.108 3005.97 24.696C3005.77 25.284 3005.5 25.77 3005.16 26.154C3004.81 26.526 3004.39 26.796 3003.9 26.964C3003.42 27.132 3002.89 27.216 3002.31 27.216ZM3009.49 27V15.192L3013.16 15.192C3013.76 15.192 3014.31 15.252 3014.82 15.372C3015.32 15.48 3015.75 15.666 3016.11 15.93C3016.48 16.194 3016.77 16.536 3016.98 16.956C3017.18 17.376 3017.28 17.892 3017.28 18.504C3017.28 19.428 3017.04 20.166 3016.56 20.718C3016.08 21.27 3015.44 21.648 3014.64 21.852L3017.64 27H3015.93L3013.09 22.014H3010.98V27H3009.49ZM3010.98 20.79H3012.94C3013.87 20.79 3014.57 20.604 3015.05 20.232C3015.54 19.848 3015.79 19.272 3015.79 18.504C3015.79 17.724 3015.54 17.178 3015.05 16.866C3014.57 16.554 3013.87 16.398 3012.94 16.398H3010.98V20.79ZM3020.19 27V25.722H3023.12V16.452H3020.19V15.192H3027.57V16.452H3024.64V25.722L3027.57 25.722V27L3020.19 27ZM3033.92 27V16.452H3030.03V15.192H3039.32V16.452H3035.43V27H3033.92ZM3044.71 27V22.788L3040.75 15.192H3042.33L3044.12 18.702C3044.34 19.158 3044.57 19.614 3044.78 20.07C3045 20.514 3045.23 20.976 3045.47 21.456H3045.54C3045.78 20.976 3046.01 20.508 3046.24 20.052C3046.47 19.596 3046.7 19.14 3046.92 18.684L3048.63 15.192H3050.18L3046.22 22.788V27H3044.71Z" fill="#676C79"></path> <rect x="2817.5" y="0.5" width="251" height="41" stroke="#8CA6EA"></rect> <path d="M3108.48 27V15.192H3110.13L3113.91 22.608L3115.05 25.056H3115.08C3115.06 24.468 3115.02 23.856 3114.96 23.22C3114.91 22.572 3114.88 21.936 3114.88 21.312V15.192H3116.32V27H3114.67L3110.89 19.584L3109.75 17.136H3109.72C3109.74 17.748 3109.78 18.366 3109.83 18.99C3109.89 19.602 3109.92 20.214 3109.92 20.826V27H3108.48ZM3120.2 27V15.192H3121.68V25.722H3127.53V27H3120.2ZM3130.42 27V15.192H3133.99C3134.63 15.192 3135.23 15.252 3135.77 15.372C3136.31 15.492 3136.77 15.69 3137.15 15.966C3137.54 16.23 3137.83 16.584 3138.04 17.028C3138.25 17.472 3138.36 18.018 3138.36 18.666C3138.36 19.29 3138.25 19.83 3138.04 20.286C3137.83 20.742 3137.53 21.12 3137.14 21.42C3136.75 21.72 3136.29 21.948 3135.75 22.104C3135.22 22.248 3134.63 22.32 3133.99 22.32H3131.92V27H3130.42ZM3131.92 21.096H3133.81C3134.85 21.096 3135.62 20.904 3136.11 20.52C3136.6 20.124 3136.85 19.506 3136.85 18.666C3136.85 17.814 3136.6 17.226 3136.09 16.902C3135.59 16.566 3134.83 16.398 3133.81 16.398H3131.92V21.096Z" fill="#676C79"></path> <rect x="3089.5" y="0.5" width="68" height="41" stroke="#8CA6EA"></rect> <path d="M2542.54 27L2538.77 15.192H2540.36L2542.27 21.564C2542.47 22.272 2542.66 22.926 2542.82 23.526C2542.99 24.126 2543.18 24.774 2543.4 25.47H2543.47C2543.58 25.122 2543.68 24.792 2543.78 24.48C2543.87 24.156 2543.96 23.838 2544.05 23.526C2544.14 23.214 2544.23 22.896 2544.32 22.572C2544.41 22.248 2544.51 21.912 2544.61 21.564L2546.5 15.192H2548.03L2544.28 27H2542.54ZM2550.63 27V15.192H2554.19C2554.84 15.192 2555.43 15.252 2555.97 15.372C2556.51 15.492 2556.98 15.69 2557.36 15.966C2557.74 16.23 2558.04 16.584 2558.24 17.028C2558.46 17.472 2558.57 18.018 2558.57 18.666C2558.57 19.29 2558.46 19.83 2558.24 20.286C2558.04 20.742 2557.74 21.12 2557.34 21.42C2556.96 21.72 2556.5 21.948 2555.96 22.104C2555.43 22.248 2554.84 22.32 2554.19 22.32H2552.12V27H2550.63ZM2552.12 21.096H2554.01C2555.06 21.096 2555.82 20.904 2556.32 20.52C2556.81 20.124 2557.05 19.506 2557.05 18.666C2557.05 17.814 2556.8 17.226 2556.3 16.902C2555.79 16.566 2555.03 16.398 2554.01 16.398H2552.12V21.096ZM2572.43 27V15.192H2579.74V16.452H2573.94V20.16H2578.84V21.438H2573.94V25.722H2579.92V27H2572.43ZM2582.65 27V15.192H2584.3L2588.08 22.608L2589.22 25.056H2589.25C2589.23 24.468 2589.19 23.856 2589.13 23.22C2589.08 22.572 2589.06 21.936 2589.06 21.312V15.192H2590.5V27H2588.84L2585.06 19.584L2583.93 17.136H2583.89C2583.91 17.748 2583.95 18.366 2584 18.99C2584.06 19.602 2584.09 20.214 2584.09 20.826V27H2582.65ZM2598.03 27.216C2597.29 27.216 2596.6 27.078 2595.98 26.802C2595.35 26.526 2594.81 26.13 2594.36 25.614C2593.9 25.086 2593.55 24.444 2593.3 23.688C2593.04 22.92 2592.92 22.056 2592.92 21.096C2592.92 20.148 2593.04 19.296 2593.3 18.54C2593.56 17.772 2593.92 17.13 2594.38 16.614C2594.84 16.086 2595.4 15.684 2596.03 15.408C2596.68 15.12 2597.39 14.976 2598.16 14.976C2598.55 14.976 2598.91 15.018 2599.24 15.102C2599.56 15.186 2599.85 15.3 2600.12 15.444C2600.39 15.576 2600.63 15.726 2600.84 15.894C2601.05 16.062 2601.25 16.236 2601.41 16.416L2600.57 17.37C2600.28 17.058 2599.95 16.8 2599.58 16.596C2599.21 16.392 2598.73 16.29 2598.16 16.29C2597.6 16.29 2597.1 16.404 2596.64 16.632C2596.2 16.848 2595.82 17.166 2595.49 17.586C2595.17 17.994 2594.92 18.492 2594.74 19.08C2594.57 19.668 2594.48 20.328 2594.48 21.06C2594.48 21.804 2594.56 22.476 2594.72 23.076C2594.89 23.664 2595.12 24.168 2595.42 24.588C2595.73 25.008 2596.12 25.332 2596.57 25.56C2597.03 25.788 2597.54 25.902 2598.12 25.902C2598.54 25.902 2598.93 25.842 2599.29 25.722C2599.65 25.59 2599.94 25.416 2600.17 25.2V22.122H2597.81V20.88H2601.56V25.848C2601.19 26.232 2600.69 26.556 2600.08 26.82C2599.48 27.084 2598.8 27.216 2598.03 27.216ZM2604.47 27V25.722H2607.4V16.452H2604.47V15.192H2611.85V16.452H2608.91V25.722H2611.85V27H2604.47ZM2615.03 27V15.192H2616.68L2620.46 22.608L2621.6 25.056H2621.63C2621.61 24.468 2621.57 23.856 2621.51 23.22C2621.46 22.572 2621.43 21.936 2621.43 21.312V15.192H2622.87V27H2621.22L2617.44 19.584L2616.3 17.136H2616.27C2616.29 17.748 2616.33 18.366 2616.38 18.99C2616.44 19.602 2616.47 20.214 2616.47 20.826V27H2615.03ZM2626.4 27V15.192H2633.7V16.452H2627.91V20.16H2632.8V21.438H2627.91V25.722H2633.88V27H2626.4ZM2637.19 27V15.192H2644.5V16.452H2638.7V20.16H2643.6V21.438H2638.7V25.722H2644.68V27H2637.19ZM2647.73 27V15.192H2651.4C2652 15.192 2652.55 15.252 2653.06 15.372C2653.56 15.48 2653.99 15.666 2654.35 15.93C2654.73 16.194 2655.01 16.536 2655.22 16.956C2655.42 17.376 2655.52 17.892 2655.52 18.504C2655.52 19.428 2655.28 20.166 2654.8 20.718C2654.32 21.27 2653.68 21.648 2652.88 21.852L2655.88 27H2654.17L2651.33 22.014H2649.22V27H2647.73ZM2649.22 20.79H2651.19C2652.11 20.79 2652.81 20.604 2653.29 20.232C2653.78 19.848 2654.03 19.272 2654.03 18.504C2654.03 17.724 2653.78 17.178 2653.29 16.866C2652.81 16.554 2652.11 16.398 2651.19 16.398H2649.22V20.79ZM2658.43 27V25.722H2661.37V16.452H2658.43V15.192H2665.81V16.452H2662.88V25.722H2665.81V27H2658.43ZM2668.99 27V15.192H2670.65L2674.43 22.608L2675.56 25.056H2675.6C2675.57 24.468 2675.53 23.856 2675.47 23.22C2675.42 22.572 2675.4 21.936 2675.4 21.312V15.192H2676.84V27H2675.18L2671.4 19.584L2670.27 17.136H2670.23C2670.26 17.748 2670.29 18.366 2670.34 18.99C2670.4 19.602 2670.43 20.214 2670.43 20.826V27H2668.99ZM2684.37 27.216C2683.63 27.216 2682.95 27.078 2682.32 26.802C2681.7 26.526 2681.16 26.13 2680.7 25.614C2680.25 25.086 2679.89 24.444 2679.64 23.688C2679.39 22.92 2679.26 22.056 2679.26 21.096C2679.26 20.148 2679.39 19.296 2679.64 18.54C2679.9 17.772 2680.26 17.13 2680.72 16.614C2681.19 16.086 2681.74 15.684 2682.38 15.408C2683.02 15.12 2683.73 14.976 2684.5 14.976C2684.9 14.976 2685.26 15.018 2685.58 15.102C2685.9 15.186 2686.2 15.3 2686.46 15.444C2686.74 15.576 2686.98 15.726 2687.18 15.894C2687.4 16.062 2687.59 16.236 2687.76 16.416L2686.91 17.37C2686.62 17.058 2686.29 16.8 2685.92 16.596C2685.55 16.392 2685.08 16.29 2684.5 16.29C2683.95 16.29 2683.44 16.404 2682.99 16.632C2682.54 16.848 2682.16 17.166 2681.84 17.586C2681.51 17.994 2681.26 18.492 2681.08 19.08C2680.91 19.668 2680.83 20.328 2680.83 21.06C2680.83 21.804 2680.91 22.476 2681.06 23.076C2681.23 23.664 2681.46 24.168 2681.76 24.588C2682.08 25.008 2682.46 25.332 2682.92 25.56C2683.37 25.788 2683.89 25.902 2684.46 25.902C2684.88 25.902 2685.27 25.842 2685.63 25.722C2685.99 25.59 2686.29 25.416 2686.52 25.2V22.122H2684.16V20.88H2687.9V25.848C2687.53 26.232 2687.04 26.556 2686.43 26.82C2685.83 27.084 2685.14 27.216 2684.37 27.216Z" fill="#676C79"></path> <rect x="2520.5" y="0.5" width="187" height="41" stroke="#8CA6EA"></rect> <path d="M3201.49 27.216C3200.63 27.216 3199.83 27.06 3199.1 26.748C3198.38 26.436 3197.75 26.01 3197.21 25.47L3198.11 24.426C3198.55 24.87 3199.07 25.23 3199.65 25.506C3200.24 25.77 3200.88 25.902 3201.56 25.902C3202.38 25.902 3203.01 25.728 3203.45 25.38C3203.91 25.032 3204.14 24.582 3204.14 24.03C3204.14 23.718 3204.08 23.454 3203.97 23.238C3203.87 23.022 3203.72 22.836 3203.52 22.68C3203.33 22.524 3203.1 22.386 3202.84 22.266C3202.59 22.146 3202.31 22.02 3202.01 21.888L3200.32 21.15C3200.02 21.03 3199.72 20.886 3199.42 20.718C3199.12 20.55 3198.84 20.346 3198.59 20.106C3198.35 19.866 3198.15 19.584 3198 19.26C3197.84 18.924 3197.76 18.54 3197.76 18.108C3197.76 17.664 3197.86 17.25 3198.05 16.866C3198.24 16.482 3198.51 16.152 3198.84 15.876C3199.19 15.588 3199.6 15.366 3200.07 15.21C3200.55 15.054 3201.07 14.976 3201.63 14.976C3202.38 14.976 3203.06 15.114 3203.69 15.39C3204.31 15.654 3204.84 16.002 3205.27 16.434L3204.48 17.406C3204.09 17.058 3203.67 16.788 3203.2 16.596C3202.73 16.392 3202.19 16.29 3201.58 16.29C3200.9 16.29 3200.34 16.446 3199.92 16.758C3199.5 17.058 3199.29 17.478 3199.29 18.018C3199.29 18.306 3199.35 18.552 3199.47 18.756C3199.61 18.948 3199.77 19.122 3199.96 19.278C3200.16 19.422 3200.39 19.548 3200.64 19.656C3200.9 19.764 3201.15 19.872 3201.4 19.98L3203.06 20.7C3203.42 20.844 3203.75 21.012 3204.06 21.204C3204.39 21.384 3204.66 21.6 3204.89 21.852C3205.13 22.092 3205.32 22.38 3205.45 22.716C3205.59 23.04 3205.67 23.418 3205.67 23.85C3205.67 24.318 3205.57 24.756 3205.38 25.164C3205.19 25.572 3204.91 25.932 3204.55 26.244C3204.19 26.544 3203.75 26.784 3203.24 26.964C3202.72 27.132 3202.14 27.216 3201.49 27.216ZM3208.59 27V15.192H3212.26C3212.86 15.192 3213.42 15.252 3213.92 15.372C3214.42 15.48 3214.86 15.666 3215.22 15.93C3215.59 16.194 3215.88 16.536 3216.08 16.956C3216.28 17.376 3216.39 17.892 3216.39 18.504C3216.39 19.428 3216.15 20.166 3215.67 20.718C3215.19 21.27 3214.54 21.648 3213.74 21.852L3216.75 27H3215.04L3212.19 22.014H3210.09V27H3208.59ZM3210.09 20.79H3212.05C3212.97 20.79 3213.67 20.604 3214.15 20.232C3214.65 19.848 3214.89 19.272 3214.89 18.504C3214.89 17.724 3214.65 17.178 3214.15 16.866C3213.67 16.554 3212.97 16.398 3212.05 16.398H3210.09V20.79ZM3219.64 27V15.192H3226.95V16.452H3221.15V20.16H3226.05V21.438H3221.15V25.722H3227.13V27H3219.64Z" fill="#676C79"></path> <rect x="3178.5" y="0.5" width="68" height="41" stroke="#8CA6EA"></rect> </svg> 