<?xml version="1.0" encoding="UTF-8"?> <svg xmlns="http://www.w3.org/2000/svg" width="69" height="42" viewBox="0 0 69 42" fill="none"> <path d="M19.71 27V25.722H22.644V16.452H19.71V15.192H27.09V16.452H24.156V25.722H27.09V27H19.71ZM34.193 27.216C33.521 27.216 32.909 27.078 32.357 26.802C31.805 26.514 31.325 26.106 30.917 25.578C30.521 25.05 30.209 24.408 29.981 23.652C29.765 22.884 29.657 22.014 29.657 21.042C29.657 20.094 29.765 19.242 29.981 18.486C30.209 17.73 30.521 17.094 30.917 16.578C31.325 16.062 31.805 15.666 32.357 15.39C32.909 15.114 33.521 14.976 34.193 14.976C34.853 14.976 35.459 15.114 36.011 15.39C36.575 15.666 37.055 16.062 37.451 16.578C37.859 17.094 38.171 17.73 38.387 18.486C38.615 19.242 38.729 20.094 38.729 21.042C38.729 22.014 38.615 22.884 38.387 23.652C38.171 24.408 37.859 25.05 37.451 25.578C37.055 26.106 36.575 26.514 36.011 26.802C35.459 27.078 34.853 27.216 34.193 27.216ZM34.193 25.902C34.637 25.902 35.045 25.794 35.417 25.578C35.789 25.35 36.101 25.026 36.353 24.606C36.617 24.186 36.821 23.676 36.965 23.076C37.109 22.476 37.181 21.798 37.181 21.042C37.181 20.298 37.109 19.632 36.965 19.044C36.821 18.456 36.617 17.958 36.353 17.55C36.101 17.142 35.789 16.83 35.417 16.614C35.045 16.398 34.637 16.29 34.193 16.29C33.737 16.29 33.323 16.398 32.951 16.614C32.591 16.83 32.279 17.142 32.015 17.55C31.763 17.958 31.565 18.456 31.421 19.044C31.277 19.632 31.205 20.298 31.205 21.042C31.205 21.798 31.277 22.476 31.421 23.076C31.565 23.676 31.763 24.186 32.015 24.606C32.279 25.026 32.591 25.35 32.951 25.578C33.323 25.794 33.737 25.902 34.193 25.902ZM45.0759 27.216C44.2119 27.216 43.4139 27.06 42.6819 26.748C41.9619 26.436 41.3319 26.01 40.7919 25.47L41.6919 24.426C42.1359 24.87 42.6519 25.23 43.2399 25.506C43.8279 25.77 44.4639 25.902 45.1479 25.902C45.9639 25.902 46.5939 25.728 47.0379 25.38C47.4939 25.032 47.7219 24.582 47.7219 24.03C47.7219 23.718 47.6679 23.454 47.5599 23.238C47.4519 23.022 47.3019 22.836 47.1099 22.68C46.9179 22.524 46.6899 22.386 46.4259 22.266C46.1739 22.146 45.8979 22.02 45.5979 21.888L43.9059 21.15C43.6059 21.03 43.3059 20.886 43.0059 20.718C42.7059 20.55 42.4299 20.346 42.1779 20.106C41.9379 19.866 41.7399 19.584 41.5839 19.26C41.4279 18.924 41.3499 18.54 41.3499 18.108C41.3499 17.664 41.4459 17.25 41.6379 16.866C41.8299 16.482 42.0939 16.152 42.4299 15.876C42.7779 15.588 43.1859 15.366 43.6539 15.21C44.1339 15.054 44.6559 14.976 45.2199 14.976C45.9639 14.976 46.6479 15.114 47.2719 15.39C47.8959 15.654 48.4239 16.002 48.8559 16.434L48.0639 17.406C47.6799 17.058 47.2539 16.788 46.7859 16.596C46.3179 16.392 45.7779 16.29 45.1659 16.29C44.4819 16.29 43.9299 16.446 43.5099 16.758C43.0899 17.058 42.8799 17.478 42.8799 18.018C42.8799 18.306 42.9399 18.552 43.0599 18.756C43.1919 18.948 43.3539 19.122 43.5459 19.278C43.7499 19.422 43.9779 19.548 44.2299 19.656C44.4819 19.764 44.7339 19.872 44.9859 19.98L46.6419 20.7C47.0019 20.844 47.3379 21.012 47.6499 21.204C47.9739 21.384 48.2499 21.6 48.4779 21.852C48.7179 22.092 48.9039 22.38 49.0359 22.716C49.1799 23.04 49.2519 23.418 49.2519 23.85C49.2519 24.318 49.1559 24.756 48.9639 25.164C48.7719 25.572 48.4959 25.932 48.1359 26.244C47.7759 26.544 47.3379 26.784 46.8219 26.964C46.3059 27.132 45.7239 27.216 45.0759 27.216Z" fill="#676C79"></path> <rect x="0.5" y="0.5" width="68" height="41" stroke="#A48DEB"></rect> </svg> 