<?xml version="1.0" encoding="UTF-8"?> <svg xmlns="http://www.w3.org/2000/svg" width="228" height="40" viewBox="0 0 228 40" fill="none"> <path d="M19.52 26V24.864H22.128V16.624H19.52V15.504H26.08V16.624H23.472V24.864H26.08V26H19.52ZM28.9058 26V15.504H30.3778L33.7378 22.096L34.7458 24.272H34.7778C34.7564 23.7493 34.7191 23.2053 34.6658 22.64C34.6231 22.064 34.6018 21.4987 34.6018 20.944V15.504H35.8818V26H34.4098L31.0498 19.408L30.0418 17.232H30.0098C30.0311 17.776 30.0631 18.3253 30.1058 18.88C30.1591 19.424 30.1858 19.968 30.1858 20.512V26H28.9058ZM39.3155 26V15.504H45.7635V16.624H40.6595V20.176H44.9795V21.296H40.6595V26H39.3155ZM51.5813 26.192C50.9839 26.192 50.4399 26.0693 49.9493 25.824C49.4586 25.568 49.0319 25.2053 48.6693 24.736C48.3173 24.2667 48.0399 23.696 47.8372 23.024C47.6453 22.3413 47.5493 21.568 47.5493 20.704C47.5493 19.8613 47.6453 19.104 47.8372 18.432C48.0399 17.76 48.3173 17.1947 48.6693 16.736C49.0319 16.2773 49.4586 15.9253 49.9493 15.68C50.4399 15.4347 50.9839 15.312 51.5813 15.312C52.1679 15.312 52.7066 15.4347 53.1973 15.68C53.6986 15.9253 54.1253 16.2773 54.4773 16.736C54.8399 17.1947 55.1173 17.76 55.3093 18.432C55.5119 19.104 55.6133 19.8613 55.6133 20.704C55.6133 21.568 55.5119 22.3413 55.3093 23.024C55.1173 23.696 54.8399 24.2667 54.4773 24.736C54.1253 25.2053 53.6986 25.568 53.1973 25.824C52.7066 26.0693 52.1679 26.192 51.5813 26.192ZM51.5813 25.024C51.9759 25.024 52.3386 24.928 52.6693 24.736C52.9999 24.5333 53.2773 24.2453 53.5013 23.872C53.7359 23.4987 53.9173 23.0453 54.0453 22.512C54.1733 21.9787 54.2373 21.376 54.2373 20.704C54.2373 20.0427 54.1733 19.4507 54.0453 18.928C53.9173 18.4053 53.7359 17.9627 53.5013 17.6C53.2773 17.2373 52.9999 16.96 52.6693 16.768C52.3386 16.576 51.9759 16.48 51.5813 16.48C51.1759 16.48 50.8079 16.576 50.4773 16.768C50.1573 16.96 49.8799 17.2373 49.6453 17.6C49.4213 17.9627 49.2453 18.4053 49.1173 18.928C48.9893 19.4507 48.9253 20.0427 48.9253 20.704C48.9253 21.376 48.9893 21.9787 49.1173 22.512C49.2453 23.0453 49.4213 23.4987 49.6453 23.872C49.8799 24.2453 50.1573 24.5333 50.4773 24.736C50.8079 24.928 51.1759 25.024 51.5813 25.024ZM57.975 26V15.504H61.239C61.7723 15.504 62.263 15.5573 62.711 15.664C63.159 15.76 63.543 15.9253 63.863 16.16C64.1937 16.3947 64.4497 16.6987 64.631 17.072C64.8123 17.4453 64.903 17.904 64.903 18.448C64.903 19.2693 64.6897 19.9253 64.263 20.416C63.8363 20.9067 63.2657 21.2427 62.551 21.424L65.223 26H63.703L61.175 21.568H59.303V26H57.975ZM59.303 20.48H61.047C61.8683 20.48 62.4923 20.3147 62.919 19.984C63.3563 19.6427 63.575 19.1307 63.575 18.448C63.575 17.7547 63.3563 17.2693 62.919 16.992C62.4923 16.7147 61.8683 16.576 61.047 16.576H59.303V20.48ZM67.1208 26V15.504H68.7528L70.2248 19.984L70.7368 21.68H70.8008L71.2968 19.984L72.7848 15.504H74.4167V26H73.1368V20.752C73.1368 20.496 73.1421 20.2027 73.1528 19.872C73.1741 19.5307 73.1954 19.1893 73.2168 18.848C73.2488 18.5067 73.2754 18.176 73.2968 17.856C73.3181 17.536 73.3394 17.264 73.3608 17.04H73.3128L72.7208 19.088L71.2168 23.216H70.2568L68.7848 19.088L68.1768 17.04H68.1448C68.1661 17.264 68.1874 17.536 68.2088 17.856C68.2408 18.176 68.2674 18.5067 68.2888 18.848C68.3101 19.1893 68.3261 19.5307 68.3368 19.872C68.3581 20.2027 68.3688 20.496 68.3688 20.752V26H67.1208ZM79.2745 20.128L78.7785 21.728H81.9145L81.4185 20.128C81.2372 19.5413 81.0558 18.96 80.8745 18.384C80.7038 17.7973 80.5385 17.2 80.3785 16.592H80.3145C80.1438 17.2 79.9732 17.7973 79.8025 18.384C79.6318 18.96 79.4558 19.5413 79.2745 20.128ZM76.0745 26L79.6105 15.504H81.1145L84.6505 26H83.2425L82.2505 22.8H78.4425L77.4345 26H76.0745ZM89.2843 26V16.624H85.8283V15.504H94.0843V16.624H90.6283V26H89.2843ZM96.27 26V24.864H98.878V16.624H96.27V15.504H102.83V16.624H100.222V24.864H102.83V26H96.27ZM109.144 26.192C108.546 26.192 108.002 26.0693 107.512 25.824C107.021 25.568 106.594 25.2053 106.232 24.736C105.88 24.2667 105.602 23.696 105.4 23.024C105.208 22.3413 105.112 21.568 105.112 20.704C105.112 19.8613 105.208 19.104 105.4 18.432C105.602 17.76 105.88 17.1947 106.232 16.736C106.594 16.2773 107.021 15.9253 107.512 15.68C108.002 15.4347 108.546 15.312 109.144 15.312C109.73 15.312 110.269 15.4347 110.76 15.68C111.261 15.9253 111.688 16.2773 112.04 16.736C112.402 17.1947 112.68 17.76 112.872 18.432C113.074 19.104 113.176 19.8613 113.176 20.704C113.176 21.568 113.074 22.3413 112.872 23.024C112.68 23.696 112.402 24.2667 112.04 24.736C111.688 25.2053 111.261 25.568 110.76 25.824C110.269 26.0693 109.73 26.192 109.144 26.192ZM109.144 25.024C109.538 25.024 109.901 24.928 110.232 24.736C110.562 24.5333 110.84 24.2453 111.064 23.872C111.298 23.4987 111.48 23.0453 111.608 22.512C111.736 21.9787 111.8 21.376 111.8 20.704C111.8 20.0427 111.736 19.4507 111.608 18.928C111.48 18.4053 111.298 17.9627 111.064 17.6C110.84 17.2373 110.562 16.96 110.232 16.768C109.901 16.576 109.538 16.48 109.144 16.48C108.738 16.48 108.37 16.576 108.04 16.768C107.72 16.96 107.442 17.2373 107.208 17.6C106.984 17.9627 106.808 18.4053 106.68 18.928C106.552 19.4507 106.488 20.0427 106.488 20.704C106.488 21.376 106.552 21.9787 106.68 22.512C106.808 23.0453 106.984 23.4987 107.208 23.872C107.442 24.2453 107.72 24.5333 108.04 24.736C108.37 24.928 108.738 25.024 109.144 25.024ZM115.25 26V15.504H116.722L120.082 22.096L121.09 24.272H121.122C121.1 23.7493 121.063 23.2053 121.01 22.64C120.967 22.064 120.946 21.4987 120.946 20.944V15.504H122.226V26H120.754L117.394 19.408L116.386 17.232H116.354C116.375 17.776 116.407 18.3253 116.45 18.88C116.503 19.424 116.53 19.968 116.53 20.512V26H115.25ZM138.005 26.192C137.237 26.192 136.528 26.0533 135.877 25.776C135.237 25.4987 134.677 25.12 134.197 24.64L134.997 23.712C135.392 24.1067 135.85 24.4267 136.373 24.672C136.896 24.9067 137.461 25.024 138.069 25.024C138.794 25.024 139.354 24.8693 139.749 24.56C140.154 24.2507 140.357 23.8507 140.357 23.36C140.357 23.0827 140.309 22.848 140.213 22.656C140.117 22.464 139.984 22.2987 139.813 22.16C139.642 22.0213 139.44 21.8987 139.205 21.792C138.981 21.6853 138.736 21.5733 138.469 21.456L136.965 20.8C136.698 20.6933 136.432 20.5653 136.165 20.416C135.898 20.2667 135.653 20.0853 135.429 19.872C135.216 19.6587 135.04 19.408 134.901 19.12C134.762 18.8213 134.693 18.48 134.693 18.096C134.693 17.7013 134.778 17.3333 134.949 16.992C135.12 16.6507 135.354 16.3573 135.653 16.112C135.962 15.856 136.325 15.6587 136.741 15.52C137.168 15.3813 137.632 15.312 138.133 15.312C138.794 15.312 139.402 15.4347 139.957 15.68C140.512 15.9147 140.981 16.224 141.365 16.608L140.661 17.472C140.32 17.1627 139.941 16.9227 139.525 16.752C139.109 16.5707 138.629 16.48 138.085 16.48C137.477 16.48 136.986 16.6187 136.613 16.896C136.24 17.1627 136.053 17.536 136.053 18.016C136.053 18.272 136.106 18.4907 136.213 18.672C136.33 18.8427 136.474 18.9973 136.645 19.136C136.826 19.264 137.029 19.376 137.253 19.472C137.477 19.568 137.701 19.664 137.925 19.76L139.397 20.4C139.717 20.528 140.016 20.6773 140.293 20.848C140.581 21.008 140.826 21.2 141.029 21.424C141.242 21.6373 141.408 21.8933 141.525 22.192C141.653 22.48 141.717 22.816 141.717 23.2C141.717 23.616 141.632 24.0053 141.461 24.368C141.29 24.7307 141.045 25.0507 140.725 25.328C140.405 25.5947 140.016 25.808 139.557 25.968C139.098 26.1173 138.581 26.192 138.005 26.192ZM144.543 26V15.504H151.039V16.624H145.887V19.92H150.239V21.056H145.887V24.864H151.199V26H144.543ZM157.929 26.192C157.278 26.192 156.675 26.0693 156.121 25.824C155.566 25.5787 155.081 25.2267 154.664 24.768C154.259 24.2987 153.939 23.728 153.705 23.056C153.47 22.3733 153.353 21.6053 153.353 20.752C153.353 19.9093 153.47 19.152 153.705 18.48C153.939 17.808 154.265 17.2373 154.681 16.768C155.097 16.2987 155.593 15.9413 156.169 15.696C156.745 15.44 157.374 15.312 158.057 15.312C158.686 15.312 159.241 15.44 159.721 15.696C160.211 15.952 160.611 16.2507 160.921 16.592L160.169 17.44C159.891 17.152 159.582 16.9227 159.241 16.752C158.899 16.5707 158.505 16.48 158.057 16.48C157.555 16.48 157.097 16.5813 156.681 16.784C156.275 16.976 155.929 17.2587 155.641 17.632C155.353 17.9947 155.129 18.4373 154.969 18.96C154.809 19.4827 154.729 20.0693 154.729 20.72C154.729 21.3813 154.809 21.9787 154.969 22.512C155.129 23.0347 155.353 23.4827 155.641 23.856C155.929 24.2293 156.275 24.5173 156.681 24.72C157.097 24.9227 157.555 25.024 158.057 25.024C158.537 25.024 158.963 24.9227 159.337 24.72C159.721 24.5173 160.083 24.2293 160.425 23.856L161.177 24.672C160.761 25.152 160.291 25.5253 159.769 25.792C159.246 26.0587 158.633 26.192 157.929 26.192ZM166.722 26.192C166.21 26.192 165.736 26.1173 165.298 25.968C164.861 25.8187 164.482 25.5787 164.162 25.248C163.853 24.9067 163.608 24.4747 163.426 23.952C163.256 23.4293 163.17 22.7893 163.17 22.032V15.504H164.514V22.064C164.514 22.608 164.568 23.072 164.674 23.456C164.792 23.8293 164.946 24.1333 165.138 24.368C165.341 24.592 165.576 24.7573 165.842 24.864C166.109 24.9707 166.402 25.024 166.722 25.024C167.042 25.024 167.336 24.9707 167.602 24.864C167.869 24.7573 168.104 24.592 168.306 24.368C168.509 24.1333 168.664 23.8293 168.77 23.456C168.888 23.072 168.946 22.608 168.946 22.064V15.504H170.242V22.032C170.242 22.7893 170.152 23.4293 169.97 23.952C169.8 24.4747 169.56 24.9067 169.25 25.248C168.941 25.5787 168.568 25.8187 168.13 25.968C167.704 26.1173 167.234 26.192 166.722 26.192ZM173.1 26V15.504H176.364C176.897 15.504 177.388 15.5573 177.836 15.664C178.284 15.76 178.668 15.9253 178.988 16.16C179.319 16.3947 179.575 16.6987 179.756 17.072C179.937 17.4453 180.028 17.904 180.028 18.448C180.028 19.2693 179.815 19.9253 179.388 20.416C178.961 20.9067 178.391 21.2427 177.676 21.424L180.348 26H178.828L176.3 21.568H174.428V26H173.1ZM174.428 20.48H176.172C176.993 20.48 177.617 20.3147 178.044 19.984C178.481 19.6427 178.7 19.1307 178.7 18.448C178.7 17.7547 178.481 17.2693 178.044 16.992C177.617 16.7147 176.993 16.576 176.172 16.576H174.428V20.48ZM182.614 26V24.864H185.222V16.624H182.614V15.504H189.174V16.624H186.566V24.864H189.174V26H182.614ZM194.816 26V16.624H191.36V15.504H199.616V16.624H196.16V26H194.816ZM204.409 26V22.256L200.889 15.504H202.297L203.881 18.624C204.084 19.0293 204.281 19.4347 204.473 19.84C204.665 20.2347 204.868 20.6453 205.081 21.072H205.145C205.359 20.6453 205.567 20.2293 205.769 19.824C205.972 19.4187 206.175 19.0133 206.377 18.608L207.897 15.504H209.273L205.753 22.256V26H204.409Z" fill="#676C79"></path> <rect x="0.5" y="0.5" width="227" height="39" stroke="#A48DEB"></rect> </svg> 