<?xml version="1.0" encoding="UTF-8"?> <svg xmlns="http://www.w3.org/2000/svg" width="123" height="42" viewBox="0 0 123 42" fill="none"> <path d="M22.644 27V16.452H18.756V15.192H28.044V16.452H24.156V27H22.644ZM30.845 27V15.192H38.153V16.452H32.357V20.16H37.253V21.438H32.357V25.722H38.333V27H30.845ZM43.7619 20.394L43.2039 22.194H46.7319L46.1739 20.394C45.9699 19.734 45.7659 19.08 45.5619 18.432C45.3699 17.772 45.1839 17.1 45.0039 16.416H44.9319C44.7399 17.1 44.5479 17.772 44.3559 18.432C44.1639 19.08 43.9659 19.734 43.7619 20.394ZM40.1619 27L44.1399 15.192H45.8319L49.8099 27H48.2259L47.1099 23.4H42.8259L41.6919 27H40.1619ZM51.6749 27V15.192H53.5109L55.1669 20.232L55.7429 22.14H55.8149L56.3729 20.232L58.0469 15.192H59.8829V27H58.4429V21.096C58.4429 20.808 58.4489 20.478 58.4609 20.106C58.4849 19.722 58.5089 19.338 58.5329 18.954C58.5689 18.57 58.5989 18.198 58.6229 17.838C58.6469 17.478 58.6709 17.172 58.6949 16.92H58.6409L57.9749 19.224L56.2829 23.868H55.2029L53.5469 19.224L52.8629 16.92H52.8269C52.8509 17.172 52.8749 17.478 52.8989 17.838C52.9349 18.198 52.9649 18.57 52.9889 18.954C53.0129 19.338 53.0309 19.722 53.0429 20.106C53.0669 20.478 53.0789 20.808 53.0789 21.096V27H51.6749ZM63.5839 27V15.192H65.0599V25.722H70.9099V27H63.5839ZM74.0168 27V15.192H81.3248V16.452H75.5288V20.16H80.4248V21.438H75.5288V25.722H81.5048V27H74.0168ZM86.9338 20.394L86.3758 22.194H89.9038L89.3458 20.394C89.1418 19.734 88.9378 19.08 88.7338 18.432C88.5418 17.772 88.3558 17.1 88.1758 16.416H88.1038C87.9118 17.1 87.7198 17.772 87.5278 18.432C87.3358 19.08 87.1378 19.734 86.9338 20.394ZM83.3338 27L87.3118 15.192H89.0038L92.9818 27H91.3978L90.2818 23.4H85.9978L84.8638 27H83.3338ZM95.1168 27V15.192H98.0328C99.8208 15.192 101.177 15.696 102.101 16.704C103.037 17.712 103.505 19.158 103.505 21.042C103.505 22.926 103.037 24.39 102.101 25.434C101.177 26.478 99.8448 27 98.1048 27H95.1168ZM96.6108 25.776H97.9248C99.2808 25.776 100.289 25.362 100.949 24.534C101.621 23.706 101.957 22.542 101.957 21.042C101.957 19.542 101.621 18.396 100.949 17.604C100.289 16.812 99.2808 16.416 97.9248 16.416H96.6108V25.776Z" fill="#676C79"></path> <rect x="0.5" y="0.5" width="122" height="41" stroke="#A48DEB"></rect> </svg> 